<?xml version="1.0" standalone="no"?>
<!DOCTYPE svg PUBLIC "-//W3C//DTD SVG 1.1//EN" "http://www.w3.org/Graphics/SVG/1.1/DTD/svg11.dtd" >
<svg xmlns="http://www.w3.org/2000/svg" xmlns:xlink="http://www.w3.org/1999/xlink" version="1.1">
<metadata>
Created by FontForge 20170731 at Fri Mar 15 14:02:38 2019
 By Aleksey,,,
Copyright 2017 The EB Garamond Project Authors (https://github.com/octaviopardo/EBGaramond12)
</metadata>
<defs>
<font id="EBGaramond-ExtraBoldItalic" horiz-adv-x="0" >
  <font-face 
    font-family="EB Garamond ExtraBold"
    font-weight="800"
    font-style="italic"
    font-stretch="normal"
    units-per-em="1000"
    panose-1="0 0 0 0 0 0 0 0 0 0"
    ascent="800"
    descent="-200"
    x-height="437"
    cap-height="655"
    bbox="-345 -390 2730 1032"
    underline-thickness="50"
    underline-position="-175"
    slope="-17.2"
    unicode-range="U+000D-1F44D"
  />
<missing-glyph horiz-adv-x="516" 
d="M45 1v551h466v-551h-466zM149 117h258v319h-258v-319z" />
    <glyph glyph-name="f_f" unicode="ff" horiz-adv-x="719" 
d="M237 -291q-40 0 -77.5 12.5t-62 33.5t-27.5 48l67 95q11 -72 38.5 -103t61.5 -31q47 0 70 34.5t37 83.5l152 577q25 91 71 145t100 78t101 24q46 0 78 -21.5t32 -54.5q0 -26 -12.5 -50t-34.5 -24q-19 0 -27 17.5t-16 38.5q-7 20 -17.5 36.5t-30.5 16.5q-16 0 -31.5 -19.5
t-28 -49.5t-22.5 -63q-6 -21 -11 -40.5t-7 -35.5q-1 -5 -1.5 -9.5t-1.5 -9.5q-1 -10 4.5 -13t12.5 -3q26 0 48 1.5t47 1.5q11 0 11 -15q0 -5 -5 -15t-11 -18t-10 -8l-79 -3q-19 -1 -28 -6.5t-13 -19.5l-114 -408q-22 -75 -66 -124.5t-96.5 -74t-100.5 -24.5zM-58 -291
q-78 0 -111 26.5t-33 55.5q0 27 17 43.5t37 16.5q10 0 22 -16t22 -31q11 -16 22.5 -31t30.5 -15q14 0 25 13t20.5 35.5t17.5 50.5l136 490q4 18 -14 18l-59 -1q-11 0 -15 4.5t-4 14.5q0 8 9.5 21.5t27.5 14.5l61 3q5 0 6.5 3t4.5 10l14 34q23 56 53.5 98t65.5 69.5
t71.5 41.5t72.5 14q41 0 78 -12t61.5 -33.5t27.5 -48.5l-67 -95q-11 72 -38.5 103t-61.5 31q-46 0 -69.5 -34.5t-37.5 -83.5q-7 -34 -11.5 -50.5t-6.5 -22t-3 -8.5q-1 -10 4.5 -13t12.5 -3l221 3q11 0 11 -15q0 -5 -5 -15t-11 -18t-10 -8l-205 -3q-19 0 -28 -6t-13 -20
l-120 -429q-9 -34 -35 -69.5t-60.5 -65.5t-69.5 -48.5t-64 -18.5z" />
    <glyph glyph-name="uniFB01" unicode="fi" horiz-adv-x="663" 
d="M-58 -291q-78 0 -111 26.5t-33 55.5q0 27 17 43.5t37 16.5q10 0 22 -16t22 -31q11 -16 22.5 -31t30.5 -15q14 0 25 13t20.5 35.5t17.5 50.5l136 490q4 18 -14 18l-59 -1q-11 0 -15 4.5t-4 14.5q0 8 9.5 21.5t27.5 14.5l61 3q7 0 11 13l8 24q25 67 60.5 114t77 76
t84.5 42.5t83 13.5q51 0 87 -21.5t36 -54.5q0 -26 -12.5 -50t-34.5 -24q-19 0 -26.5 18t-17.5 38t-23.5 35.5t-40.5 15.5q-24 0 -44 -18.5t-36 -47t-27 -59.5t-16 -55l-9 -44q-1 -10 4.5 -13t12.5 -3q13 0 44 0.5t68 1t68 1t44 0.5q11 0 11 -15q0 -5 -5 -15t-11 -18t-10 -8
l-208 -3q-19 0 -28 -6t-13 -20q-29 -106 -59.5 -214t-60.5 -215q-9 -34 -35 -69.5t-60.5 -65.5t-69.5 -48.5t-64 -18.5zM413 -14q-25 0 -45 19.5t-20 38.5q0 5 1 10.5t4 12.5l128 313l-42 43q40 0 67 2.5t43 8.5t32.5 -1.5t26.5 -21t5 -26.5l-110 -274q-1 -3 -1.5 -6.5
t-0.5 -5.5q0 -3 1.5 -5t3.5 -2q7 0 26 11.5t40 27t34 28.5q3 3 4 3q6 0 10 -5t4 -11q0 -18 -22 -45t-55 -53.5t-69 -44t-65 -17.5z" />
    <glyph glyph-name="uniFB02" unicode="fl" horiz-adv-x="702" 
d="M-58 -291q-78 0 -111 26.5t-33 55.5q0 27 17 43.5t37 16.5q10 0 22 -16t22 -31q11 -16 22.5 -31t30.5 -15q14 0 25 13t20.5 35.5t17.5 50.5l136 490q4 18 -14 18l-59 -1q-11 0 -15 4.5t-4 14.5q0 8 9.5 21.5t27.5 14.5l61 3q7 0 11 13l16 47q26 76 70 125.5t97.5 73.5
t106.5 24q35 0 70 -12t59 -33.5t27 -48.5l-57 -85q-11 72 -39 98t-56 26q-43 0 -73 -26.5t-49 -91.5q-6 -21 -11 -41.5t-8 -35t-4 -17.5q-1 -10 4.5 -13t12.5 -3l221 3q11 0 11 -15q0 -5 -5 -15t-11 -18t-10 -8l-205 -3q-19 0 -28 -6t-13 -20l-120 -429q-9 -34 -35 -69.5
t-60.5 -65.5t-69.5 -48.5t-64 -18.5zM456 -14q-25 0 -42 19.5t-17 38.5q0 8 5 23l165 491q13 38 7.5 52.5t-25.5 17.5q-16 2 -19 6.5t-2 11.5q2 7 5.5 11t15.5 7q28 7 60 13t61 11.5t46 11.5q3 1 8 2.5t10 2.5t7 1q6 0 9.5 -8t1.5 -13q-2 -7 -6 -20t-9 -27l-178 -511
q-1 -3 -1.5 -6t-0.5 -5q0 -13 12 -13q8 0 21.5 9t28.5 22.5t28 26.5l2 2t2 1q8 0 10.5 -7t2.5 -10q0 -15 -14.5 -35.5t-38.5 -42.5t-52 -40.5t-55 -30.5t-48 -12z" />
    <glyph glyph-name="uniFB03" unicode="ffi" horiz-adv-x="998" 
d="M247 -291q-40 0 -77.5 12.5t-62 33.5t-27.5 48l67 95q11 -72 38.5 -103t61.5 -31q47 0 70.5 34.5t36.5 83.5l148 555q21 77 56.5 128.5t79.5 82t89.5 44t85.5 13.5q51 0 87 -21.5t36 -54.5q0 -26 -12.5 -50t-34.5 -24q-19 0 -26.5 18t-17.5 38t-23.5 35.5t-40.5 15.5
q-24 0 -44 -18.5t-36 -47t-27 -59.5t-16 -55l-9 -44q-1 -10 4.5 -13t12.5 -3q13 0 44 0.5t68 1t68 1t44 0.5q11 0 11 -15q0 -5 -5 -15t-11 -18t-10 -8l-208 -3q-19 0 -28 -6t-13 -20q-15 -53 -29 -103.5t-28.5 -100t-29 -100t-29.5 -104.5q-22 -75 -66 -124.5t-96.5 -74
t-100.5 -24.5zM-58 -291q-78 0 -111 26.5t-33 55.5q0 27 17 43.5t37 16.5q10 0 22 -16t22 -31q11 -16 22.5 -31t30.5 -15q14 0 25 13t20.5 35.5t17.5 50.5l136 490q4 18 -14 18l-59 -1q-11 0 -15 4.5t-4 14.5q0 8 9.5 21.5t27.5 14.5l61 3q5 0 6.5 3t4.5 10l12 34
q20 57 50.5 99t66.5 69.5t74 41t74 13.5q41 0 78 -12t61.5 -33.5t27.5 -48.5l-57 -85q-7 48 -24.5 75t-38 38t-39.5 11q-35 0 -57 -16t-35 -42.5t-23 -59.5q-7 -34 -11.5 -50.5t-6.5 -22t-3 -8.5q-1 -10 4.5 -13t12.5 -3l221 3q11 0 11 -15q0 -5 -5 -15t-11 -18t-10 -8
l-205 -3q-19 0 -28 -6t-13 -20l-120 -429q-9 -34 -35 -69.5t-60.5 -65.5t-69.5 -48.5t-64 -18.5zM748 -14q-25 0 -45 19.5t-20 38.5q0 5 1 10.5t4 12.5l128 313l-42 43q40 0 67 2.5t43 8.5t32.5 -1.5t26.5 -21t5 -26.5l-110 -274q-1 -3 -1.5 -6.5t-0.5 -5.5q0 -3 1.5 -5
t3.5 -2q7 0 26 11.5t40 27t34 28.5q3 3 4 3q6 0 10 -5t4 -11q0 -18 -22 -45t-55 -53.5t-69 -44t-65 -17.5z" />
    <glyph glyph-name="uniFB04" unicode="ffl" horiz-adv-x="1037" 
d="M247 -291q-40 0 -77.5 12.5t-62 33.5t-27.5 48l67 95q11 -72 38.5 -103t61.5 -31q47 0 70 34.5t37 83.5l155 575q18 68 48.5 115t69 76.5t80.5 43t82 13.5q35 0 70 -12t59 -33.5t27 -48.5l-57 -85q-11 72 -39 98t-56 26q-43 0 -73 -26.5t-49 -91.5q-6 -21 -11 -41.5
t-8 -35t-4 -17.5q-1 -10 4.5 -13t12.5 -3l221 3q11 0 11 -15q0 -5 -5 -15t-11 -18t-10 -8l-205 -3q-19 0 -28 -6t-13 -20l-115 -408q-22 -75 -66 -124.5t-96.5 -74t-100.5 -24.5zM-58 -291q-78 0 -111 26.5t-33 55.5q0 27 17 43.5t37 16.5q10 0 22 -16t22 -31
q11 -16 22.5 -31t30.5 -15q14 0 25 13t20.5 35.5t17.5 50.5l136 490q4 18 -14 18l-59 -1q-11 0 -15 4.5t-4 14.5q0 8 9.5 21.5t27.5 14.5l61 3q5 0 6.5 3t4.5 10l12 34q20 57 50.5 99t66.5 69.5t74 41t74 13.5q41 0 78 -12t61.5 -33.5t27.5 -48.5l-57 -85q-7 48 -24.5 75
t-38 38t-39.5 11q-35 0 -57 -16t-35 -42.5t-23 -59.5q-7 -34 -11.5 -50.5t-6.5 -22t-3 -8.5q-1 -10 4.5 -13t12.5 -3l221 3q11 0 11 -15q0 -5 -5 -15t-11 -18t-10 -8l-205 -3q-19 0 -28 -6t-13 -20l-120 -429q-9 -34 -35 -69.5t-60.5 -65.5t-69.5 -48.5t-64 -18.5zM791 -14
q-25 0 -42 19.5t-17 38.5q0 8 5 23l165 491q13 38 7.5 52.5t-25.5 17.5q-16 2 -19 6.5t-2 11.5q2 7 5.5 11t15.5 7q28 7 60 13t61 11.5t46 11.5q3 1 8 2.5t10 2.5t7 1q6 0 9.5 -8t1.5 -13q-2 -7 -6 -20t-9 -27l-178 -511q-1 -3 -1.5 -6t-0.5 -5q0 -13 12 -13q8 0 21.5 9
t28.5 22.5t28 26.5l2 2t2 1q8 0 10.5 -7t2.5 -10q0 -15 -14.5 -35.5t-38.5 -42.5t-52 -40.5t-55 -30.5t-48 -12z" />
    <glyph glyph-name=".notdef" horiz-adv-x="516" 
d="M45 1v551h466v-551h-466zM149 117h258v319h-258v-319z" />
    <glyph glyph-name=".null" 
 />
    <glyph glyph-name="nonmarkingreturn" horiz-adv-x="333" 
 />
    <glyph glyph-name="NULL" 
 />
    <glyph glyph-name="CR" unicode="&#xd;" horiz-adv-x="245" 
 />
    <glyph glyph-name="space" unicode=" " horiz-adv-x="245" 
 />
    <glyph glyph-name="exclam" unicode="!" horiz-adv-x="305" 
d="M137 172q-13 0 -17.5 12t0.5 41q10 58 19 106t17 86.5t13.5 66.5t9.5 46q6 30 20.5 57t36 44.5t49.5 17.5q20 0 34.5 -16.5t17.5 -47.5t-15 -77q-3 -9 -14.5 -33.5t-29.5 -61.5t-41.5 -84.5t-51.5 -103.5q-12 -23 -23.5 -38t-24.5 -15zM83 -14q-25 0 -43 18t-18 41
q0 35 27.5 62.5t64.5 27.5q32 0 48.5 -20.5t16.5 -43.5q0 -34 -29 -59.5t-67 -25.5z" />
    <glyph glyph-name="quotedbl" unicode="&#x22;" horiz-adv-x="413" 
d="M141 400q-7 0 -6.5 10.5t3.5 18.5q7 20 10.5 35.5t8.5 31.5q11 35 17 65t14 56q5 15 18.5 26t24.5 17q22 12 38 18.5t35 6.5q12 0 16 -11.5t-1 -26.5q-7 -24 -23.5 -54t-37 -61t-40.5 -57t-35 -43q-10 -11 -23.5 -21.5t-18.5 -10.5zM309 400q-7 0 -6.5 10.5t3.5 18.5
q7 20 10.5 35.5t8.5 31.5q11 35 17 65t14 56q5 15 18.5 26t24.5 17q22 12 38 18.5t35 6.5q12 0 16 -11.5t-1 -26.5q-7 -24 -23.5 -54t-37 -61t-40.5 -57t-35 -43q-10 -11 -23.5 -21.5t-18.5 -10.5z" />
    <glyph glyph-name="numbersign" unicode="#" horiz-adv-x="484" 
d="M-10 -96q-7 0 -11 6t-1 13l2 5l77 157l-58 -2q-11 -1 -14.5 6.5t-2.5 14.5q6 28 15.5 43.5t20 22.5t20.5 7l71 3l46 106l-68 -3q-11 -1 -15 6.5t-3 14.5q6 28 15.5 43.5t20.5 22.5t21 7l76 3l70 143q7 17 22 22t32 5q6 0 8 -6t0 -13q-1 -3 -2 -4.5t-2 -3.5l-68 -140
l119 4l72 147q7 17 19.5 22t29.5 5q6 0 8.5 -6t0.5 -13q-1 -3 -2.5 -4.5t-1.5 -3.5l-70 -144l59 3q13 1 18.5 -5.5t3.5 -16.5q-4 -17 -14.5 -33.5t-22.5 -27t-23 -11.5l-68 -3l-53 -107l71 3q13 1 18.5 -5.5t3.5 -16.5q-4 -17 -14.5 -33.5t-23 -27t-22.5 -11.5l-79 -3
l-74 -151q-7 -16 -14.5 -20t-23.5 -4q-7 0 -13 6t-5 13l1 5l74 148l-119 -4l-78 -160q-7 -16 -20 -20t-29 -4zM163 182l119 4l52 107l-118 -4z" />
    <glyph glyph-name="dollar" unicode="$" horiz-adv-x="564" 
d="M237 -14q-40 0 -74 4.5t-63 16.5q-15 6 -25.5 9.5t-13.5 3.5q-7 0 -14.5 -2.5t-12.5 -5.5l-14 -8t-12 -4q-6 0 -15.5 8.5t-9.5 15.5q0 8 12 33t25.5 60.5t18.5 73.5q3 19 8.5 27t18.5 8q15 0 18.5 -16.5t3.5 -51.5q0 -31 14.5 -62.5t43.5 -52t72 -20.5q41 0 70.5 15.5
t45 41t15.5 53.5q0 22 -9 40.5t-33 43t-69 62.5q-52 44 -76 84.5t-24 101.5q0 56 32.5 101t90 71.5t131.5 26.5q40 0 72.5 -6.5t54.5 -13.5q21 -6 33.5 -9.5t25.5 -3.5q16 0 27 6q8 5 16 8t15 3q11 0 13.5 -7.5t-4.5 -16.5q-13 -17 -28.5 -46t-28 -60.5t-20.5 -57.5
q-3 -10 -7.5 -16.5t-15.5 -6.5t-15.5 10.5t-4.5 33.5q0 65 -34.5 106t-90.5 41q-38 0 -63 -16t-37 -40t-12 -48q0 -23 9 -41.5t32 -40t65 -55.5q64 -51 86 -94t22 -94t-32 -100t-91 -81t-142 -32zM128 -96q-16 0 -18.5 10.5t1.5 22.5l323 766q5 11 20 16.5t32 5.5
q11 0 12.5 -9t-5.5 -24l-327 -774q-2 -7 -13 -10.5t-25 -3.5z" />
    <glyph glyph-name="percent" unicode="%" horiz-adv-x="750" 
d="M195 263q-40 0 -67 22.5t-33.5 68.5t14.5 114q13 39 40.5 73t66.5 54.5t84 20.5q42 0 67.5 -24t30.5 -68t-13 -104q-15 -49 -44 -84t-66.5 -54t-79.5 -19zM202 297q13 0 27.5 19t28 48t22.5 59q10 32 16.5 60.5t9 50.5t-1 35t-13.5 13q-13 0 -28 -19t-29 -49.5t-24 -63.5
t-16.5 -61t-8 -48.5t2.5 -32t14 -11.5zM105 -19q-16 0 -22 13t4 23l609 636q8 8 22.5 12t27.5 4q16 0 22 -10t-3 -19l-606 -632q-13 -14 -26 -20.5t-28 -6.5zM508 -17q-40 0 -67 22.5t-33.5 68.5t14.5 114q13 39 40.5 73t66.5 54.5t84 20.5q42 0 67.5 -24t30.5 -68t-13 -104
q-15 -49 -44 -84t-66.5 -54t-79.5 -19zM515 17q13 0 27.5 19t28 48t22.5 59q10 32 16.5 60.5t9 50.5t-1 35t-13.5 13q-13 0 -28 -19t-29 -49.5t-24 -63.5t-16.5 -61t-8 -48.5t2.5 -32t14 -11.5z" />
    <glyph glyph-name="ampersand" unicode="&#x26;" horiz-adv-x="859" 
d="M419 -14q-94 0 -169.5 33.5t-120 93t-44.5 137.5q0 72 30.5 130.5t82 93.5t113.5 34q61 -1 88.5 -27.5t27.5 -64.5q0 -25 -15 -46.5t-40.5 -35t-57.5 -13.5q-49 0 -88 26t-62 72t-23 107q0 55 29.5 98.5t79.5 69t111 24.5q56 -1 88 -31t32 -80q0 -27 -15 -43.5t-40 -16.5
q-13 0 -26.5 13t-13.5 27q0 23 -16 42t-37 19q-39 0 -67.5 -14.5t-44.5 -42t-16 -66.5q0 -160 107 -160q30 0 47 15.5t17 38.5q0 21 -16.5 36.5t-47.5 15.5q-68 0 -106.5 -43.5t-38.5 -115.5q0 -50 30 -95.5t93 -73.5t163 -28q86 0 146 27.5t92 74t32 103.5q0 45 -32.5 79.5
t-97.5 32.5q-35 -1 -60.5 -25t-25.5 -54q0 -19 15 -31t38 -12q9 0 17 8l16 16t15.5 13.5t17.5 5.5q26 0 38.5 -13.5t12.5 -32.5q0 -33 -22.5 -53t-54.5 -20q-61 0 -99 32.5t-38 83.5q0 61 25.5 99t68 56t93.5 18h80q86 0 120.5 23.5t34.5 77.5q0 29 -18 43t-35 14
q-16 0 -23 -5t-7 -12q0 -6 4 -12t11 -11q9 -7 13.5 -16t4.5 -19q0 -19 -15 -36t-43 -17q-29 0 -44.5 20.5t-14.5 46.5q0 23 11.5 45.5t35.5 37.5t60 15q42 0 73.5 -30.5t31.5 -96.5q0 -44 -18 -82t-50 -61.5t-74 -25.5q-28 -1 -34 -4t-2 -9q14 -22 20.5 -50t6.5 -55
q0 -99 -46 -170.5t-127.5 -109.5t-186.5 -38z" />
    <glyph glyph-name="quotesingle" unicode="'" horiz-adv-x="245" 
d="M141 400q-7 0 -6.5 10.5t3.5 18.5q7 20 10.5 35.5t8.5 31.5q11 35 17 65t14 56q5 15 18.5 26t24.5 17q22 12 38 18.5t35 6.5q12 0 16 -11.5t-1 -26.5q-7 -24 -23.5 -54t-37 -61t-40.5 -57t-35 -43q-10 -11 -23.5 -21.5t-18.5 -10.5z" />
    <glyph glyph-name="parenleft" unicode="(" horiz-adv-x="298" 
d="M125 -215q-30 0 -54 46q-21 40 -33 105t-12 138q0 124 41 241.5t118 215t184 161.5q26 14 45 14q22 0 22 -14q0 -4 -3.5 -9.5t-11.5 -11.5q-71 -54 -128 -127.5t-97.5 -160t-62 -179t-21.5 -182.5q0 -59 8.5 -100t17 -67.5t8.5 -42.5q0 -11 -6 -19t-15 -8z" />
    <glyph glyph-name="parenright" unicode=")" horiz-adv-x="298" 
d="M194 706q30 0 54 -46q21 -40 33 -105t12 -138q0 -124 -41 -241.5t-118 -215t-184 -161.5q-26 -14 -45 -14q-22 0 -22 14q0 4 3.5 9.5t11.5 11.5q71 54 128 127.5t97.5 160t62 179t21.5 182.5q0 59 -8.5 100t-17 67.5t-8.5 42.5q0 11 6 19t15 8z" />
    <glyph glyph-name="asterisk" unicode="*" horiz-adv-x="364" 
d="M236 352q-18 0 -26 15t-4 34q2 9 4 17.5t4 16.5t4.5 16.5t4.5 16.5q-7 1 -29.5 -1.5t-41.5 -4.5q-18 -2 -31 6.5t-13 21.5q0 16 10.5 26t21.5 11q8 2 16.5 4t16.5 3.5t16.5 3.5t16.5 4q-3 7 -17 23.5t-25 32.5q-9 14 -9 27t9 22.5t22 9.5q8 0 15.5 -3.5t14.5 -11.5
q11 -13 22.5 -25.5t23.5 -24.5q6 17 12.5 32.5t14.5 31.5q5 11 14 18.5t21 7.5q17 0 25.5 -14.5t3.5 -34.5q-3 -11 -6.5 -21.5t-6.5 -21.5t-7 -22q5 0 19 3t30 5.5t27 2.5q17 0 26.5 -6.5t9.5 -20.5q0 -11 -7.5 -23.5t-22.5 -15.5q-16 -4 -32.5 -8.5t-33.5 -9.5
q4 -6 18.5 -22t25.5 -30q5 -6 8.5 -13.5t3.5 -15.5q0 -11 -8.5 -20.5t-21.5 -9.5q-7 0 -15 2.5t-16 9.5q-11 12 -24 24t-25 23q-3 -6 -11 -28t-16 -39q-4 -10 -12.5 -17t-19.5 -7z" />
    <glyph glyph-name="plus" unicode="+" horiz-adv-x="599" 
d="M294 -12q-4 0 -8.5 5t-4.5 12v201q0 13 -13 13h-211q-7 0 -12 4.5t-5 8.5q0 8 3 19.5t9.5 21t16.5 9.5h198q10 0 12 3.5t2 10.5v182q0 10 8 17.5t19.5 12t19.5 4.5t12 -7t4 -16v-193q0 -7 3 -10.5t10 -3.5h204q9 0 16 -4t7 -12q0 -13 -10 -30t-24 -17h-193q-13 0 -13 -13
v-189q0 -10 -9.5 -16.5t-21 -9.5t-19.5 -3z" />
    <glyph glyph-name="comma" unicode="," horiz-adv-x="280" 
d="M-49 -166q-12 0 -18 5.5t-3 13.5t11 13.5t19 6.5q27 4 51 17.5t39 33.5t15 40q0 14 -9 21t-21 11q-11 4 -19.5 13.5t-8.5 25.5q0 34 24.5 59t59.5 25q37 0 62 -23.5t25 -64.5q0 -33 -18.5 -68t-51 -64t-73 -47t-84.5 -18z" />
    <glyph glyph-name="hyphen" unicode="-" horiz-adv-x="333" 
d="M30 163q-7 -1 -10 2.5t-3 8.5q0 29 15.5 45.5t28.5 18.5q58 9 122.5 17t120.5 12q11 1 12.5 -4.5t1.5 -13.5t-6.5 -20.5t-15.5 -22.5t-17 -12q-58 -8 -125 -17t-124 -14z" />
    <glyph glyph-name="period" unicode="." horiz-adv-x="280" 
d="M70 -34q-28 0 -48 21t-20 48q0 28 14.5 52t38 39t51.5 15q35 0 53.5 -24.5t18.5 -50.5t-14.5 -49t-39 -37t-54.5 -14z" />
    <glyph glyph-name="slash" unicode="/" horiz-adv-x="277" 
d="M-43 -60q-11 1 -17 8t-2 14l393 683q8 14 20.5 17t28.5 1q14 -1 19 -9t1 -15l-395 -683q-7 -13 -20.5 -15t-27.5 -1z" />
    <glyph glyph-name="zero" unicode="0" horiz-adv-x="540" 
d="M249 -14q-55 0 -93 24t-57.5 67.5t-19.5 101t21 123.5q21 69 57 129t83.5 104.5t103.5 70t117 25.5q57 0 95 -25t57 -68.5t18.5 -100t-20.5 -120.5q-23 -74 -60.5 -134.5t-86 -104.5t-103.5 -68t-112 -24zM278 29q22 0 44 22.5t43.5 60.5t41 86.5t35.5 100.5t25.5 102.5
t10.5 92t-10 66.5t-35 25q-29 0 -59 -37.5t-57 -98.5t-48 -130q-16 -52 -25.5 -103t-10.5 -93.5t9.5 -68t35.5 -25.5z" />
    <glyph glyph-name="one" unicode="1" horiz-adv-x="540" 
d="M44 -3q-6 0 -10 4t-3 11q2 9 8.5 14.5t16.5 7.5q41 10 66 21t35 42l108 348q12 40 -7 55t-51 22q-7 2 -14 7t-4 16q3 13 15 20t25 8q43 3 82.5 10t78 19.5t76.5 28.5q5 2 10.5 4t7.5 2q8 0 11 -3.5t1 -8.5q-4 -12 -12 -28.5t-16 -44.5l-141 -454q-5 -18 0.5 -29t21 -18.5
t38.5 -16.5q8 -3 13.5 -7t3.5 -14q-1 -7 -9 -11t-16 -4q-21 0 -53.5 1t-64 2t-51.5 1t-50.5 -1t-62 -2.5t-53.5 -1.5z" />
    <glyph glyph-name="two" unicode="2" horiz-adv-x="540" 
d="M392 -4q-6 0 -22 0.5t-39 1.5t-49.5 1.5t-52.5 0.5q-25 0 -65 -0.5l-80 -1t-68.5 -1t-30.5 -0.5q-10 0 -4 8t11 13l225 184q68 56 104.5 98.5t51 78.5t14.5 70q0 48 -25.5 68t-57.5 20q-40 0 -68 -19.5t-52 -43.5q-7 -7 -13 -15t-11 -8t-8 4.5t-3 14.5q0 25 18 53.5
t50 54t73 41.5t87 15q78 -1 123 -37t45 -90q0 -39 -17 -74t-46 -67t-65 -64q-15 -13 -44 -35t-62.5 -47t-64.5 -48t-51 -38t-21 -17t3.5 -3.5t9.5 -2.5q19 -3 40 -3.5t41 -0.5q21 0 48.5 1t47.5 3q22 3 41 10t36 20.5t32 33.5q5 7 15.5 14t20.5 7q8 0 9 -7t-4 -15
q-16 -22 -31.5 -47.5t-29 -48.5t-22.5 -39t-11 -21q-4 -10 -15 -16t-13 -6z" />
    <glyph glyph-name="three" unicode="3" horiz-adv-x="540" 
d="M109 -38q-50 0 -77.5 12.5t-27.5 34.5q0 24 10 39t26 15q6 0 17 -5.5t24 -13.5q17 -10 37 -18t39 -8q43 0 74.5 29t49.5 73.5t18 90.5q0 32 -14.5 53.5t-47.5 21.5q-28 0 -46 -10t-26 -13q-10 -4 -18 -0.5t-8 13.5q0 14 11.5 24.5t27.5 19t27 14.5q30 15 59 32.5
t53.5 36.5t39 41.5t14.5 47.5t-15 46t-44 21q-39 0 -66.5 -26t-44.5 -52q-5 -8 -11.5 -11.5t-9.5 -3.5q-7 0 -14.5 11.5t-7.5 21.5q0 7 13.5 27.5t41 44.5t68.5 41t95 17q48 0 79.5 -16t47 -40.5t15.5 -51.5q0 -28 -18 -53t-46.5 -46.5t-62 -38t-64.5 -28.5q-4 -1 -4.5 -3.5
t3.5 -2.5q36 0 69 -15.5t53.5 -42t20.5 -60.5q0 -38 -23.5 -75t-62.5 -69.5t-87 -60.5q-46 -26 -93 -45t-94 -19z" />
    <glyph glyph-name="four" unicode="4" horiz-adv-x="540" 
d="M142 -3q-6 0 -10.5 4t-2.5 11q3 9 9.5 14.5t16.5 7.5q41 9 58 20.5t27 42.5l14 45q2 8 -2.5 11t-10.5 3q-29 0 -70.5 -2t-84 -4t-76.5 -2q-4 0 -6 8t2 12q8 8 14.5 14t12.5 11.5t13 13.5l366 398q14 14 31 25.5t29 11.5h27q5 0 2 -5.5t-7.5 -11l-4.5 -5.5l-334 -362
q-9 -9 -6 -12t10 -3h119q3 0 5.5 2t3.5 4l35 114q6 19 11.5 26t18.5 12q34 14 69 18t48 4q23 0 20.5 -20t-14.5 -59l-32 -101q-2 -7 3 -7q13 -1 19 -1h16q16 0 27.5 0.5t29.5 1.5q5 0 8 -2t2 -5q-2 -8 -12 -26.5t-20.5 -34.5t-14.5 -16q-12 0 -22.5 0.5t-23.5 0.5h-14.5
t-11.5 -1t-11.5 -3.5t-6.5 -10.5l-13 -41q-9 -28 0.5 -40.5t45.5 -23.5q8 -3 11.5 -7t0.5 -14q-2 -7 -7.5 -11t-13.5 -4q-21 0 -48 1t-53 2t-46 1q-30 0 -71.5 -2.5t-74.5 -2.5z" />
    <glyph glyph-name="five" unicode="5" horiz-adv-x="540" 
d="M61 -38q-34 0 -48.5 18.5t-14.5 37.5q0 13 5 22t12 9q17 0 29 -10.5t35 -20.5q11 -4 21 -6.5t29 -2.5q39 0 72 10.5t57 30.5t37.5 48t13.5 63q0 30 -13 54.5t-41.5 47t-75.5 46.5q-25 13 -35.5 18.5t-10.5 17.5q0 5 1 9t2 9q5 14 18.5 40.5t30.5 56t30.5 53t17.5 30.5
q14 26 31.5 37t35.5 15q19 4 53 9.5t71.5 11.5t66.5 10t36 4q17 0 17 -22q0 -9 -7 -28t-19.5 -39.5t-30 -35.5t-38.5 -17q-17 -1 -45.5 -2.5t-59 -2t-54.5 -1.5t-32 -2q-7 -1 -13 -6.5t-10 -12t-5 -10.5q-2 -9 6 -12q58 -20 108.5 -49.5t81.5 -68t31 -85.5q0 -60 -32 -110
t-87.5 -87t-127 -57t-149.5 -20z" />
    <glyph glyph-name="six" unicode="6" horiz-adv-x="540" 
d="M237 -14q-98 0 -141.5 53.5t-43.5 135.5q0 66 32 132.5t86 126.5t122.5 108t142.5 79.5t144 39.5q20 2 36.5 0.5t16.5 -10.5q0 -10 -5 -15.5t-27 -10.5q-51 -12 -107 -47.5t-109 -85.5t-96 -109t-68.5 -119t-25.5 -114q0 -59 16 -90t57 -31q31 0 55 19t38.5 55.5
t13.5 90.5q-1 38 -21.5 58t-43.5 20q-10 0 -17.5 -2t-15.5 -5q-24 -10 -24.5 0.5t15.5 27.5q17 19 38.5 32.5t44 21t41.5 7.5q53 0 86.5 -33t33.5 -91q0 -34 -17.5 -76t-52.5 -80.5t-86 -63t-118 -24.5z" />
    <glyph glyph-name="seven" unicode="7" horiz-adv-x="540" 
d="M92 -29q-13 0 -23.5 9t-10.5 24q0 9 15.5 24.5t27.5 28.5l360 415q8 9 4.5 11.5t-10.5 2.5h-202q-26 0 -42.5 -8t-38.5 -28q-8 -8 -23.5 -21.5t-32.5 -13.5q-16 0 -13 13.5t13 29.5q17 36 39 76t31 70q4 12 14 15.5t16 2.5q13 -1 39 -2.5t58 -3.5q27 0 62.5 -0.5t69 -1
t52.5 -0.5q34 0 60.5 0.5t47 1t36.5 1.5q5 0 10 -7.5t3 -15.5q-1 -6 -17 -22t-40 -43l-472 -525q-9 -10 -19.5 -21.5t-13.5 -11.5z" />
    <glyph glyph-name="eight" unicode="8" horiz-adv-x="540" 
d="M203 -13q-57 0 -95.5 19.5t-58.5 50.5t-22 66q0 52 26 84t68 54t89 42q11 5 9 8t-7 10q-19 24 -36 46t-27 43t-10 41q0 35 20.5 66.5t55 57t78.5 40t92 14.5q51 0 85.5 -16.5t52.5 -42t18 -52.5q1 -23 -13 -50t-38.5 -51t-57.5 -40q-11 -5 -23.5 -11.5t-23.5 -12.5
q-12 -7 -11.5 -10t8.5 -11q41 -44 65.5 -80.5t24.5 -80.5q0 -34 -22.5 -67t-61 -59.5t-86.5 -42t-99 -15.5zM219 25q39 0 70 29.5t31 81.5q0 31 -15 64.5t-45 70.5l-6 7.5t-6 2.5q-2 0 -15 -8q-30 -22 -48 -47t-26.5 -53.5t-8.5 -62.5q0 -17 7.5 -37t23 -34t38.5 -14z
M355 374q20 16 35.5 41t24.5 53.5t9 52.5q0 29 -13.5 48.5t-50.5 19.5q-25 0 -43.5 -11.5t-29 -32.5t-10.5 -52t16 -61.5t41 -56.5q5 -5 9.5 -5.5t11.5 4.5z" />
    <glyph glyph-name="nine" unicode="9" horiz-adv-x="542" 
d="M73 -13q-19 -2 -36 -0.5t-17 10.5q0 10 5 15.5t27 10.5q48 12 96.5 35.5t93.5 57t83.5 75.5t67.5 90t45.5 101.5t16.5 109.5q0 41 -20 67.5t-61 26.5q-32 0 -57.5 -21.5t-39.5 -58.5t-13 -82q1 -37 23 -59.5t45 -22.5q11 0 18.5 2t14.5 5q25 10 25 -1q0 -4 -3.5 -10
t-11.5 -14q-20 -20 -41 -34q-14 -9 -28.5 -15.5t-28.5 -10.5t-27 -4q-54 0 -87 29.5t-33 87.5q0 38 24 81.5t65.5 82t95.5 63.5t114 25q46 0 80 -23.5t53.5 -61.5t19.5 -84q0 -45 -19 -95t-53.5 -100.5t-81.5 -97t-103.5 -84.5t-120.5 -63t-131 -33z" />
    <glyph glyph-name="colon" unicode=":" horiz-adv-x="280" 
d="M155 242q-28 0 -48 21t-20 48q0 28 14.5 52t38 39t51.5 15q35 0 53.5 -24.5t18.5 -50.5t-14.5 -49t-39 -37t-54.5 -14zM70 -34q-28 0 -48 21t-20 48q0 28 14.5 52t38 39t51.5 15q35 0 53.5 -24.5t18.5 -50.5t-14.5 -49t-39 -37t-54.5 -14z" />
    <glyph glyph-name="semicolon" unicode=";" horiz-adv-x="280" 
d="M-49 -166q-12 0 -18 5.5t-3 13.5t11 13.5t19 6.5q27 4 51 17.5t39 33.5t15 40q0 14 -9 21t-21 11q-11 4 -19.5 13.5t-8.5 25.5q0 34 24.5 59t59.5 25q37 0 62 -23.5t25 -64.5q0 -33 -18.5 -68t-51 -64t-73 -47t-84.5 -18zM155 242q-28 0 -48 21t-20 48q0 28 14.5 52
t38 39t51.5 15q35 0 53.5 -24.5t18.5 -50.5t-14.5 -49t-39 -37t-54.5 -14z" />
    <glyph glyph-name="less" unicode="&#x3c;" horiz-adv-x="600" 
d="M503 0l-418 188q-16 8 -33 17t-17 15q0 8 11 26.5t29 25.5l423 195q14 7 21.5 0t7.5 -20q0 -15 -10 -28.5t-27 -21.5l-353 -158q-4 -1 -4.5 -4.5t4.5 -5.5l353 -157q17 -7 27 -21t10 -29q0 -16 -8 -21t-16 -1z" />
    <glyph glyph-name="equal" unicode="=" horiz-adv-x="643" 
d="M64 316q-7 0 -11.5 4.5t-4.5 8.5q0 6 2.5 17t9 19.5t16.5 8.5h522q10 0 16.5 -4.5t6.5 -11.5q0 -12 -9.5 -27t-22.5 -15h-525zM64 133q-7 0 -11.5 4.5t-4.5 8.5q0 6 2.5 17t9 19.5t16.5 8.5h522q10 0 16.5 -4.5t6.5 -11.5q0 -12 -9.5 -27t-22.5 -15h-525z" />
    <glyph glyph-name="greater" unicode="&#x3e;" horiz-adv-x="600" 
d="M85 5q-8 -4 -16 1t-8 21q0 15 10.5 29t26.5 21l353 157q5 2 4.5 5.5t-4.5 4.5l-353 158q-16 8 -26.5 21.5t-10.5 28.5q0 9 3.5 16.5t13.5 7.5q2 0 4 -0.5t3 -1.5l417 -192q17 -7 34.5 -17t17.5 -15q0 -7 -11 -25.5t-31 -27.5z" />
    <glyph glyph-name="question" unicode="?" horiz-adv-x="404" 
d="M168 177q-7 0 -21.5 12t-26 31t-11.5 41q0 35 11 65t45.5 56t104.5 47q56 16 86 38.5t30 53.5q0 26 -16.5 42.5t-55.5 16.5q-14 0 -28.5 -8t-27.5 -14q-8 -4 -19.5 -9.5t-22.5 -5.5q-18 0 -30.5 12t-11.5 33q0 35 28.5 54t68.5 19q41 0 77 -23.5t59 -67t23 -103.5
q0 -26 -14.5 -53.5t-39 -49.5t-55.5 -34l-94 -37q-27 -10 -36 -20.5t-9 -27.5q0 -8 1 -15l2 -14q2 -7 4.5 -14t2.5 -13q0 -7 -7.5 -9.5t-16.5 -2.5zM130 -14q-24 0 -41 18t-17 41q0 36 27 63.5t62 27.5q31 0 46.5 -20.5t15.5 -43.5q0 -34 -27.5 -60t-65.5 -26z" />
    <glyph glyph-name="at" unicode="@" horiz-adv-x="800" 
d="M294 -158q-82 0 -146.5 30t-102 85t-37.5 129q0 76 28.5 144.5t78.5 126t116 99t142.5 64.5t155.5 23q55 0 103 -16.5t84 -46.5t56 -71t20 -89q0 -58 -25 -111.5t-67.5 -95.5t-94.5 -66.5t-106 -24.5q-23 0 -35.5 8t-17.5 19t-5 18q0 16 -5 13t-13 -9q-11 -9 -32 -21.5
t-49.5 -22.5t-60.5 -10q-53 0 -84 30t-31 76q0 55 26.5 104.5t72.5 87t103.5 58t118.5 17.5q12 -1 24 -2.5t24 -4.5q11 -2 20.5 -5t14.5 -4q10 -1 19 11.5t19 12.5q3 0 14 -1.5t21.5 -4t9.5 -6.5q-16 -23 -33.5 -54t-25.5 -47l-69 -139q-9 -19 -8.5 -35.5t25.5 -16.5
q47 0 85.5 30t61.5 80t23 108q0 52 -23.5 90t-69 58.5t-110.5 20.5q-78 0 -153 -29.5t-135.5 -81t-96.5 -117.5t-36 -139q0 -61 29 -108.5t80.5 -74.5t120.5 -27q70 0 133 18.5t113 46.5q14 8 25.5 13.5t20.5 5.5q5 0 10 -4.5t5 -12.5q0 -12 -27.5 -33.5t-74.5 -43.5
t-106 -37t-123 -15zM333 75q17 0 35 8.5t32 21.5q10 8 19.5 19t20.5 33l53 107q5 11 8 20.5t3 16.5q1 22 -14.5 33t-50.5 11q-33 0 -62.5 -19t-51.5 -49.5t-35 -65.5t-13 -67t17.5 -50.5t38.5 -18.5z" />
    <glyph glyph-name="A" unicode="A" horiz-adv-x="766" 
d="M-46 -5q-11 0 -17.5 3.5t-4.5 13.5t9.5 15t17.5 7q18 4 43 12t49.5 21t40.5 31q64 73 127.5 145t127.5 144.5t128 144.5q19 21 31.5 42.5t21 36t14.5 14.5q26 0 52 4.5t45 14.5q17 9 32 18.5t25 9.5q11 0 12.5 -20.5t-3.5 -45.5l-98 -494q-6 -31 9.5 -49t53.5 -29
q11 -3 18.5 -6.5t7.5 -14.5q0 -7 -11.5 -11t-19.5 -4q-21 0 -49.5 1t-57.5 2t-52 1q-20 0 -49 -1t-59 -2.5t-52 -1.5q-20 0 -18 15q1 9 9 14.5t18 7.5q23 5 39 12.5t26.5 19.5t14.5 31l30 122q2 8 -1.5 12.5t-11.5 4.5h-161q-8 0 -14.5 -5.5t-11.5 -11.5l-62 -79
q-25 -32 -30.5 -53t7.5 -33.5t41 -19.5q9 -2 17.5 -7.5t7.5 -14.5q-1 -7 -11 -10.5t-21 -3.5q-33 0 -63.5 1.5t-60.5 1.5q-29 0 -66.5 -3t-69.5 -3zM341 284h123q8 0 12 2t5 9l47 219q2 6 2.5 11t-3.5 5q-1 0 -5 -2t-7 -5l-184 -221q-9 -10 -7.5 -14t17.5 -4z" />
    <glyph glyph-name="B" unicode="B" horiz-adv-x="639" 
d="M-32 -5q-16 0 -16 12q0 7 8 14t20 11q36 11 52.5 21.5t26.5 41.5l142 456q11 33 0 46t-40 21q-8 2 -11.5 6.5t-3.5 8.5q0 9 8 15.5t18 6.5q33 0 54 -2t40.5 -4t45.5 -2q24 0 44 2t44 3.5t60 1.5q61 0 103.5 -14.5t65 -43t22.5 -70.5q0 -29 -15 -55.5t-40.5 -48
t-58.5 -36.5t-70 -23q-4 -1 -5.5 -4.5t2.5 -5.5q58 -19 95 -56t37 -99q0 -58 -26.5 -97t-73.5 -62t-107.5 -33t-129.5 -10q-38 0 -72.5 2t-73.5 2q-20 0 -46.5 -1t-52.5 -2.5t-46 -1.5zM272 30q30 5 58 24.5t49.5 48.5t34.5 62t13 65q0 40 -21 69t-60 29q-24 0 -35 -5
t-16 -19l-64 -205q-3 -10 -3.5 -23.5t3.5 -21.5q5 -8 16 -16t25 -8zM352 362q23 0 40.5 6t35.5 14q32 26 55.5 65.5t23.5 91.5q0 33 -20.5 60t-50.5 27q-22 0 -34 -8t-19 -29l-61 -199q-8 -28 30 -28z" />
    <glyph glyph-name="C" unicode="C" horiz-adv-x="673" 
d="M314 -14q-55 0 -102 20.5t-82 56.5t-54 84.5t-19 105.5q0 90 35.5 165t98 130t145 85.5t177.5 30.5q35 0 62 -6.5t47 -13.5q19 -6 30 -9.5t23 -3.5q7 0 13 1t13 5q8 5 15.5 8t14.5 3q10 0 12.5 -6.5t-4.5 -17.5q-13 -17 -28 -48t-27.5 -64.5t-20.5 -59.5q-3 -10 -8 -16.5
t-16 -6.5q-10 0 -14 14.5t-3 37.5q2 22 -4.5 44.5t-18.5 41.5q-16 26 -39 43t-49 17q-53 0 -98 -28.5t-79.5 -76t-59 -106.5t-37 -121.5t-12.5 -118.5q0 -37 8 -65t24 -47t40 -28t56 -9q39 0 76.5 17.5t73.5 50.5t70 77q8 11 13.5 19t12.5 8q8 0 13.5 -8t2.5 -19
q-7 -25 -18 -56.5t-24 -59.5t-24.5 -46.5t-18.5 -18.5q-10 0 -15 3.5t-11 7.5t-14.5 6.5t-24.5 2.5q-12 0 -26 -3.5t-31 -8.5q-18 -4 -41.5 -8.5t-52.5 -4.5z" />
    <glyph glyph-name="D" unicode="D" horiz-adv-x="729" 
d="M303 -7q-40 0 -80.5 3t-72 5.5t-44.5 2.5q-20 0 -47.5 -1.5t-56 -3.5t-50.5 -2q-6 0 -10.5 4t-2.5 11q6 17 26 22q27 6 43.5 12.5t26 18.5t15.5 32l141 454q6 23 4 35t-14 19t-36 13q-8 2 -11.5 7.5t-0.5 14.5q2 7 9.5 11t13.5 4q33 0 75.5 -2.5t72.5 -2.5q20 0 41 1
t47.5 2t61.5 1q94 0 158 -37t97 -98.5t33 -133.5q0 -79 -34.5 -149.5t-95 -125t-140 -86t-169.5 -31.5zM302 31q50 0 97.5 32.5t85.5 86t60.5 119.5t22.5 133q0 79 -17 125.5t-47.5 67t-69.5 20.5q-19 0 -33 -4t-22.5 -13.5t-13.5 -25.5l-135 -453q-10 -33 0.5 -52.5
t31.5 -27.5t40 -8z" />
    <glyph glyph-name="E" unicode="E" horiz-adv-x="572" 
d="M-45 -5q-9 0 -12 5t-2 11q4 15 26 21q36 11 53 21.5t27 41.5l141 456q10 32 1.5 45.5t-40.5 21.5q-11 3 -15 9t-2 12q2 7 12 11.5t32 4.5q14 0 36 -1.5t46 -3t44 -1.5l166 1q43 0 70 3.5t42.5 6.5t21.5 3q8 0 14 -5.5t6 -16.5q0 -13 -6.5 -36.5t-13 -49t-6.5 -46.5
q0 -10 -5.5 -15t-10.5 -5q-4 0 -9 4t-7 13q-7 58 -21 83t-52 25h-68q-25 0 -42 -16.5t-31 -65.5l-44 -153q-4 -13 1 -18.5t17 -5.5h84q26 0 45 17t35 45q5 9 13 13.5t14 4.5q5 0 7.5 -6t-2.5 -17q-9 -22 -17 -42.5t-14 -40.5t-11 -40t-10 -43q-4 -15 -9 -21.5t-10 -6.5
q-7 0 -12.5 7t-4.5 17q2 32 -4.5 50.5t-25.5 18.5h-97q-11 0 -18.5 -6t-10.5 -17l-50 -173q-11 -37 1.5 -57t52.5 -20h72q20 0 41 7t39 19q22 14 41 42.5t38 56.5q5 8 8.5 10t9.5 2t8.5 -5t2.5 -18q0 -11 -8.5 -37.5t-21.5 -56.5t-28 -50q-5 -7 -12.5 -9.5t-15.5 -2.5
q-4 0 -30 0.5t-65.5 1t-85.5 1t-91.5 1t-81.5 0.5q-20 0 -46.5 -1t-52.5 -2.5t-46 -1.5z" />
    <glyph glyph-name="F" unicode="F" horiz-adv-x="541" 
d="M-34 -3q-6 0 -10.5 4t-2.5 11q3 9 9.5 14.5t16.5 7.5q41 8 58 20t27 43l141 454q10 32 2.5 45.5t-36.5 20.5q-15 4 -18.5 10t-1.5 12q2 7 10 11.5t22 4.5q28 0 66.5 -2.5t68.5 -2.5h160q70 0 105 7t51 7q8 0 15 -4.5t4 -16.5q-1 -6 -2.5 -12t-3.5 -12q-5 -20 -16 -50.5
t-17 -70.5q-1 -10 -6 -15t-10 -5t-8.5 4t-3.5 13q-1 26 -5.5 47t-13.5 37q-10 17 -27 26.5t-40 10.5l-50 1q-25 1 -44.5 -12.5t-26.5 -35.5q-3 -10 -11 -36t-17 -57.5t-17 -57.5t-11 -35q-4 -13 4 -22.5t42 -9.5h27q65 0 102 60q6 9 13.5 13.5t13.5 4.5q5 0 7 -6t-2 -17
q-17 -41 -28 -76t-19 -73q-3 -15 -8.5 -21.5t-10.5 -6.5q-7 0 -11.5 7t-4.5 17q0 31 -8 43.5t-27 12.5h-25.5h-35h-25.5q-17 0 -26.5 -8.5t-12.5 -19.5l-54 -183q-6 -21 -2 -34t21 -20t50 -10q8 -1 11.5 -6t0.5 -15q-2 -7 -7.5 -11t-13.5 -4q-21 0 -55 1t-67.5 2t-53.5 1
q-30 0 -74.5 -2.5t-77.5 -2.5z" />
    <glyph glyph-name="G" unicode="G" horiz-adv-x="734" 
d="M328 -14q-75 0 -134 26.5t-95.5 76.5t-44.5 119.5t18 154.5q19 61 59.5 115.5t99 96t132 65.5t157.5 24q35 0 62 -6.5t47 -13.5q19 -6 30 -9.5t23 -3.5q7 0 13 1t13 5q8 5 15.5 8t14.5 3q11 0 13 -7.5t-5 -16.5q-13 -17 -27.5 -46t-26.5 -60.5t-20 -57.5q-3 -10 -8 -16.5
t-16 -6.5q-22 0 -19 44q2 31 -1.5 56.5t-17.5 44.5q-14 20 -40.5 33t-55.5 13q-41 0 -82 -19t-79.5 -58t-72.5 -100t-60 -145q-18 -59 -15.5 -110.5t22 -90t54 -60.5t79.5 -22q36 0 62.5 24.5t36.5 55.5l34 112q3 11 1 20.5t-16 15.5q-13 6 -31.5 10.5t-30.5 7.5
q-8 2 -14.5 8t-3.5 15q2 7 10 11t16 4q22 0 52 -2.5t59 -5t49 -2.5q29 0 61 4.5t80 4.5q16 0 11 -15q-3 -10 -9 -14.5t-16 -6.5q-32 -7 -45.5 -18t-24.5 -31q-8 -15 -17.5 -37t-16 -41t-6.5 -26q0 -11 6 -20t16 -20q-9 -18 -43 -34t-80 -29t-92.5 -20.5t-79.5 -7.5z" />
    <glyph glyph-name="H" unicode="H" horiz-adv-x="786" 
d="M-33 -3q-6 0 -10.5 4t-2.5 11q3 9 9.5 14.5t16.5 7.5q36 8 52.5 20t26.5 43l141 454q10 32 1.5 45t-41.5 22q-8 2 -11.5 7.5t-0.5 14.5q2 7 9.5 11t13.5 4q22 0 47.5 -1t50 -2.5t44.5 -1.5t48.5 1t58 2t50.5 1q16 0 11 -15q-3 -10 -9 -14t-17 -7q-30 -8 -46.5 -16
t-25 -20t-14.5 -32l-55 -181q-4 -15 11 -15h227q15 0 19 15l55 181q9 30 1 41.5t-45 26.5q-7 3 -11 7t-1 14q2 8 8 11.5t13 3.5q21 0 49.5 -1t56.5 -2t47 -1q20 0 45.5 1.5t52 2.5t48.5 1q6 0 10.5 -4t2.5 -11q-6 -17 -26 -22q-37 -9 -53.5 -22t-26.5 -45l-141 -454
q-10 -31 0 -43t41 -20q8 -2 11.5 -7.5t0.5 -14.5q-2 -7 -9.5 -11t-13.5 -4q-19 0 -44.5 1.5t-51.5 2.5t-46 1q-19 0 -48 -1t-58.5 -2t-50.5 -1q-15 0 -11 15q3 10 9.5 14t16.5 7q42 12 59 24t25 40l58 191q3 8 1.5 12.5t-9.5 4.5h-227q-17 0 -22 -17l-58 -191
q-8 -28 1.5 -39t44.5 -25q8 -3 11.5 -7t0.5 -14q-2 -7 -7.5 -11t-13.5 -4q-21 0 -49.5 1t-56 2t-47.5 1t-47 -1t-53.5 -2.5t-45.5 -1.5z" />
    <glyph glyph-name="I" unicode="I" horiz-adv-x="381" 
d="M-33 -3q-6 0 -10.5 4t-2.5 11q6 17 26 22q41 9 58 20.5t27 42.5l141 454q10 32 1 44.5t-47 22.5q-8 2 -11.5 7.5t-0.5 14.5q2 7 9.5 11t13.5 4q22 0 49 -1t53 -2.5t46 -1.5t48.5 1t58 2t50.5 1q16 0 11 -15q-3 -10 -9 -14t-17 -7q-30 -8 -46.5 -16t-25 -20t-14.5 -32
l-126 -408q-12 -40 -15 -60t6.5 -28.5t31.5 -14.5q23 -6 29.5 -11t3.5 -15q-2 -7 -7.5 -11t-13.5 -4q-21 0 -52.5 1t-62 2t-50.5 1q-30 0 -74.5 -2.5t-77.5 -2.5z" />
    <glyph glyph-name="J" unicode="J" horiz-adv-x="397" 
d="M-64 -200q-77 0 -107.5 15.5t-31.5 42.5q0 31 11.5 52t29.5 21q14 0 30.5 -14t34.5 -31q19 -17 37 -32t33 -15q16 0 29.5 20t28.5 61t34 105l163 526q10 32 1 45t-46 22q-8 2 -11.5 7.5t-0.5 14.5q2 7 9 11t13 4q22 0 49 -1t53.5 -2.5t46.5 -1.5t48.5 1t57.5 2t50 1
q16 0 11 -15q-3 -10 -9 -14t-16 -7q-30 -8 -46.5 -16t-25 -20t-14.5 -32l-154 -498q-6 -21 -18 -44t-28.5 -46t-37 -45t-43.5 -41q-40 -34 -86.5 -55t-94.5 -21z" />
    <glyph glyph-name="K" unicode="K" horiz-adv-x="776" 
d="M-24 -6q-9 0 -17 5.5t-6 12.5q6 17 32 22q41 8 55.5 20t24.5 43l140 454q10 32 1 45t-46 22q-7 2 -10 5.5t-3 9.5q0 9 9.5 15.5t23.5 6.5q17 0 42 -1t51 -2.5t46 -1.5t48.5 1t57.5 2t50 1q14 0 14 -11q0 -12 -9 -17t-19 -8q-30 -8 -46.5 -16t-25 -20t-14.5 -32l-55 -178
q-3 -10 1 -13t14 -3q20 0 43 12t48 37l147 143q11 11 18 19t9 15q4 11 -10.5 19.5t-29.5 11.5q-13 2 -17.5 6.5t-4.5 13.5t7 13.5t17 4.5h80q52 0 99 1.5t108 1.5q22 0 22 -15q0 -9 -13.5 -14.5t-22.5 -6.5q-55 -4 -92 -19.5t-69 -41.5t-67 -55t-69.5 -59.5t-65.5 -61.5
q-10 -10 -12 -17t2 -15q47 -102 84.5 -160.5t65.5 -90.5q20 -23 41 -36.5t44 -22.5q10 -4 22.5 -9.5t12.5 -15.5q0 -8 -9 -13.5t-29 -5.5q-30 0 -56 1.5t-49.5 3t-48.5 1.5q-24 0 -46.5 -0.5t-44 -1.5t-44.5 -1q-7 0 -15 4.5t-8 11.5q0 11 9.5 16.5t22.5 7.5q17 3 20 14
t-1 24.5t-8 24.5l-82 181q-10 21 -18 30t-13 9q-6 0 -8.5 -2.5t-4.5 -7.5l-62 -213q-8 -28 -3 -40.5t40 -23.5q8 -3 14 -6.5t6 -11.5q0 -10 -12 -15t-23 -5q-32 0 -56 2t-44 4t-40 2q-30 0 -60.5 -5t-82.5 -5z" />
    <glyph glyph-name="L" unicode="L" horiz-adv-x="578" 
d="M-27 -5q-9 0 -12 5t-2 11q4 15 26 21q36 11 53 21.5t27 41.5l141 456q10 32 1 44.5t-46 22.5q-8 2 -11 7.5t-1 14.5q2 7 9 11t13 4q22 0 49 -1t53.5 -2.5t46.5 -1.5t48.5 1t57.5 2t50 1q16 0 11 -15q-3 -10 -9 -14t-16 -7q-30 -8 -46.5 -16t-25 -20t-14.5 -32l-122 -396
q-21 -69 -11.5 -91.5t37.5 -22.5h26q40 0 73.5 9.5t58.5 25.5q29 20 50 47.5t37 61.5q4 8 10 14t12 6q5 0 8.5 -6.5t3.5 -13.5q0 -16 -6.5 -39.5t-16.5 -48.5t-20.5 -47t-19.5 -35q-4 -7 -9 -13t-14 -6q-14 0 -53.5 1t-92.5 1.5t-108.5 1.5t-100.5 1q-30 0 -73 -2.5
t-72 -2.5z" />
    <glyph glyph-name="M" unicode="M" horiz-adv-x="987" 
d="M352 -14q-6 0 -11 6t-5 17q0 114 -6.5 221.5t-14.5 217.5q-1 10 -8 7t-12 -14q-34 -68 -64.5 -136t-54.5 -137q-14 -41 -16.5 -69t7 -43.5t30.5 -21.5q8 -2 16 -6.5t5 -14.5q-2 -7 -11.5 -11t-17.5 -4q-27 0 -42 1t-27 1.5t-33 0.5q-23 0 -50 -1t-46 -2l-19 -1
q-24 0 -19 15q3 9 13 11.5t20 6.5q24 9 43.5 20t39.5 36t44 75l163 333q20 41 22 65t-18.5 39t-68.5 26q-12 3 -18.5 6t-6.5 13q0 11 12 13t23 2q21 0 58 -1t76 -2.5t64 -1.5q28 0 35.5 -16t6 -40t-0.5 -49l15 -319q1 -9 5.5 -12t13.5 6q53 53 104 116.5t95 125.5t75 108
q14 21 25 36.5t18 27.5q9 13 21 13h50q30 0 57 2t50.5 4t41.5 2q11 0 17 -2.5t6 -11.5t-14 -16.5t-41 -14.5q-23 -6 -39 -18t-26.5 -30t-17.5 -43q-27 -103 -51.5 -210t-46.5 -214q-5 -25 10 -40.5t42 -23.5q8 -3 13.5 -7t2.5 -14q-2 -7 -9 -11t-15 -4q-21 0 -51.5 1t-60 2
t-49.5 1t-47 -1t-54.5 -2.5t-49.5 -1.5q-8 0 -13.5 4t-3.5 11q3 9 11 14.5t18 7.5q41 10 59 21.5t27 41.5q17 56 31 110.5t27.5 109t26.5 109.5q2 6 -1 5.5t-9 -7.5l-249 -287l-96 -132q-4 -6 -12 -12.5t-14 -6.5z" />
    <glyph glyph-name="N" unicode="N" horiz-adv-x="783" 
d="M3 -3q-6 0 -13 4t-5 11q3 9 12 13.5t19 7.5q30 8 50.5 28t33.5 54l151 395q14 37 8.5 60t-28.5 35t-63 15q-13 2 -20 7t-7 15q0 6 11 11t22 5q21 0 55.5 -1t73 -2.5t69.5 -1.5q14 0 22.5 -5.5t13.5 -16.5l191 -432q2 -4 4.5 -8t5.5 -4q7 0 12 14q3 7 7.5 21.5t11 35.5
t14 47.5t15.5 56.5t15.5 62.5t13.5 65.5q14 68 -4.5 94.5t-73.5 36.5q-17 3 -16 15q1 7 10 11t16 4q41 0 71 -3t44 -3q20 0 38.5 2t39.5 3.5t46 1.5q19 0 19 -15q0 -7 -11.5 -11.5t-22.5 -6.5q-24 -5 -41 -14.5t-30.5 -32.5t-27.5 -67q-6 -20 -13.5 -44.5t-16 -52.5
t-17.5 -58.5t-19 -62.5t-19.5 -64.5t-19.5 -64.5q-10 -31 -8.5 -48.5t14.5 -40.5q5 -7 10.5 -17.5t12.5 -17.5q8 -7 13.5 -10t5.5 -8q0 -10 -5.5 -13t-16.5 -3q-29 0 -48 -2t-34.5 -3.5t-35.5 -2.5q-31 -1 -46 14t-27 46q-6 16 -22 54.5t-36.5 88t-42 101t-39.5 95t-29 70
t-11 25.5q-1 2 -3.5 6t-4.5 4q-4 0 -7.5 -7t-5.5 -12q-13 -32 -31 -79.5t-36 -100t-32.5 -101t-22.5 -83.5q-8 -38 4 -53t54 -26q8 -2 15.5 -6.5t4.5 -14.5q-2 -7 -11.5 -11t-17.5 -4q-27 0 -42.5 1t-26.5 1.5t-27 0.5q-23 0 -49 -1t-44.5 -2z" />
    <glyph glyph-name="O" unicode="O" horiz-adv-x="692" 
d="M292 -14q-67 0 -121 32t-86 90t-32 134q0 83 32.5 159t90 135t133 93.5t161.5 34.5q67 0 121.5 -32t86.5 -89.5t32 -134.5q0 -82 -33 -158t-90.5 -135.5t-133 -94t-161.5 -34.5zM291 25q41 0 80 30.5t73 81t60 110.5t40.5 119t14.5 107q0 42 -9.5 77.5t-29.5 57t-51 21.5
q-41 0 -80 -31t-72.5 -82t-59 -111.5t-40 -120.5t-14.5 -108q0 -41 9 -75.5t28.5 -55t50.5 -20.5z" />
    <glyph glyph-name="P" unicode="P" horiz-adv-x="637" 
d="M-27 -3q-6 0 -12 4t-6 11q0 9 10.5 14.5t20.5 7.5q41 9 58 20.5t27 42.5l141 454q10 32 -0.5 45.5t-42.5 21.5q-11 3 -17.5 9t-4.5 12q2 7 12.5 11.5t19.5 4.5q22 0 48.5 -1.5t52.5 -3t46 -0.5q16 1 36.5 2.5t44.5 3t51 1.5q71 0 121 -25t75.5 -67.5t23.5 -97.5
q-2 -51 -25.5 -94.5t-64 -75.5t-95 -50t-118.5 -18q-27 0 -36.5 5.5t-9.5 17.5q0 7 6.5 11t15.5 5q10 2 18 3.5t21 3.5q46 8 76.5 40t46 75t15.5 84q0 61 -13.5 91t-35 39.5t-46.5 9.5q-10 0 -18 -4.5t-17 -22t-22 -58.5l-134 -431q-10 -31 6 -43t56 -21q8 -2 15 -6.5
t7 -14.5q0 -7 -11.5 -11t-22.5 -4q-21 0 -53 1t-63 2t-51 1q-30 0 -74.5 -2.5t-77.5 -2.5z" />
    <glyph glyph-name="Q" unicode="Q" horiz-adv-x="703" 
d="M571 -290q-57 0 -118 27.5t-120 58.5q-52 28 -100 49.5t-88 21.5q-16 0 -30.5 -2.5t-24.5 -6.5q-14 -5 -26 -12.5t-21 -7.5q-8 0 -13 5.5t-5 12.5q0 12 19.5 25t50.5 27.5t65.5 28t65.5 26.5t50 23q105 59 167 136.5t89 167t27 183.5q0 49 -9 81.5t-28.5 49t-51.5 16.5
q-41 0 -80.5 -28.5t-73 -76.5t-59 -106.5t-40 -119t-14.5 -113.5q0 -39 10 -73.5t35.5 -55.5t73.5 -22q12 0 25.5 1t28.5 4l-35 -41q-12 -1 -24.5 -2t-24.5 -1q-67 0 -121 32t-86 90t-32 134q0 83 32.5 159t90 135t133 93.5t161.5 34.5q67 0 121.5 -32t86.5 -89.5t32 -134.5
q0 -78 -33 -147t-90.5 -127t-133.5 -105q-45 -28 -83 -48t-82.5 -37.5t-109.5 -37.5l1 7q27 14 59 21.5t59 7.5q36 0 83 -19.5t96 -43.5q50 -24 94.5 -44.5t73.5 -20.5t51.5 13.5t38.5 35.5q13 18 23 18.5t13.5 -8.5t-1.5 -22q-9 -21 -29 -45.5t-47.5 -46.5t-59 -35.5
t-62.5 -13.5z" />
    <glyph glyph-name="R" unicode="R" horiz-adv-x="773" 
d="M-23 -3q-6 0 -11 4t-3 11q6 17 26 22q41 8 58.5 20t27.5 43l143 458q7 22 4.5 33.5t-13.5 18t-33 11.5q-11 3 -19.5 8t-8.5 13t14.5 12t23.5 4q33 0 54.5 -2t41 -4t45.5 -2q24 0 43 2.5t43 5t61 2.5q69 0 111.5 -20t62.5 -54t20 -75q0 -45 -25 -81.5t-65 -61t-86 -34.5
q-8 -3 -4 -12q13 -32 24.5 -57t22.5 -46.5t21.5 -41.5t21.5 -43q16 -33 42.5 -56.5t61.5 -23.5q13 0 24.5 -5t11.5 -18q0 -18 -31 -23t-116 -5q-56 0 -89.5 13.5t-50.5 36.5t-26 50q-10 31 -17.5 55.5t-15 51t-16.5 61.5q-4 14 -12 23t-22 9q-8 0 -13 -5.5t-8 -14.5
l-56 -182q-10 -31 4 -43t54 -21q8 -2 12 -6.5t1 -14.5q-3 -7 -8 -11t-13 -4q-21 0 -53 1t-63 2t-51 1q-30 0 -74 -2.5t-77 -2.5zM353 328q37 0 66 14t49.5 40t31 62t10.5 80q0 41 -20 69.5t-49 28.5q-12 0 -20.5 -4.5t-17 -23.5t-22.5 -62l-52 -166q-6 -20 1 -29t23 -9z" />
    <glyph glyph-name="S" unicode="S" horiz-adv-x="539" 
d="M227 -14q-38 0 -71 4.5t-61 16.5q-14 6 -24 9.5t-13 3.5q-7 0 -14 -2.5t-12 -5.5q-7 -4 -13.5 -8t-11.5 -4q-6 0 -15 8.5t-9 15.5q0 8 11.5 33t24.5 60.5t18 73.5q6 35 28 35q14 0 17.5 -16.5t3.5 -51.5q0 -31 13 -61t40.5 -49t69.5 -19q59 0 90.5 31t31.5 74
q0 22 -8 40.5t-30 42.5t-65 62q-49 44 -72.5 84.5t-23.5 101.5q0 56 31.5 101t86.5 71.5t126 26.5q38 0 69 -6.5t53 -13.5q20 -6 32 -9.5t25 -3.5q15 0 26 6q8 5 15.5 8t14.5 3q11 0 13 -7.5t-5 -16.5q-13 -17 -27.5 -46t-26.5 -60.5t-20 -57.5q-3 -10 -8 -16.5t-16 -6.5
q-10 0 -14.5 10.5t-4.5 33.5q0 65 -32.5 104t-85.5 39q-36 0 -59 -15t-34 -38t-11 -47q0 -23 7.5 -41.5t28.5 -40t62 -55.5q62 -51 83 -94t21 -94t-30.5 -100t-87.5 -81t-137 -32z" />
    <glyph glyph-name="T" unicode="T" horiz-adv-x="688" 
d="M127 -3q-6 0 -12 4t-4 11q3 9 11 14.5t18 7.5q41 9 60.5 20.5t29.5 42.5l133 425q18 59 17.5 75t-18.5 16h-39q-33 0 -67.5 -19t-60.5 -45q-7 -7 -20.5 -20t-28 -23t-25.5 -10q-9 0 -10 5.5t0 12.5q2 6 6 13.5t9 13.5q33 38 49 67t30 66q5 14 12.5 20t17.5 6
q11 0 23.5 -9.5t22.5 -16.5q10 -6 19.5 -11.5t27.5 -9t52 -3.5l259 1q44 0 68.5 3t36 7t16.5 6q22 8 36.5 20t27.5 12q14 0 8 -16q-1 -4 -3 -9t-5 -10q-21 -35 -36 -67t-27 -68q-6 -18 -12 -27.5t-16 -9.5t-13.5 9t-4.5 30q-1 40 -17 61t-59 21h-39q-16 0 -27 -7
t-19.5 -26.5t-20.5 -55.5l-133 -426q-9 -28 3 -40.5t48 -23.5q8 -3 13 -7t2 -14q-2 -7 -8.5 -11t-14.5 -4q-21 0 -51 1t-59 2t-49 1t-48.5 -1t-57.5 -2.5t-51 -1.5z" />
    <glyph glyph-name="U" unicode="U" horiz-adv-x="715" 
d="M318 -14q-68 0 -117 20t-77.5 56.5t-34.5 86t12 107.5l87 280q8 26 3 50.5t-30 31.5q-24 7 -20 22q2 7 11 11t20 4q33 0 69 -2.5t66 -2.5q29 0 73 2t75 2q27 0 22 -15q-4 -12 -22.5 -17.5t-36.5 -13.5q-18 -7 -34 -25.5t-27 -52.5l-95 -293q-16 -49 -4.5 -87.5t41.5 -60
t69 -21.5q51 0 94.5 26.5t76 70t49.5 95.5q16 45 27.5 82t19.5 63.5t11 39.5q14 59 15 92.5t-7 50.5t-22 26q-10 6 -24.5 10.5t-11.5 14.5q2 8 11 11.5t23 3.5q26 0 41.5 -1t28.5 -1.5t31 -0.5q19 0 31 1t24.5 2t33.5 1q11 0 17 -3t3 -12q-4 -14 -33 -22q-25 -6 -41 -16.5
t-26 -26.5t-19 -41q-25 -73 -45 -139.5t-43 -137.5q-25 -81 -66 -142t-102 -95t-147 -34z" />
    <glyph glyph-name="V" unicode="V" horiz-adv-x="735" 
d="M182 -18q-37 0 -42 39t8 101q23 113 40 218.5t29 213.5q3 27 -6.5 40.5t-30.5 20.5q-16 6 -26.5 9.5t-10.5 13.5q0 8 9 12t25 4q32 0 74 -2t71 -2q20 0 49 1.5t58.5 2.5t51.5 1q8 0 16 -4t6 -11q-3 -9 -14 -14.5t-21 -7.5q-36 -8 -50.5 -19.5t-20.5 -43.5l-71 -379
q-1 -4 -0.5 -5.5t2.5 -1.5t3 2t5 6l242 287q44 52 56.5 83t3 47t-33.5 24q-9 3 -17.5 8t-5.5 14q2 7 13 10.5t21 3.5q33 0 54.5 -1.5t51.5 -1.5q29 0 54 3t56 3q11 0 21 -4t10 -12q0 -10 -14 -14t-24 -7q-32 -8 -61 -29.5t-55 -50.5l-359 -404q-18 -21 -42.5 -47
t-49.5 -50.5t-45 -40.5t-30 -16z" />
    <glyph glyph-name="W" unicode="W" horiz-adv-x="1121" 
d="M194 -18q-19 0 -28.5 20.5t-11 53t3.5 66.5q8 57 16 111t15.5 107.5t14.5 106.5t13 107q2 18 -1.5 29.5t-12.5 19t-23 12.5q-16 6 -26.5 9.5t-10.5 13.5q0 8 9 12t25 4q32 0 68.5 -2t65.5 -2q20 0 51.5 1.5t63.5 2.5t54 1q8 0 16 -4t6 -11q-3 -9 -14 -14.5t-21 -7.5
q-24 -5 -38.5 -12t-21.5 -18.5t-11 -32.5q-14 -85 -32 -174.5t-32 -174.5q-1 -10 3 -11.5t11 7.5l228 276q17 21 31 42.5t14 43.5t-8 33t-29 18q-16 6 -26.5 9.5t-10.5 13.5q0 8 9 12t25 4q21 0 45 -1t47.5 -2t42.5 -1q20 0 51.5 1.5t63.5 2.5t54 1q25 0 25 -15
q0 -9 -11 -14.5t-22 -7.5q-36 -7 -53 -19t-23 -44l-64 -351q-2 -10 2.5 -9t11.5 10l203 261q41 52 51.5 83t2.5 47t-25 22q-9 3 -17.5 8t-5.5 14q2 7 13 10.5t21 3.5q22 0 40.5 -1t36.5 -1.5t38 -0.5q29 0 54 3t56 3q11 0 21 -4t10 -12q0 -10 -14 -14.5t-24 -6.5
q-32 -7 -64.5 -29t-58.5 -51l-347 -399q-35 -40 -64 -75.5t-50.5 -57.5t-36.5 -22q-17 0 -27 7.5t-14.5 22.5t-3.5 38.5t7 56.5q9 52 21 114t23.5 123t18.5 109l-263 -318q-18 -21 -37.5 -48t-40 -52t-40.5 -41t-39 -16z" />
    <glyph glyph-name="X" unicode="X" horiz-adv-x="730" 
d="M-2 -7q-11 0 -22 3.5t-11 13.5t10 13.5t19 6.5q14 5 30.5 13.5t39 28.5t53.5 57l158 186q14 17 18 30.5t-4 36.5l-53 172q-6 21 -17.5 34.5t-26 21t-32.5 8.5q-10 1 -16 6t-6 15q0 8 6 11.5t13 3.5q50 0 88.5 -3t81.5 -3q35 0 68.5 3.5t70.5 3.5q8 0 17.5 -4t9.5 -11
q0 -9 -9.5 -14.5t-18.5 -7.5q-28 -7 -42.5 -23.5t-5.5 -46.5l46 -154q4 -13 13 -13t16 10l84 110q30 39 39.5 63.5t2.5 37.5t-28 16q-10 2 -20 7.5t-10 14.5q0 7 9.5 10.5t19.5 3.5q23 0 43.5 -2t43.5 -2q29 0 49.5 3.5t51.5 3.5q11 0 22 -3.5t11 -13.5t-10 -13.5t-19 -6.5
q-14 -4 -30.5 -12t-31.5 -18t-26 -22l-184 -210q-13 -16 -17 -30t3 -37l66 -199q5 -15 16 -26.5t24.5 -19t24.5 -10.5q9 -2 22.5 -9t13.5 -17q0 -7 -7 -11t-18 -4q-42 0 -72 1.5t-56.5 3t-60.5 1.5q-30 0 -60 -1.5t-62 -1.5q-8 0 -17.5 4t-9.5 11q0 9 9.5 14.5t18.5 7.5
q32 8 46 20.5t6 38.5l-54 189q-4 13 -12.5 13t-16.5 -10l-106 -146q-28 -38 -31 -60t11 -32.5t36 -15.5q10 -2 20 -7.5t10 -14.5q0 -7 -9 -10.5t-20 -3.5q-33 0 -51.5 2t-48.5 2q-29 0 -53 -3.5t-56 -3.5z" />
    <glyph glyph-name="Y" unicode="Y" horiz-adv-x="669" 
d="M119 -6q-13 0 -18.5 5t-3.5 12q2 9 13 14.5t22 7.5q41 8 61 27t29 50l42 136q10 30 9.5 54t-8.5 53l-61 201q-7 20 -17 36t-29 23t-26 11.5t-4 14.5q2 8 9.5 11.5t14.5 3.5q47 0 83 -3t81 -3q29 0 61 3.5t69 3.5q8 0 16 -4t6 -11q-2 -9 -13.5 -14.5t-20.5 -7.5
q-49 -11 -62.5 -27.5t-6.5 -47.5l42 -187q4 -15 7 -19t7 -4t9 4t12 13q34 41 71.5 89.5t73.5 92.5q27 32 25.5 55.5t-44.5 30.5q-10 2 -18.5 7.5t-5.5 14.5q2 7 13 10.5t21 3.5q23 0 46.5 -2.5t51.5 -2.5q31 0 56.5 4t55.5 4q11 0 19 -3.5t5 -13.5t-12.5 -13.5t-19.5 -6.5
q-21 -5 -42 -14t-38.5 -21t-29.5 -26q-30 -35 -59 -68l-58 -66t-60 -67q-18 -19 -31.5 -43.5t-23.5 -55.5l-45 -148q-12 -38 -3 -52.5t44 -25.5q11 -3 18.5 -7t4.5 -14q-2 -7 -11 -12t-20 -5q-21 0 -49.5 2t-56.5 4t-48 2t-47.5 -2t-55.5 -4.5t-50 -2.5z" />
    <glyph glyph-name="Z" unicode="Z" horiz-adv-x="642" 
d="M503 -4q-4 0 -28 0.5t-64 1.5t-89.5 2t-104.5 1q-60 0 -104 -1t-78 -3t-65 -4q-10 -1 -9.5 13.5t4.5 18.5q14 17 27.5 33t27 32.5t27.5 31.5q50 56 100.5 115t101.5 119t102.5 120t103.5 118q6 7 6.5 14t-13.5 7q-9 0 -25 -0.5t-33.5 -1.5t-33 -2t-23.5 -2
q-41 -6 -78 -24.5t-72 -61.5q-10 -13 -20 -24t-26 -11q-9 0 -10 5.5t0 12.5q2 6 4 13t6 14q18 32 28 57.5t20 50.5q7 16 13.5 22.5t18.5 6.5q32 0 72 -10t90 -10h51.5h51.5q28 0 67 1.5t76 2.5t59 1q8 0 11 -10.5t-1 -14.5l-100 -114q-44 -50 -92.5 -106.5t-98 -115
t-98.5 -116t-95 -109.5q-23 -26 6 -26q17 0 54.5 0.5t70.5 1.5q31 1 56.5 4t47 9.5t40.5 16.5q28 15 51.5 36t46.5 52q6 8 11 10t11 2t9.5 -4t1.5 -11q-4 -13 -13 -30.5t-20 -37t-22.5 -39t-22.5 -37.5q-6 -10 -15 -15t-20 -5z" />
    <glyph glyph-name="bracketleft" unicode="[" horiz-adv-x="377" 
d="M9 -201q-17 0 -25.5 2.5t-8 14t9.5 39.5l244 790q9 28 16 39.5t17 14t27 2.5l189 -1q8 0 13 -4.5t1 -16.5q-4 -13 -16.5 -18.5t-20.5 -6.5l-34 -2t-34 -3q-26 -2 -44 -22t-25 -40q-17 -56 -34.5 -112.5t-35 -112.5t-34.5 -112t-34.5 -112t-35 -112.5t-34.5 -112.5
q-7 -20 -1 -39.5t31 -21.5l22 -2t21.5 -2t21.5 -2q8 -1 16.5 -6.5t4.5 -18.5q-4 -12 -11 -16.5t-15 -4.5z" />
    <glyph glyph-name="backslash" unicode="\" horiz-adv-x="395" 
d="M274 -63q-14 0 -26.5 4t-14.5 17l-88 688q-1 7 7.5 14.5t21.5 7.5q17 0 27.5 -4.5t12.5 -18.5l87 -688q1 -7 -7.5 -13.5t-19.5 -6.5z" />
    <glyph glyph-name="bracketright" unicode="]" horiz-adv-x="378" 
d="M393 703q17 0 25.5 -2.5t8 -14t-9.5 -39.5l-244 -790q-9 -28 -16 -39.5t-17 -14t-27 -2.5l-189 1q-8 0 -13 4.5t-1 16.5q4 13 16.5 18.5t20.5 6.5l34 2t34 3q26 2 44 22t25 40q17 56 34.5 112.5t35 112.5t34.5 112t34.5 112t35 112.5t34.5 112.5q7 20 1 39.5t-31 21.5
l-22 2t-21.5 2t-21.5 2q-8 1 -16.5 6.5t-4.5 18.5q4 12 11 16.5t15 4.5z" />
    <glyph glyph-name="asciicircum" unicode="^" horiz-adv-x="518" 
d="M69 242q-9 0 -16.5 3.5t-7.5 13.5q0 3 2 7l221 343h8l224 -343q5 -8 -0.5 -16t-21.5 -8q-15 0 -27.5 11t-22.5 26l-151 221q-4 5 -6 4.5t-4 -4.5l-148 -221q-10 -15 -22.5 -26t-27.5 -11z" />
    <glyph glyph-name="underscore" unicode="_" horiz-adv-x="609" 
d="M475 -127q11 0 16 -5.5t5 -12.5q0 -13 -13.5 -28t-27.5 -15h-561q-7 0 -10 5t-3 9q0 6 5.5 17.5t14.5 20.5t19 9h555z" />
    <glyph glyph-name="grave" unicode="`" horiz-adv-x="245" 
d="M307 469q13 0 14 11.5t-4 22.5l-73 162q-9 20 -18 28.5t-21 8.5q-11 0 -26 -9t-26 -21t-11 -22t6 -20t17 -21l111 -123q7 -7 15 -12t16 -5z" />
    <glyph glyph-name="a" unicode="a" horiz-adv-x="552" 
d="M36 -14q-14 0 -29 8t-25 20.5t-10 23.5q0 29 16.5 63.5t57.5 87t114 136.5q41 47 80 77t58 30q29 0 66 -29q5 -5 6.5 -6t2.5 -1q2 0 2.5 0.5t3.5 6.5q6 12 9 18.5t6 13.5q5 12 27 12q17 0 36 -8t32.5 -19t13.5 -21q0 -6 -1 -7l-97 -266q-8 -24 10 -24q10 0 33.5 17
t48.5 42l3 3h1q5 0 9 -5t4 -12q0 -16 -20 -41.5t-53 -52.5q-38 -31 -74.5 -49t-59.5 -18q-16 0 -33 9t-28 22.5t-11 26.5q0 6 5 23q3 9 7 19l8 20t8.5 20t8.5 20q2 4 -2 6t-6 0q-49 -57 -90.5 -94t-75 -54.5t-62.5 -17.5zM152 101q16 0 51.5 30.5t70.5 74.5q31 38 49 67.5
t18 41.5q0 9 -22 27q-10 8 -21 13.5t-18 5.5q-15 0 -41 -18t-49 -41q-18 -18 -33.5 -46.5t-25 -60t-9.5 -58.5q0 -17 8 -26.5t22 -9.5z" />
    <glyph glyph-name="b" unicode="b" horiz-adv-x="543" 
d="M190 -14q-61 0 -94 29.5t-33 83.5q0 19 4 40.5t13 48.5l106 343q8 27 10.5 38.5t2.5 22.5t-8 18t-28 14q-20 8 -20 16q0 7 6 11.5t23 10.5q21 7 48 15t54 14.5t46.5 11t25.5 4.5q28 0 28 -14q0 -13 -2.5 -22.5t-7.5 -20.5q-11 -24 -21.5 -48.5t-22 -54.5t-24.5 -69
t-30 -91t-39 -123q-2 -7 0 -8t6 6q58 83 117 129t106 46q38 0 64 -25.5t26 -60.5q0 -50 -21 -101.5t-57 -99t-82 -84.5t-96.5 -58.5t-99.5 -21.5zM221 26q12 0 29.5 12.5t36 33t32.5 43.5q22 35 41.5 75.5t32 76.5t12.5 55q0 13 -7 20.5t-19 7.5q-19 0 -51.5 -25.5
t-70.5 -77.5q-36 -50 -56.5 -93t-20.5 -66q0 -19 12 -40.5t29 -21.5z" />
    <glyph glyph-name="c" unicode="c" horiz-adv-x="378" 
d="M154 -14q-41 0 -74 19.5t-52.5 52t-18.5 71.5q1 51 15.5 97.5t40 85t59 66.5t74 43.5t84.5 15.5q41 0 67 -18.5t26 -47.5q0 -20 -14 -39t-29 -19q-8 0 -14 6t-18 26q-10 19 -23.5 32.5t-25.5 13.5q-21 0 -40 -17t-34.5 -45.5t-24.5 -64t-10 -73.5t19.5 -60.5t55.5 -22.5
q26 0 50.5 12.5t40.5 34.5q4 5 9.5 8.5t9.5 3.5q10 0 10 -11q0 -28 -16.5 -58t-44 -55.5t-59.5 -41t-63 -15.5z" />
    <glyph glyph-name="d" unicode="d" horiz-adv-x="573" 
d="M79 -14q-36 0 -59.5 25t-23.5 62q0 36 14 78.5t40 88t62 88.5q44 53 86.5 81t80.5 28q27 0 50 -13.5t41 -24.5q4 -2 7.5 -3.5t7.5 -1.5t7 9l43 134q9 28 12.5 40t4.5 14.5t0 3t-1 4.5q0 10 -10.5 19t-32.5 17q-11 5 -15.5 8.5t-4.5 7.5q0 7 6 11.5t23 10.5q12 4 37.5 10
t55 11.5t53.5 9t33 3.5q28 0 28 -14q0 -9 -2 -17.5t-8 -25.5l-186 -532q-1 -4 -1.5 -7t-0.5 -5q0 -7 5 -7q6 0 21 9t32.5 23.5t32.5 29.5l3 3h1q14 0 14 -16t-15 -37t-38.5 -42.5t-51.5 -40.5t-54.5 -30.5t-46.5 -11.5q-16 0 -33 9t-28 22.5t-11 26.5q0 6 5 23
q5 11 12.5 26.5t15 29.5t12 21t1.5 -1q3 7 -1 8.5t-9 -5.5q-68 -82 -120.5 -121t-93.5 -39zM175 95q19 0 43 16t47.5 42.5t44 57.5t32.5 62.5t12 56.5q0 26 -10.5 39.5t-30.5 13.5q-17 0 -39.5 -18t-45 -47t-41.5 -63t-30.5 -68t-11.5 -60q0 -15 8 -23.5t22 -8.5z" />
    <glyph glyph-name="e" unicode="e" horiz-adv-x="389" 
d="M142 -15q-28 0 -60 16.5t-54.5 45t-22.5 64.5q0 65 23.5 123.5t62.5 104t87.5 72t97.5 26.5q63 0 90.5 -23.5t27.5 -54.5q0 -35 -23 -59.5t-59 -42t-77.5 -28.5t-77.5 -19q-4 -1 -6 -3t-3 -6t-1.5 -8.5t-1.5 -9.5q-1 -35 19.5 -62.5t61.5 -27.5q26 0 49 13.5t47 38.5
q11 12 17 12q9 0 9 -11q0 -3 -0.5 -7.5t-2.5 -7.5q-19 -37 -47.5 -70.5t-67 -54.5t-88.5 -21zM164 248q23 7 44.5 15.5t38.5 22t28 33t13 47.5q1 11 -6 22t-22 11q-17 0 -33 -11.5t-30.5 -31t-24.5 -46t-15 -56.5q-1 -8 7 -6z" />
    <glyph glyph-name="f" unicode="f" horiz-adv-x="396" 
d="M-58 -291q-78 0 -111 26.5t-33 55.5q0 27 17 43.5t37 16.5q10 0 22 -16t22 -31q11 -16 22.5 -31t30.5 -15q14 0 25 13t20.5 35.5t17.5 50.5l136 490q4 18 -14 18l-59 -1q-11 0 -15 4.5t-4 14.5q0 8 9.5 21.5t27.5 14.5l61 3q7 0 11 13l8 24q30 90 75.5 144t97.5 78.5
t99 24.5q46 0 78 -21.5t32 -54.5q0 -26 -12.5 -50t-34.5 -24q-19 0 -27 17.5t-16 38.5q-7 20 -17.5 36.5t-30.5 16.5q-16 0 -31.5 -19.5t-28 -49.5t-22.5 -63q-6 -21 -10.5 -40.5t-7.5 -35.5q-1 -5 -1.5 -9.5t-1.5 -9.5q-1 -10 4.5 -13t12.5 -3q26 0 48 1.5t47 1.5
q11 0 11 -15q0 -5 -5 -15t-11 -18t-10 -8l-79 -3q-19 -1 -28 -6.5t-13 -19.5q-29 -106 -60 -217.5t-61 -218.5q-9 -33 -35.5 -67t-62 -63t-70 -47t-60.5 -18z" />
    <glyph glyph-name="g" unicode="g" horiz-adv-x="480" 
d="M123 -290q-63 0 -114 13.5t-81.5 37t-30.5 52.5t25 52t67.5 41t96.5 32q13 4 2 9q-20 10 -37.5 29.5t-17.5 40.5q0 24 25.5 41.5t61.5 36.5q7 4 10.5 7.5t3.5 5.5q0 4 -10 9q-17 8 -36.5 23.5t-32.5 38t-13 49.5q0 31 14.5 67t43 68.5t72.5 53t102 20.5q18 0 37 -5.5
t35 -12.5q17 -7 31.5 -13t22.5 -6q19 0 35 4t30.5 8t27.5 4q7 0 17 -5.5t10 -22.5t-8 -30t-21 -13q-9 0 -19.5 1.5t-22.5 3t-24 1.5q-4 0 -8 -1.5t-2 -9.5q2 -6 2 -12v-13q0 -40 -16 -79t-45 -70t-69 -49.5t-88 -18.5q-10 0 -20.5 1.5t-15.5 -0.5q-10 -5 -10 -14
q0 -10 11 -21.5t27 -22.5q20 -13 45 -28.5t51.5 -31.5t50.5 -32q25 -16 39 -36t14 -41q0 -30 -23 -59t-61.5 -52t-86 -37t-97.5 -14zM168 -253q24 0 47.5 8.5t39.5 23t16 33.5q0 10 -7.5 21.5t-18.5 18.5q-23 16 -54.5 34.5t-50.5 27.5q-6 3 -13 3q-5 0 -9 -1t-9 -3
q-46 -13 -68 -31.5t-22 -53.5q0 -21 14.5 -39.5t47.5 -30t87 -11.5zM178 141q17 -2 36 13.5t36.5 42t31.5 57.5t22.5 60.5t8.5 49.5t-7 30t-18 10q-15 0 -32.5 -16.5t-34.5 -43t-31 -57t-22.5 -58t-8.5 -46.5q0 -22 5.5 -31.5t13.5 -10.5z" />
    <glyph glyph-name="h" unicode="h" horiz-adv-x="579" 
d="M108 -14q-9 0 -23.5 6.5t-26.5 18.5t-12 28q0 17 3.5 34t10.5 38l133 424q5 15 7.5 28.5t2.5 26.5q0 14 -12.5 21.5t-26.5 12.5q-7 3 -13.5 6.5t-6.5 9.5t5 10.5t24 11.5q12 4 37.5 11.5t54 15t51.5 13t32 5.5q8 0 18 -1.5t10 -12.5q0 -13 -3 -22.5t-7 -20.5l-140 -415
q-2 -7 2.5 -7.5t8.5 5.5q35 56 76 102.5t84 74t84 27.5q43 0 64.5 -26.5t21.5 -64.5q0 -53 -12.5 -99.5t-34 -87.5t-48.5 -76q-7 -9 -28 -25t-47.5 -32.5t-50 -28t-34.5 -11.5q-14 0 -29 8.5t-25.5 20t-10.5 19.5q0 5 5.5 17.5t14 23.5t17.5 11q11 0 16.5 -5.5l13.5 -13.5
q8 -7 16 -13.5t18 -6.5q9 0 19 20.5t19.5 53t16.5 70t11.5 73t4.5 60.5q0 15 -5.5 24.5t-17.5 9.5t-30 -20.5t-40.5 -55.5t-48 -77.5t-52 -86.5t-52.5 -83q-17 -26 -33.5 -37.5t-31.5 -11.5z" />
    <glyph glyph-name="i" unicode="i" horiz-adv-x="340" 
d="M90 -14q-25 0 -45 19.5t-20 38.5q0 5 1 10.5t4 12.5q26 59 50.5 119t48.5 118q2 5 -4 5q-8 0 -18 -4.5t-20.5 -11t-21.5 -12.5q-15 -8 -21 -3.5t-6 12.5t14.5 23.5t37.5 34t49 36.5t49.5 31.5t37.5 18.5q16 6 33 -1.5t26.5 -21t4.5 -26.5l-110 -274q-1 -3 -1.5 -6.5
t-0.5 -5.5q0 -3 1.5 -5t3.5 -2q7 0 26 11.5t40 27t34 28.5q3 3 4 3q6 0 10 -5t4 -11q0 -18 -22 -45t-55 -53.5t-69 -44t-65 -17.5zM270 502q-24 0 -40 18.5t-16 41.5q0 36 26 64t64 28q26 0 40 -21t14 -44q0 -34 -26 -60.5t-62 -26.5z" />
    <glyph glyph-name="j" unicode="j" horiz-adv-x="323" 
d="M-131 -290q-55 0 -77 17.5t-21 39.5q2 19 12 32.5t22.5 21.5t20.5 8q17 0 28.5 -12t21.5 -24q9 -11 18.5 -19t23.5 -8q25 0 45.5 35.5t38.5 90.5l120 370q9 29 5.5 38t-11.5 9q-13 0 -24.5 -4.5t-25.5 -10.5q-12 -5 -19.5 -3t-7.5 11t6.5 14.5t16.5 13.5q22 17 54 34
t65 31t60 24.5t38 15.5q14 6 29 -6.5t10 -26.5q-5 -16 -19 -46.5t-26 -67.5l-110 -336q-17 -52 -54.5 -96t-83 -77t-87.5 -51t-69 -18zM265 505q-24 0 -40 18.5t-16 41.5q0 36 26 64t64 28q26 0 40 -21t14 -44q0 -34 -26 -60.5t-62 -26.5z" />
    <glyph glyph-name="k" unicode="k" horiz-adv-x="552" 
d="M341 -14q-19 0 -34 12.5t-23 37.5l-43 130q-4 13 -9 18t-10 5q-6 0 -9 -4.5t-8 -17.5q-7 -16 -13.5 -33.5t-13.5 -34.5t-13.5 -34t-13.5 -34q-6 -13 -25 -24.5t-44 -11.5q-17 0 -37 15t-20 43q0 11 2.5 21t5.5 18l142 437q5 15 9.5 30t4.5 31q0 24 -25 34q-7 3 -13.5 6.5
t-6.5 9.5t5 10.5t24 11.5q12 4 36.5 11.5t51.5 15t49 13t31 5.5q8 0 18 -1.5t10 -12.5q0 -13 -3 -22.5t-7 -20.5l-121 -342q-3 -7 2.5 -7.5t9.5 4.5q25 35 56.5 65t69.5 48.5t81 18.5q32 0 50.5 -14t18.5 -42q0 -23 -13.5 -46t-36 -44.5t-51 -39t-59.5 -30.5q-10 -3 -3 -19
l36 -79q4 -7 10 -16t16 -9q14 0 36 16t36 35q5 6 7 9t6 3q5 0 6.5 -4.5t1.5 -8.5q0 -24 -17.5 -52t-45 -53t-58 -41t-56.5 -16zM251 213q25 0 51 12.5t48 31.5t35.5 39t13.5 35q0 14 -9 19t-23 5q-17 0 -38.5 -16.5t-41 -39.5t-32.5 -44t-13 -30q0 -4 2.5 -8t6.5 -4z" />
    <glyph glyph-name="l" unicode="l" horiz-adv-x="319" 
d="M73 -14q-25 0 -42 19.5t-17 38.5q0 8 5 23l165 491q13 38 7.5 52.5t-25.5 17.5q-16 2 -19 6.5t-2 11.5q2 7 5.5 11t15.5 7q28 7 60 13t61 11.5t46 11.5q3 1 8 2.5t10 2.5t7 1q6 0 9.5 -8t1.5 -13q-2 -7 -6 -20t-9 -27l-178 -511q-1 -3 -1.5 -6t-0.5 -5q0 -13 12 -13
q8 0 21.5 9t28.5 22.5t28 26.5l2 2t2 1q8 0 10.5 -7t2.5 -10q0 -15 -14.5 -35.5t-38.5 -42.5t-52 -40.5t-55 -30.5t-48 -12z" />
    <glyph glyph-name="m" unicode="m" horiz-adv-x="840" 
d="M105 -14q-10 0 -26 7t-27.5 21t-11.5 34q1 5 2 10.5t3 10.5l109 256q4 10 1.5 15.5t-12.5 5.5q-9 0 -31.5 -6t-47.5 -30q-4 -5 -12.5 -4.5t-8.5 9.5q0 8 7.5 20.5t18 25.5t18.5 19q27 23 56 40t79 17q25 0 40 -14.5t17.5 -37.5t-8.5 -47l-57 -128q-3 -7 2.5 -8t9.5 6
q36 61 70.5 113t71.5 84t81 32q43 0 61.5 -25.5t16 -63t-22.5 -72.5l-9 -17q-4 -7 3.5 -8t11.5 6q28 45 59 86t67 67.5t80 26.5q43 0 58 -24.5t10.5 -61.5t-21.5 -75l-65 -149q-12 -29 3 -29q5 0 14.5 5t20.5 13t21 16t16 13q6 6 12.5 12t10.5 6q3 0 6.5 -4t3.5 -9
q-1 -11 -5 -21t-12 -19q-46 -54 -105 -89t-119 -35q-9 0 -23.5 6.5t-24 17.5t-3.5 23l140 302q8 15 3.5 24.5t-12.5 9.5q-13 0 -29 -19t-38 -52q-19 -30 -44 -71.5t-53.5 -88.5t-59.5 -96q-10 -15 -27 -28t-33.5 -20.5t-27.5 -7.5q-10 0 -23 8t-22.5 19.5t-9.5 21.5
q0 6 2 16t7 23l111 264q7 15 4.5 23.5t-12.5 8.5q-11 0 -31.5 -21t-49.5 -62q-15 -22 -31.5 -50t-33 -59.5t-34 -64.5t-35.5 -65q-16 -30 -33 -46t-37 -16z" />
    <glyph glyph-name="n" unicode="n" horiz-adv-x="614" 
d="M129 -14q-9 0 -23 7t-27 19.5t-19 29.5t2 36l98 244q8 21 -12 21q-6 0 -20 -1t-30.5 -8t-31.5 -24q-4 -5 -12.5 -4.5t-9.5 9.5q0 8 7 20.5t17.5 25.5t17.5 19q26 23 62 40t86 17q28 0 42.5 -14.5t17.5 -36t-6 -44.5l-50 -123q-3 -7 6.5 -8t13.5 6q34 61 67.5 110.5
t71 79.5t81.5 30q43 0 61 -23.5t18.5 -56.5t-12.5 -62l-72 -168q-12 -29 4 -29q5 0 14.5 5t20.5 13t20.5 16t14.5 13q6 6 12.5 12t10.5 6q3 0 6.5 -4t3.5 -9q0 -22 -15 -40q-30 -36 -68.5 -64t-79 -44t-75.5 -16q-14 0 -28.5 9t-21.5 21.5t-2 25.5q33 75 69.5 147.5
t64.5 148.5q5 14 4 21.5t-12 7.5q-13 0 -28.5 -17.5t-32 -43t-34.5 -51.5q-8 -12 -23 -36.5t-33 -54t-34.5 -58t-28.5 -48.5q-17 -30 -35 -51t-38 -21z" />
    <glyph glyph-name="o" unicode="o" horiz-adv-x="475" 
d="M165 -14q-41 0 -77 18.5t-58 51.5t-22 78q0 46 20 98.5t59 99t95 76t128 29.5q70 0 113.5 -38.5t43.5 -109.5q0 -46 -20 -98.5t-59 -99t-95 -76t-128 -29.5zM185 27q19 0 38.5 22.5t37.5 59.5t32 81.5t22.5 89t8.5 80.5q0 20 -8 29.5t-24 9.5t-35 -22.5t-37.5 -59.5
t-33.5 -81.5t-24.5 -88.5t-9.5 -80q0 -20 9.5 -30t23.5 -10z" />
    <glyph glyph-name="p" unicode="p" horiz-adv-x="548" 
d="M-99 -285q-4 0 -7 3.5t-2 8.5q1 8 6.5 12t13.5 6q33 9 47.5 17.5t22.5 33.5l165 515q3 9 5.5 18t1 14.5t-13.5 2.5q-19 -5 -33 -10t-37 -13q-8 -3 -17 -2t-9 13q0 11 9 18t19 11q16 6 34.5 15.5t55.5 25.5q7 3 13.5 11.5t13.5 30.5q17 48 46 71t62 23q21 0 28.5 -12.5
t-0.5 -41.5l-9 -35q-2 -10 -1.5 -16.5t4.5 -5.5q13 3 26.5 5.5t28.5 2.5q54 0 91.5 -18t57.5 -49t20 -71q0 -54 -23.5 -109.5t-64 -101.5t-93 -74t-109.5 -28q-19 0 -34 7t-23 13q-14 11 -21 9t-12 -21l-52 -188q-6 -19 5.5 -32.5t48.5 -24.5q6 -1 11.5 -5.5t5.5 -15.5
q0 -5 -6 -8.5t-14 -3.5q-17 0 -43.5 1t-51.5 1.5t-41 0.5q-25 0 -61 -2t-64 -2zM249 25q18 0 43.5 20t51 55.5t42.5 82t17 98.5q0 53 -22.5 76.5t-59.5 23.5q-6 0 -12 -0.5t-12 -1.5l-85 -268q-4 -14 -3.5 -28t5.5 -26q6 -14 12 -23t23 -9z" />
    <glyph glyph-name="q" unicode="q" horiz-adv-x="558" 
d="M108 -288q-4 -1 -7 4t-2 10q1 8 6.5 12t13.5 6q33 9 47 17.5t23 33.5q16 43 36 100t41.5 119t43.5 121q3 8 -1.5 8t-9.5 -6q-44 -58 -77 -91t-62.5 -46.5t-62.5 -13.5q-38 0 -64 29t-26 74q0 44 17.5 88t48 86.5t67.5 80.5q44 44 95 72t97 28q15 0 31.5 -7.5t25.5 -20.5
q7 -9 12.5 -13.5t10.5 -3.5q8 0 18 13l8 12q18 26 35.5 35.5t33.5 9.5q17 0 22 -26t-15 -88l-186 -553q-7 -22 3.5 -33.5t29.5 -14.5t26.5 -7.5t7.5 -11.5q0 -5 -6.5 -8.5t-15.5 -3.5q-55 0 -104.5 -1.5t-90.5 -4t-70 -5.5zM177 68q13 0 29.5 12t34 33t36 46.5t36.5 52.5
q27 41 47.5 72.5t20.5 51.5q0 11 -6.5 24t-17 23t-22.5 10q-20 0 -44 -23t-48 -59.5t-44.5 -77.5t-32.5 -77.5t-12 -59.5q0 -12 5 -20t18 -8z" />
    <glyph glyph-name="r" unicode="r" horiz-adv-x="474" 
d="M101 -14q-10 0 -25.5 6t-27.5 17.5t-12 26.5q0 6 1 11.5t3 11.5l103 266q4 10 1 15.5t-13 5.5q-22 0 -34 -9t-28 -22q-5 -4 -13 -4t-9 9q-2 23 18.5 46.5t51.5 40.5q24 14 51.5 22t52.5 8q28 0 41.5 -15.5t14 -42t-14.5 -60.5l-37 -86q-3 -7 2.5 -8t9.5 6q34 61 66 107
t66.5 72.5t73.5 26.5q33 0 51 -19t18 -48q0 -28 -13.5 -54t-32 -42t-34.5 -16q-12 0 -18.5 10.5t-11.5 32.5q-4 18 -10 32.5t-19 14.5q-19 0 -37 -25t-41 -66q-7 -12 -20.5 -36.5t-30 -54t-32.5 -58t-28 -48.5q-17 -30 -40 -52t-43 -22z" />
    <glyph glyph-name="s" unicode="s" horiz-adv-x="326" 
d="M79 -14q-47 0 -75 20.5t-28 54.5q0 26 11.5 45t33.5 19q8 0 18.5 -10.5t23.5 -24.5q15 -15 34 -33t38 -18q14 0 19.5 7.5t6.5 22.5q1 14 -15.5 38.5t-33.5 46.5q-19 26 -33.5 57t-14.5 62q0 26 19 54t48 53.5t58 41t48 15.5q28 0 53.5 -11.5t42.5 -27.5t17 -29
q0 -12 -11 -29t-25.5 -29.5t-27.5 -12.5t-24 10.5t-19 21.5q-10 15 -24.5 25.5t-28.5 10.5q-13 0 -20 -9t-7 -18q0 -8 9 -20.5t22 -27.5t26 -32q33 -41 46.5 -65.5t13.5 -49.5q0 -19 -17 -45.5t-45.5 -52.5t-64.5 -43t-74 -17z" />
    <glyph glyph-name="t" unicode="t" horiz-adv-x="380" 
d="M100 -14q-17 0 -32 11t-24.5 26.5t-9.5 27.5q0 5 1.5 12.5t8.5 25.5l94 249q7 19 2 25t-13 6l-50 2q-18 1 -22 8t-4 13q0 2 7 11t19 17t25 8h51q16 0 21 5t14 22l29 57q9 17 23 32t30 25t29 10q18 0 23.5 -16t0.5 -33l-23 -79q-4 -16 0 -20.5t15 -4.5q12 0 26.5 -1.5
t33.5 -3.5q24 -3 28.5 -8.5t4.5 -13.5q0 -3 -6 -10.5t-23 -9.5q-11 -1 -23.5 -2.5t-30.5 -2.5q-19 -1 -29 -5t-15 -16l-71 -198q-8 -23 -8 -33.5t4.5 -12.5t8.5 -2q12 0 31.5 14t40 32t33.5 31l2 2t2 1q6 0 10 -5t4 -11q0 -15 -15.5 -38t-41.5 -48.5t-57.5 -48t-63.5 -36.5
t-60 -14z" />
    <glyph glyph-name="u" unicode="u" horiz-adv-x="615" 
d="M123 -14q-22 0 -40.5 19t-26 44.5t1.5 46.5l91 203q7 15 5.5 22t-9.5 7q-6 0 -22.5 -9.5t-33 -21.5t-23.5 -19q-15 -15 -24 -15t-9 10q0 11 6 21t13 19q30 36 63 64t67.5 44t69.5 16q16 0 31.5 -14.5t23 -34t0.5 -35.5q-16 -36 -43.5 -93.5t-63.5 -134.5q-7 -14 -5 -23.5
t12 -9.5t29 22t43.5 56.5t49.5 69.5q15 20 29 41.5t27.5 43.5t25.5 41q19 30 34 50.5t34 20.5q22 0 39 -12t25 -28.5t2 -32.5l-93 -251q-2 -6 -2 -12.5t5 -6.5q7 0 27 12.5t42.5 29.5t35.5 30q3 3 4 3q6 0 10 -5t4 -11q0 -15 -16.5 -36t-43 -44t-57 -42.5t-59 -32
t-49.5 -12.5q-13 0 -25 9.5t-19 23.5t-7 25q0 5 2 10.5t5 12.5q7 16 16 36t20 45t23 56q3 8 -2 8.5t-10 -6.5q-24 -36 -52.5 -74.5t-59 -71.5t-61.5 -53.5t-60 -20.5z" />
    <glyph glyph-name="v" unicode="v" horiz-adv-x="492" 
d="M163 -14q-41 0 -66.5 16.5t-32 46.5t8.5 72l61 168q5 14 -0.5 17.5t-7.5 3.5q-11 0 -28.5 -9.5t-24.5 -15.5t-13 -10.5t-9 -4.5q-15 0 -15 13q0 5 6.5 14.5t16.5 22.5q14 17 38 37t52 38.5t54.5 30t44.5 11.5q14 0 25.5 -9.5t18.5 -22t4 -20.5l-77 -246
q-10 -34 -3.5 -49.5t34.5 -15.5q18 0 43.5 19t49.5 49t40 63t16 61q0 27 -9 44.5t-24 31.5q-10 10 -16 18t-6 19q0 9 18.5 22.5t42.5 24.5t39 11q17 0 30 -20.5t13 -65.5q0 -41 -19 -85.5t-49.5 -87.5t-66.5 -80q-44 -46 -92 -79t-97 -33z" />
    <glyph glyph-name="w" unicode="w" horiz-adv-x="710" 
d="M141 -14q-29 0 -51.5 19t-27.5 56t15 89l55 139q5 14 1.5 17.5t-5.5 3.5q-6 0 -22 -6.5t-30 -14.5q-7 -4 -14 -8.5t-10 -4.5q-14 0 -14 15q0 5 5.5 15t17.5 22q16 15 39.5 33.5t50.5 36t52 28.5t43 11q20 0 32.5 -10t12.5 -34.5t-17 -69.5l-71 -184q-13 -34 0 -49.5
t34 -15.5q12 0 27 11t31 31t30.5 47t26.5 59q5 12 7 23.5t3 23.5t3.5 27t6.5 35q1 8 9 23.5t21 27.5q16 15 30.5 23t45.5 8q14 0 24.5 -8t13 -28.5t-8.5 -57.5q-9 -31 -27 -60.5t-32 -55.5q-10 -19 -16 -39t-5 -37q1 -22 12.5 -37.5t35.5 -15.5q23 0 45.5 17.5t42 46t31 62
t11.5 66.5q0 21 -4.5 35.5t-12.5 30.5q-9 18 -16 29.5t-7 16.5q0 8 17 22t39 25.5t38 11.5q17 0 31 -20.5t14 -65.5q0 -41 -18.5 -86t-48 -89t-63.5 -83q-40 -46 -87 -76.5t-91 -30.5q-38 0 -60 20t-26 54t10 76l4 -41q-22 -34 -49 -58.5t-60.5 -37.5t-73.5 -13z" />
    <glyph glyph-name="x" unicode="x" horiz-adv-x="510" 
d="M36 -14q-27 0 -39 15.5t-12 34.5q0 16 7.5 32t19 26.5t23.5 10.5q5 0 11.5 -5t10.5 -11q5 -4 12 -8t18 -4q10 0 21 6t23 19q7 8 18.5 20.5t23 25.5t17.5 22q5 8 6.5 13.5t-1.5 15.5l-38 126q-2 8 -5.5 12.5t-8.5 4.5q-12 0 -29 -13.5t-36 -35.5q-2 -2 -5 -3.5t-6 -1.5
q-4 0 -7.5 2.5t-3.5 8.5q0 20 11.5 43.5t31 45t46 35.5t56.5 14q27 0 41.5 -20t24.5 -50l29 -89q4 -12 13 1l57 79q32 45 57.5 62t47.5 17q27 0 45 -20t18 -36q0 -19 -9 -34.5t-21.5 -25t-21.5 -9.5q-13 0 -17.5 4.5t-9.5 11.5q-4 7 -9 12t-16 5q-7 0 -19 -4t-32 -24
q-14 -14 -28 -34t-28 -43q-5 -9 -8 -17t1 -21l26 -98q5 -17 10 -22t12 -5t22 11.5t34 39.5q5 7 12 7q4 0 6.5 -3.5t2.5 -9.5q0 -15 -11 -38t-30.5 -45.5t-44.5 -37.5t-52 -15q-28 0 -47.5 21.5t-24.5 41.5q-4 19 -9 44.5t-10 44.5q-1 5 -3.5 7t-7.5 -4q-13 -18 -25 -38
t-25 -38q-26 -37 -57.5 -58t-57.5 -21z" />
    <glyph glyph-name="y" unicode="y" horiz-adv-x="499" 
d="M-46 -289q-30 0 -55 17t-25 51q0 19 9 37t24 30t32 12q11 0 24 -7.5t25 -16.5q13 -9 27.5 -17t33.5 -8q29 0 56 27t46 71q18 41 27 95t9 113q0 85 -9.5 135t-21.5 72t-22 22q-8 0 -18.5 -13t-20 -29t-14.5 -26q-2 -4 -7.5 -12.5t-11.5 -8.5q-3 0 -6 7.5t-3 20.5
q0 29 14.5 57t37 52t48.5 38t49 14q31 0 48.5 -20.5t30.5 -58.5q14 -43 24 -112t5 -169q-1 -18 3.5 -17t11.5 14q35 67 45.5 147.5t8.5 188.5q0 9 14 18t23 9q10 0 26.5 -9.5t30.5 -25t14 -35.5q0 -62 -36 -144.5t-101 -175t-151 -184.5q-40 -43 -85 -79.5t-86.5 -58
t-73.5 -21.5z" />
    <glyph glyph-name="z" unicode="z" horiz-adv-x="485" 
d="M273 -33q-31 0 -57 14t-47 30q-22 16 -40.5 29.5t-35.5 13.5q-25 0 -40 -18t-15 -41q0 -10 -5.5 -12.5t-10.5 -2.5q-9 0 -15.5 11t-7.5 21q-1 11 4.5 26t21.5 28l296 250l39 -4q-16 -14 -45 -23t-46 -9q-21 0 -40 14.5t-37 30.5q-15 13 -28.5 23t-26.5 10
q-14 0 -20 -15.5t-6 -32.5q0 -14 3.5 -24.5t8.5 -18.5q9 -12 0 -20q-8 -7 -25.5 -13.5t-24.5 -6.5t-17.5 11.5t-10.5 33.5q0 37 17.5 59.5t47.5 45.5q15 12 36.5 26t43.5 24t35 10q23 0 40.5 -6.5t41.5 -13.5q20 -7 41 -12t42 -5q16 0 24.5 4.5t21.5 15.5q6 5 15.5 11.5
t17.5 6.5q6 0 13 -5.5t7 -10.5q0 -7 -12.5 -21.5t-26.5 -26.5l-294 -268l-28 11q14 12 28.5 23t28.5 11q24 0 45.5 -14t40.5 -31q20 -17 40 -31.5t40 -14.5q10 0 17 8.5t11.5 23t4.5 31.5q0 20 1.5 35t11.5 15q14 0 29 -13.5t15 -43.5q0 -20 -19.5 -45.5t-47.5 -49t-56 -39
t-45 -15.5z" />
    <glyph glyph-name="braceleft" unicode="{" horiz-adv-x="397" 
d="M227 -152q-44 0 -84.5 7.5t-69.5 23.5t-40.5 41.5t2.5 60.5q10 25 23 58.5t25.5 68t20.5 61.5q13 42 4.5 63t-40.5 34q-10 5 -18 7t-8 15q0 10 12 15.5t29 11.5q25 9 42.5 17.5t30.5 27t24 53.5q13 41 23 86t19 82q8 35 34.5 60.5t65 41.5t83 23.5t88.5 7.5q11 0 17.5 -6
t3.5 -17q-4 -12 -18 -15t-26 -3q-52 0 -85 -19.5t-48 -67.5q-5 -16 -11 -47t-12.5 -63t-13.5 -54q-16 -53 -65 -90.5t-107 -48.5q-6 -1 0 -4q52 -11 79 -48.5t10 -90.5q-6 -21 -19.5 -53.5t-26 -63t-17.5 -47.5q-14 -48 4 -64t70 -26q12 -2 23 -3.5t11 -13.5q0 -11 -12 -16
t-23 -5z" />
    <glyph glyph-name="bar" unicode="|" horiz-adv-x="279" 
d="M101 -289q-10 0 -17 9t-7 19v905q0 16 12 27.5t29 19t31.5 11t18.5 3.5q11 0 19.5 -7.5t8.5 -18.5v-920q0 -16 -12 -25.5t-29 -14.5t-32 -6.5t-22 -1.5z" />
    <glyph glyph-name="braceright" unicode="}" horiz-adv-x="397" 
d="M213 714q44 0 84.5 -7.5t69.5 -23.5t40.5 -41.5t-2.5 -60.5q-10 -25 -23 -58.5t-25.5 -68t-20.5 -61.5q-13 -42 -4.5 -63t40.5 -34q10 -5 18 -7t8 -15q0 -10 -12 -15.5t-29 -11.5q-25 -9 -42.5 -17.5t-30.5 -27t-24 -53.5q-13 -41 -23 -86t-19 -82q-8 -35 -34.5 -60.5
t-65 -41.5t-83 -23.5t-88.5 -7.5q-11 0 -17.5 6t-3.5 17q4 12 18 15t26 3q52 0 85 19.5t48 67.5q5 16 11 47t12.5 63t13.5 54q16 53 65 90.5t107 48.5q6 1 0 4q-52 11 -79 48.5t-10 90.5q6 21 19.5 53.5t26 63t17.5 47.5q14 48 -4 64t-70 26q-12 2 -23 3.5t-11 13.5
q0 11 12 16t23 5z" />
    <glyph glyph-name="asciitilde" unicode="~" horiz-adv-x="555" 
d="M95 254q-7 0 -15 14t-8 19q0 6 13 25t35 40.5t48.5 37.5t52.5 16q23 0 47.5 -8t51.5 -17q23 -7 48.5 -13.5t53.5 -6.5q20 0 39.5 7.5t35.5 15.5q15 8 22.5 15t14.5 7q8 0 15.5 -14t7.5 -19q0 -6 -13 -25t-35 -40.5t-48.5 -37.5t-52.5 -16q-19 0 -42 6.5t-47 13.5
q-28 9 -57 17t-55 8t-51 -11.5t-41.5 -22.5t-19.5 -11z" />
    <glyph glyph-name="uni00A0" unicode="&#xa0;" horiz-adv-x="245" 
 />
    <glyph glyph-name="exclamdown" unicode="&#xa1;" horiz-adv-x="306" 
d="M186 308q13 0 17.5 -12t-0.5 -41q-10 -58 -19 -106t-17 -86.5t-13.5 -66.5t-9.5 -46q-6 -30 -20.5 -57t-36 -44.5t-49.5 -17.5q-20 0 -34.5 16.5t-17.5 47.5t15 77q3 9 14.5 33.5t29.5 61.5t41.5 84.5t51.5 103.5q12 23 23.5 38t24.5 15zM240 494q25 0 43 -18t18 -41
q0 -35 -27.5 -62.5t-64.5 -27.5q-32 0 -48.5 20.5t-16.5 43.5q0 34 29 59.5t67 25.5z" />
    <glyph glyph-name="cent" unicode="&#xa2;" horiz-adv-x="439" 
d="M120 -82q-9 0 -14 5.5t-1 14.5l21 51q-52 14 -82.5 57.5t-30.5 108.5q0 49 23.5 98.5t65 91t95 66.5t112.5 25l23 56q5 11 15.5 16.5t20.5 5.5q8 0 11 -6t-1 -16l-24 -57q25 -2 51.5 -12.5t45.5 -26t19 -32.5q0 -13 -12.5 -26.5t-30 -22.5t-33.5 -9q-11 0 -19.5 3.5
t-13.5 13.5q-8 18 -15.5 30.5t-16.5 18.5l-104 -255q6 -1 13 -1.5t14 -0.5q38 0 74 14.5t57 37.5q9 10 18 10q10 0 8.5 -10.5t-7.5 -21.5q-38 -71 -94 -112.5t-137 -46.5l-20 -48q-5 -9 -14 -14.5t-17 -5.5zM183 127l104 253q-31 -1 -57 -16.5t-45 -41t-29 -56t-10 -60.5
q0 -26 10 -47t27 -32z" />
    <glyph glyph-name="sterling" unicode="&#xa3;" horiz-adv-x="649" 
d="M109 287q-7 -1 -13.5 4.5t-6.5 12.5q0 9 10 22t23 14l382 25q8 1 13 -5.5t5 -11.5q0 -7 -13.5 -21t-29.5 -15zM357 -37q-43 0 -75 16t-58 35q-28 21 -51 39t-49 18q-31 -22 -50 -39t-37 -36q-10 -10 -26 -8t-28.5 13t-12.5 26q0 22 23.5 46.5t60 42t76.5 19.5
q22 33 39.5 72t33 84t30.5 96q20 63 59.5 118t101 89.5t144.5 34.5q63 0 96.5 -18.5t42.5 -45t0 -53.5t-31 -45.5t-51 -18.5q-12 0 -15.5 4t-3.5 12t11.5 22t11.5 41q0 23 -12.5 40.5t-40.5 17.5q-22 0 -40 -9.5t-35 -34t-35.5 -68.5t-39.5 -113q-15 -48 -39.5 -92.5
t-57 -75.5t-72.5 -42q-2 -1 -1.5 -3t1.5 -4q38 0 63.5 -14.5t45.5 -32.5q21 -19 40 -35.5t47 -16.5q30 0 56.5 17t26.5 51q0 17 -9.5 27.5t-9.5 23.5q0 20 15 30.5t31 10.5q25 0 37.5 -13.5t12.5 -45.5q0 -29 -15 -60.5t-44 -59t-71 -45t-96 -17.5z" />
    <glyph glyph-name="currency" unicode="&#xa4;" horiz-adv-x="502" 
d="M208 54q-48 0 -83 19t-54.5 52.5t-19.5 76.5q0 52 25 101t66.5 88.5t92.5 62.5t104 23t87 -20.5t50.5 -54.5t16.5 -75q0 -46 -20 -94t-57.5 -88.5t-90 -65.5t-117.5 -25zM22 49q-13 0 -24.5 16t-9.5 27q1 4 11 12l79 60l35 -52l-78 -58q-5 -4 -7.5 -4.5t-5.5 -0.5z
M397 49q-9 0 -17 12l-48 65l50 37l49 -66q5 -6 5.5 -8.5t0.5 -4.5q0 -12 -13 -23.5t-27 -11.5zM227 115q38 0 74 16.5t65.5 44t46.5 63t17 72.5q0 46 -30 75.5t-80 29.5q-39 0 -75.5 -16.5t-65.5 -45t-46.5 -63t-17.5 -70.5q0 -46 30 -76t82 -30zM163 363l-58 78q-2 4 -2 7
q0 11 16 24t29 10q6 -1 8 -5l57 -77zM463 376l-38 50l70 51q4 2 7.5 3.5t6.5 1.5q17 0 28 -13.5t8 -27.5q-1 -5 -4 -9z" />
    <glyph glyph-name="yen" unicode="&#xa5;" horiz-adv-x="665" 
d="M115 -6q-13 0 -18.5 5t-3.5 12q2 9 13 14.5t22 7.5q41 8 61 27t29 50l22 71h-108q-7 0 -13.5 5.5t-5.5 12.5q1 9 11.5 21.5t23.5 12.5l108 -1l4 14q2 7 4 13.5t3 13.5h-102q-7 0 -13.5 5.5t-5.5 12.5q1 9 11.5 21.5t23.5 12.5h86q-1 7 -2.5 14t-3.5 14l-61 201
q-7 21 -18 38.5t-38 25.5q-8 3 -13.5 7t-2.5 14q2 8 9.5 11.5t14.5 3.5q47 0 81 -3t79 -3q29 0 61 3.5t69 3.5q8 0 16 -4t6 -11q-2 -9 -13.5 -14.5t-20.5 -7.5q-49 -11 -62 -27.5t-7 -47.5l34 -177q3 -15 6.5 -19t7.5 -4t9 4t12 13q23 27 47.5 57t49.5 61.5t49 60.5
q26 31 23 53.5t-44 25.5q-10 1 -18.5 7t-5.5 15q2 7 13 10.5t21 3.5q30 0 54.5 -2.5t52.5 -2.5q31 0 56.5 4t55.5 4q11 0 19 -3.5t5 -13.5t-12.5 -13.5t-19.5 -6.5q-21 -5 -40.5 -14.5t-36 -22t-28.5 -26.5q-45 -52 -90.5 -102.5t-92.5 -101.5q-6 -7 -12 -14.5t-11 -15.5h92
q8 0 13 -6.5t4 -11.5q-1 -7 -15 -20t-30 -13h-90l-13 -40l103 -1q8 0 13 -6.5t4 -11.5q-1 -7 -15 -20t-30 -13h-91l-21 -69q-12 -38 -3 -52.5t44 -25.5q11 -3 18.5 -7t4.5 -14q-2 -7 -11 -12t-20 -5q-21 0 -49.5 2t-56.5 4t-48 2t-47.5 -2t-55.5 -4.5t-50 -2.5z" />
    <glyph glyph-name="brokenbar" unicode="&#xa6;" horiz-adv-x="281" 
d="M103 -290q-10 0 -17 9t-7 19v386q0 16 12 27.5t29 19t31.5 11t18.5 3.5q11 0 19.5 -7.5t8.5 -18.5v-401q0 -16 -12 -25.5t-29 -14.5t-32 -6.5t-22 -1.5zM101 251q-10 0 -17 9t-7 19v365q0 16 12 27.5t29 19t31.5 11t18.5 3.5q11 0 19.5 -7.5t8.5 -18.5v-380
q0 -16 -12 -25.5t-29 -14.5t-32 -6.5t-22 -1.5z" />
    <glyph glyph-name="section" unicode="&#xa7;" horiz-adv-x="453" 
d="M41 -148q-32 0 -52.5 9.5t-20.5 24.5q0 13 11.5 31t27.5 32t28 14q13 0 23 -5.5t20 -13.5q11 -8 25 -15t36 -7t38.5 10t26 28.5t9.5 43.5q0 43 -23 80.5t-50 74.5q-26 37 -48.5 74t-22.5 78q0 45 17.5 78t47 60t63.5 51q23 39 56.5 71t72 50.5t76.5 18.5q24 0 48.5 -6
t41 -17t16.5 -25q0 -11 -14.5 -28.5t-32 -31t-27.5 -13.5q-7 0 -16 9l-20 20t-24.5 20.5t-29.5 9.5q-20 0 -38 -10.5t-28.5 -27t-10.5 -36.5q0 -36 25 -70.5t54 -71.5q26 -33 46.5 -70.5t20.5 -82.5q0 -56 -34 -117t-87 -114q-39 -39 -81 -67.5t-85 -43.5t-85 -15zM283 66
q0 -4 4 -3.5t5 3.5q13 23 22.5 48t9.5 50q0 40 -17.5 73t-39.5 63q-15 21 -29.5 41.5t-24.5 42t-13 45.5q0 4 -3 3t-6 -3q-17 -14 -26 -34.5t-9 -55.5q0 -31 21 -64t46 -68q15 -22 29 -45t22.5 -47t8.5 -49z" />
    <glyph glyph-name="dieresis" unicode="&#xa8;" horiz-adv-x="490" 
d="M431 490q-25 0 -40 16t-15 42q0 27 15 48.5t38.5 34t49.5 12.5q28 0 43.5 -15.5t15.5 -41.5q0 -39 -31.5 -67.5t-75.5 -28.5zM227 490q-25 0 -40 16t-15 42q0 27 15 48.5t38.5 34t49.5 12.5q28 0 43.5 -15.5t15.5 -41.5q0 -39 -31.5 -67.5t-75.5 -28.5z" />
    <glyph glyph-name="copyright" unicode="&#xa9;" horiz-adv-x="684" 
d="M376 15q-64 0 -120.5 24.5t-99.5 67t-67 99.5t-24 121q0 65 24.5 121.5t67 99t99.5 67t121 24.5q65 0 121.5 -24.5t99 -67t67 -99t24.5 -121.5q0 -64 -24.5 -121t-67.5 -99.5t-99.5 -67t-121.5 -24.5zM390 134q-58 0 -107.5 24t-79.5 66t-30 97q0 50 28.5 93.5t80.5 70.5
t123 27q28 0 56.5 -6.5t48.5 -17.5q6 -2 9 -5.5t4 -10.5q3 -24 3.5 -40.5t0.5 -36.5q0 -10 -6 -15.5t-14 -5.5q-6 0 -11.5 4t-7.5 12q-4 11 -7.5 20.5t-11.5 18.5q-10 11 -26 19.5t-42 8.5q-50 0 -72.5 -37.5t-22.5 -88.5q0 -44 9 -76t29.5 -49.5t56.5 -17.5t56.5 15
t35.5 51q4 9 10.5 12t12.5 1q14 -3 14 -20q0 -21 -3 -35.5t-8 -36.5q-2 -7 -6 -7.5t-10 -3.5q-20 -10 -48.5 -20t-64.5 -10zM376 68q53 0 99.5 20.5t81 56t54 82.5t19.5 100q0 52 -19.5 98t-54.5 80.5t-80.5 54.5t-98.5 20q-52 0 -98 -20t-81 -54.5t-54.5 -80.5t-19.5 -98
q0 -53 19.5 -100t54 -82.5t80.5 -56t98 -20.5z" />
    <glyph glyph-name="ordfeminine" unicode="&#xaa;" horiz-adv-x="361" 
d="M35 159q-7 0 -12.5 5.5t-5.5 10.5q0 8 9.5 19.5t21.5 11.5h240q6 0 12 -4.5t6 -11.5q0 -10 -13.5 -20.5t-27.5 -10.5h-230zM129 286q-28 0 -46.5 14.5t-18.5 34.5q0 38 25 57t65 32l70 23q16 5 21.5 10t8.5 18l6 22q5 16 4.5 25.5t-17.5 9.5q-7 0 -15 -2.5t-15 -7.5
q-6 -5 -6.5 -14t-2.5 -15q-1 -4 -13 -10t-28 -11t-29.5 -8.5t-18.5 -3.5q-6 0 -5 6.5t5 14.5q8 12 17.5 23t31.5 25q16 10 39.5 20.5t49.5 18t47 7.5q47 0 65 -27.5t4 -74.5l-37 -105q-4 -11 -2.5 -22.5t11.5 -11.5q6 0 12 3t11 6q2 2 5 2q2 0 4 -2t2 -4q0 -8 -10 -16.5
t-15 -11.5q-15 -10 -32 -17.5t-39 -7.5q-18 0 -30 5t-19.5 14t-12.5 20h-1q-15 -13 -38.5 -26t-52.5 -13zM191 338q3 0 7.5 1.5t6.5 2.5q2 2 4 4.5t3 6.5l20 58q2 5 -1 7t-8 0q-17 -7 -28 -17t-18 -36q-4 -9 -1.5 -18t15.5 -9z" />
    <glyph glyph-name="guillemotleft" unicode="&#xab;" horiz-adv-x="622" 
d="M283 15q-11 0 -18.5 8.5t-11.5 12.5q-23 27 -43.5 47.5t-41 37t-43.5 32.5t-52 34q-14 9 -20 13t-6 10q0 7 9.5 13t15.5 8q64 28 113 55.5t94.5 58.5t98.5 69q5 4 10 7.5t13 3.5q14 0 11 -9.5t-11 -20.5q-42 -48 -79 -79.5t-70 -54t-63 -42.5q-9 -6 -9.5 -8t5.5 -8
q18 -19 36.5 -41.5t36.5 -51t35 -67.5q5 -10 0 -19t-10 -9zM494 15q-11 0 -18.5 8.5t-11.5 12.5q-23 27 -43.5 47.5t-41 37t-43.5 32.5t-52 34q-14 9 -20 13t-6 10q0 7 9.5 13t15.5 8q64 28 113 55.5t94.5 58.5t98.5 69q5 4 10 7.5t13 3.5q14 0 11 -9.5t-11 -20.5
q-42 -48 -79 -79.5t-70 -54t-63 -42.5q-9 -6 -9.5 -8t5.5 -8q18 -19 36.5 -41.5t36.5 -51t35 -67.5q5 -10 0 -19t-10 -9z" />
    <glyph glyph-name="logicalnot" unicode="&#xac;" horiz-adv-x="600" 
d="M497 42q-5 0 -10 6t-5 14v237q0 16 -15 16h-417q-7 0 -13.5 5t-6.5 10q0 9 3.5 23t11.5 25t20 11h473q11 0 14.5 -6t3.5 -15v-292q0 -12 -11 -19.5t-25 -11t-23 -3.5z" />
    <glyph glyph-name="uni00AD" unicode="&#xad;" horiz-adv-x="333" 
d="M30 163q-7 -1 -10 2.5t-3 8.5q0 29 15.5 45.5t28.5 18.5q58 9 122.5 17t120.5 12q11 1 12.5 -4.5t1.5 -13.5t-6.5 -20.5t-15.5 -22.5t-17 -12q-58 -8 -125 -17t-124 -14z" />
    <glyph glyph-name="registered" unicode="&#xae;" horiz-adv-x="719" 
d="M394 15q-64 0 -120.5 24.5t-99.5 67t-67 99.5t-24 121q0 65 24.5 121.5t67 99t99.5 67t121 24.5q65 0 121.5 -24.5t99 -67t67 -99t24.5 -121.5q0 -64 -24.5 -121t-67.5 -99.5t-99.5 -67t-121.5 -24.5zM394 68q53 0 99.5 20.5t81 56t54 82.5t19.5 100q0 52 -19.5 98
t-54.5 80.5t-80.5 54.5t-98.5 20q-52 0 -98 -20t-81 -54.5t-54.5 -80.5t-19.5 -98q0 -53 19.5 -100t54 -82.5t80.5 -56t98 -20.5zM519 170q-15 0 -33.5 11t-37.5 30t-36 44t-30 53q-2 5 -5.5 7.5t-7.5 2.5q-3 0 -4.5 -2t-1.5 -7v-82q0 -15 9.5 -21t31.5 -11q5 -1 8.5 -3.5
t3.5 -9.5q0 -5 -3 -9t-8 -4q-16 0 -44 1.5t-44 1.5q-10 0 -24 -0.5t-28 -1.5t-26 -1q-3 0 -7 4.5t-4 8.5q0 6 3.5 9t8.5 4q20 5 27 11t7 21v214q0 11 -2.5 17t-9.5 10t-19 7q-11 1 -11 11q0 7 10 7q26 0 40.5 -2t34.5 -2q19 0 31.5 2t42.5 2q64 0 97 -19.5t33 -60.5
q0 -34 -19 -51t-42 -28q-2 -1 -2 -3t1 -4q18 -43 41 -68.5t45 -36.5t35 -11q3 0 5 -2t2 -7q0 -13 -16 -22.5t-52 -9.5zM380 355q30 0 44 14t14 33q0 29 -13 41.5t-39 12.5q-15 0 -20.5 -4.5t-5.5 -13.5v-68q0 -7 5 -11t15 -4z" />
    <glyph glyph-name="macron" unicode="&#xaf;" horiz-adv-x="367" 
d="M136 510q-10 0 -13 5t-3 14q0 17 10 32.5t23 25t22 9.5h261q24 0 24 -14q0 -12 -9.5 -29t-23 -30t-26.5 -13h-265z" />
    <glyph glyph-name="degree" unicode="&#xb0;" horiz-adv-x="359" 
d="M280 376q-46 0 -81.5 22.5t-55 58t-19.5 74.5q0 40 19.5 72.5t55 52t81.5 19.5t80 -19.5t53.5 -52t19.5 -72.5q0 -39 -19.5 -74.5t-53.5 -58t-80 -22.5zM279 436q34 0 58.5 25t24.5 64t-24.5 63.5t-58.5 24.5q-35 0 -59.5 -24.5t-24.5 -63.5t24.5 -64t59.5 -25z" />
    <glyph glyph-name="plusminus" unicode="&#xb1;" horiz-adv-x="600" 
d="M284 126q-4 0 -8.5 5t-4.5 12v201q0 13 -13 13h-211q-7 0 -12 4.5t-5 8.5q0 11 6.5 28.5t22.5 17.5h198q10 0 12 3.5t2 10.5v170q0 10 7 17.5t17.5 12t18.5 4.5t12 -7t4 -16v-181q0 -7 3 -10.5t10 -3.5h204q9 0 16 -4t7 -12q0 -13 -10 -28t-24 -15h-193q-13 0 -13 -13
v-189q0 -16 -17.5 -22.5t-28.5 -6.5zM49 29q-7 0 -13 5.5t-6 9.5q0 7 3.5 18.5t10.5 21t19 9.5h482q11 0 19 -5t8 -13q0 -14 -11 -30t-27 -16h-485z" />
    <glyph glyph-name="uni00B2" unicode="&#xb2;" horiz-adv-x="352" 
d="M354 438q-10 0 -49 1.5t-81 1.5q-21 0 -48 -0.5t-46.5 -1.5t-20.5 -1q-9 0 -9 7q0 5 7 10l50 43q81 70 123.5 110t42.5 74q0 14 -11 24t-30 10q-20 0 -39 -13t-30 -24q-5 -6 -9.5 -10.5t-9.5 -4.5q-8 0 -8 6t2 13q10 27 34.5 48t56 32.5t61.5 11.5q44 0 69.5 -18.5
t25.5 -59.5q0 -25 -21 -48t-47 -46q-9 -7 -31 -21.5t-46.5 -29.5t-42.5 -25.5t-19 -11.5t1.5 -2t6.5 -1h101q17 0 35 12t31 28q3 4 8.5 8t12.5 4q8 0 9.5 -4.5t-6.5 -15.5q-16 -22 -28.5 -43t-20 -35l-7.5 -14q-2 -5 -7 -9.5t-10 -4.5z" />
    <glyph glyph-name="uni00B3" unicode="&#xb3;" horiz-adv-x="306" 
d="M165 435q-25 0 -41.5 7.5t-12.5 20.5q4 12 11.5 23.5t15.5 11.5t15.5 -5t14.5 -10q6 -6 16 -12t16 -6q13 0 29.5 11.5t28.5 31.5t12 43q0 17 -9 36.5t-26 19.5q-24 0 -33 -9t-15 -9q-7 0 -9.5 3t-2.5 10q0 5 8.5 12t19.5 13.5t18 9.5q50 20 68.5 34t18.5 30q0 12 -8 21
t-29 9q-17 0 -31.5 -8t-25.5 -16q-6 -4 -10 -7.5t-6 -3.5q-4 0 -6.5 5.5t-1.5 9.5q2 4 18 19.5t45.5 30t70.5 14.5q39 0 59 -18.5t20 -41.5q0 -26 -28.5 -45t-62.5 -27q-2 -1 -2.5 -2t1.5 -1q29 0 48.5 -22t19.5 -49t-20 -51.5t-52.5 -43t-69.5 -29t-72 -10.5z" />
    <glyph glyph-name="acute" unicode="&#xb4;" horiz-adv-x="245" 
d="M158 469q-13 0 -14 11.5t4 22.5l73 162q9 20 18 28.5t21 8.5q11 0 26 -9t26 -21t11 -22t-6 -20t-17 -21l-111 -123q-7 -7 -15 -12t-16 -5z" />
    <glyph glyph-name="uni03BC.1" unicode="&#xb5;" horiz-adv-x="586" 
d="M19 -289q-22 0 -34.5 13.5t-17.5 32.5t-5 35q0 26 6 60t16 72.5t21 75.5q5 13 17 40.5t19 51.5q3 10 11 38.5t18.5 67.5t21.5 80t20.5 77t14.5 58q4 12 16 18t25 6q27 0 50 -13t35.5 -30.5t8.5 -31.5q-3 -10 -16 -34t-31.5 -55t-38 -62t-35.5 -54l-7 -17.5t-3 -10.5
q0 -13 11.5 -29.5t33.5 -15.5q29 2 56.5 21.5t53 48.5t46.5 59q18 50 33 92.5t33 91.5q8 23 17.5 31.5t22.5 8.5q17 0 41 -9t42 -22.5t18 -28.5q0 -9 -11 -30.5t-30.5 -51.5t-44.5 -64t-54 -68q-9 -28 9.5 -42.5t50.5 -14.5q18 0 37 8t34 16.5t18 8.5q5 0 7.5 -3.5t2.5 -8.5
q0 -43 -22.5 -75t-54.5 -49.5t-63 -17.5q-20 0 -38 13.5t-27 37t-4 53.5q2 8 4.5 16t6.5 16l-3 1q-4 -6 -19.5 -27.5t-36.5 -46t-43.5 -43t-41.5 -18.5q-36 0 -53.5 17.5t-37.5 41.5q-4 4 -11 14t-14 19t-11 9q-7 0 -11.5 -5.5t-9.5 -19.5q-3 -8 -7 -24t-6.5 -36t-2.5 -41
q0 -27 9 -58t25 -53q11 -15 20 -27t9 -24q0 -9 -11 -23.5t-27 -29.5t-32 -25.5t-26 -10.5z" />
    <glyph glyph-name="paragraph" unicode="&#xb6;" horiz-adv-x="612" 
d="M116 -287q-58 0 -94 29t-36 74q0 50 21.5 84.5t57 52.5t76.5 18q32 0 53 -15.5t21 -49.5q0 -33 -21.5 -53.5t-51.5 -20.5q-13 0 -26.5 5.5t-24.5 11.5q-8 5 -16.5 9t-17.5 4q-11 0 -17.5 -10.5t-6.5 -25.5q0 -22 19.5 -44t64.5 -22q67 0 111 40t66 110l47 146q3 8 0.5 14
t-9.5 6q-96 0 -164 40.5t-94 113.5t4 172q25 83 64 132.5t96 74t136 32t184 7.5q32 0 64.5 -1.5t57 -3.5t32.5 -4t9.5 -11t-1.5 -19q-4 -10 -10.5 -20t-13.5 -10q-3 0 -12.5 2.5t-25 5.5t-35 5.5t-41.5 2.5q-9 0 -18 -8.5t-12 -18.5l-200 -646q-16 -52 -43.5 -100
t-73.5 -78.5t-119 -30.5zM342 124q4 0 8.5 3.5t6.5 10.5l144 445v1v1q0 5 -6.5 6.5t-11.5 1.5q-20 0 -38 -3.5t-37 -22t-39.5 -61.5t-46.5 -122q-40 -124 -40 -185q0 -40 15 -57.5t45 -17.5z" />
    <glyph glyph-name="periodcentered" unicode="&#xb7;" horiz-adv-x="267" 
d="M114 127q-28 0 -48 21t-20 48q0 28 14.5 52t38 39t51.5 15q35 0 53.5 -24.5t18.5 -50.5t-14.5 -49t-39 -37t-54.5 -14z" />
    <glyph glyph-name="cedilla" unicode="&#xb8;" horiz-adv-x="245" 
d="M-33 -281q-25 0 -46.5 10.5t-34 26t-12.5 29.5q0 39 31 39q15 0 28.5 -8t26.5 -19q15 -12 24 -20t22 -8q9 0 13.5 5.5t4.5 13.5q0 14 -10 22.5t-22 20.5q-12 11 -24.5 27t-12.5 29q0 17 20.5 41t50.5 48t59 41h41q-37 -26 -50.5 -43t-13.5 -31q0 -10 10.5 -21t22.5 -22
q14 -13 23 -25t9 -25q0 -16 -15.5 -38t-39.5 -43.5t-52 -35.5t-53 -14z" />
    <glyph glyph-name="uni00B9" unicode="&#xb9;" horiz-adv-x="255" 
d="M118 438q-4 0 -6.5 2.5t-1.5 6.5q2 6 6 9.5t9 4.5q23 5 27.5 9t8.5 16l60 198q7 21 -5.5 31.5t-22.5 11.5q-11 2 -8 12q6 16 22 17q38 3 72.5 4t65.5 14q2 1 6.5 3t6.5 2q9 0 7 -7q-1 -6 -5.5 -13.5t-9.5 -24.5l-77 -247q-3 -10 -2 -14.5t21 -11.5q5 -2 7 -4t0 -9
q-1 -4 -3.5 -6.5t-7.5 -2.5q-9 0 -26.5 0.5t-34.5 1t-26 0.5q-13 0 -40 -1.5t-43 -1.5z" />
    <glyph glyph-name="ordmasculine" unicode="&#xba;" horiz-adv-x="397" 
d="M46 159q-7 0 -12.5 5.5t-5.5 10.5q0 8 9.5 19.5t21.5 11.5h247q6 0 12 -4.5t6 -11.5q0 -10 -13.5 -20.5t-27.5 -10.5h-237zM214 293q-73 0 -105.5 44t-14.5 108q13 44 45.5 74.5t78 46.5t97.5 16q72 0 103.5 -42.5t14.5 -107.5q-10 -39 -38 -70.5t-73 -50t-108 -18.5z
M234 333q14 0 24.5 9t19 23.5t15 32t12.5 34.5q9 27 11 52t-3.5 41.5t-20.5 16.5q-13 0 -24 -9t-20 -24t-15.5 -32t-11.5 -33q-8 -28 -9.5 -53.5t4 -41.5t18.5 -16z" />
    <glyph glyph-name="guillemotright" unicode="&#xbb;" horiz-adv-x="622" 
d="M344 425q11 0 18.5 -8.5t11.5 -12.5q23 -27 43.5 -47.5t41 -37t43.5 -32.5t52 -34q14 -9 20 -13t6 -10q0 -7 -9.5 -13t-15.5 -8q-64 -28 -113 -55.5t-94.5 -58.5t-98.5 -69q-5 -4 -10 -7.5t-13 -3.5q-14 0 -11 9.5t11 20.5q42 48 79 79.5t70 54t63 42.5q9 6 9.5 8t-5.5 8
q-18 19 -36.5 41.5t-36.5 51t-35 67.5q-5 10 0 19t10 9zM133 425q11 0 18.5 -8.5t11.5 -12.5q23 -27 43.5 -47.5t41 -37t43.5 -32.5t52 -34q14 -9 20 -13t6 -10q0 -7 -9.5 -13t-15.5 -8q-64 -28 -113 -55.5t-94.5 -58.5t-98.5 -69q-5 -4 -10 -7.5t-13 -3.5q-14 0 -11 9.5
t11 20.5q42 48 79 79.5t70 54t63 42.5q9 6 9.5 8t-5.5 8q-18 19 -36.5 41.5t-36.5 51t-35 67.5q-5 10 0 19t10 9z" />
    <glyph glyph-name="onequarter" unicode="&#xbc;" horiz-adv-x="696" 
d="M69 278q-4 0 -6.5 2.5t-1.5 6.5q2 6 6 9.5t9 4.5q23 5 27.5 9t8.5 16l60 198q7 21 -5.5 31.5t-22.5 11.5q-11 2 -8 12q6 16 22 17q38 3 72.5 4t65.5 14q2 1 6.5 3t6.5 2q9 0 7 -7q-1 -6 -5.5 -13.5t-9.5 -24.5l-77 -247q-3 -10 -2 -14.5t21 -11.5q5 -2 7 -4t0 -9
q-1 -4 -3.5 -6.5t-7.5 -2.5q-9 0 -26.5 0.5t-34.5 1t-26 0.5q-13 0 -40 -1.5t-43 -1.5zM70 -19q-16 0 -22 13t4 23l609 636q8 8 22.5 12t27.5 4q16 0 22 -10t-3 -19l-606 -632q-13 -14 -26 -20.5t-28 -6.5zM479 -9q-12 0 -9 8l25 79q3 11 -9 11q-37 0 -77 -1t-79 -1
q-4 0 -4.5 4.5t5.5 9.5q46 41 101 85.5t107 84.5q14 11 45.5 30.5t56.5 39.5q8 6 15 10t11 4q3 0 3.5 -2.5t-0.5 -6.5l-66 -207q-2 -5 5 -5q17 0 28.5 0.5t14.5 0.5q6 0 5 -7q-1 -9 -12 -23t-16 -14h-15h-16q-9 0 -12 -7l-15 -53q-2 -6 -14.5 -13t-29 -13t-30 -10t-18.5 -4z
M425 135h82q4 0 6 4l28 85q0 1 -1 1t-2 -1q-12 -9 -35.5 -25.5t-45.5 -33t-33 -26.5q-2 -4 1 -4z" />
    <glyph glyph-name="onehalf" unicode="&#xbd;" horiz-adv-x="733" 
d="M69 278q-4 0 -6.5 2.5t-1.5 6.5q2 6 6 9.5t9 4.5q23 5 27.5 9t8.5 16l60 198q7 21 -5.5 31.5t-22.5 11.5q-11 2 -8 12q6 16 22 17q38 3 72.5 4t65.5 14q2 1 6.5 3t6.5 2q9 0 7 -7q-1 -6 -5.5 -13.5t-9.5 -24.5l-77 -247q-3 -10 -2 -14.5t21 -11.5q5 -2 7 -4t0 -9
q-1 -4 -3.5 -6.5t-7.5 -2.5q-9 0 -26.5 0.5t-34.5 1t-26 0.5q-13 0 -40 -1.5t-43 -1.5zM67 -19q-16 0 -22 13t4 23l609 636q8 8 22.5 12t27.5 4q16 0 22 -10t-3 -19l-606 -632q-13 -14 -26 -20.5t-28 -6.5zM595 -16q-10 0 -49 1.5t-81 1.5q-21 0 -48 -0.5t-46.5 -1.5
t-20.5 -1q-9 0 -9 7q0 5 7 10l50 43q81 70 123.5 110t42.5 74q0 14 -11 24t-30 10q-20 0 -39 -13t-30 -24q-5 -6 -9.5 -10.5t-9.5 -4.5q-8 0 -8 6t2 13q10 27 34.5 48t56 32.5t61.5 11.5q44 0 69.5 -18.5t25.5 -59.5q0 -25 -21 -48t-47 -46q-9 -7 -31 -21.5t-46.5 -29.5
t-42.5 -25.5t-19 -11.5t1.5 -2t6.5 -1h101q17 0 35 12t31 28q3 4 8.5 8t12.5 4q8 0 9.5 -4.5t-6.5 -15.5q-16 -22 -28.5 -43t-20 -35l-7.5 -14q-2 -5 -7 -9.5t-10 -4.5z" />
    <glyph glyph-name="threequarters" unicode="&#xbe;" horiz-adv-x="711" 
d="M115 275q-25 0 -41.5 7.5t-12.5 20.5q4 12 11.5 23.5t15.5 11.5t15.5 -5t14.5 -10q6 -6 16 -12t16 -6q13 0 29.5 11.5t28.5 31.5t12 43q0 17 -9 36.5t-26 19.5q-24 0 -33 -9t-15 -9q-7 0 -9.5 3t-2.5 10q0 5 8.5 12t19.5 13.5t18 9.5q50 20 68.5 34t18.5 30q0 12 -8 21
t-29 9q-17 0 -31.5 -8t-25.5 -16q-6 -4 -10 -7.5t-6 -3.5q-4 0 -6.5 5.5t-1.5 9.5q2 4 18 19.5t45.5 30t70.5 14.5q39 0 59 -18.5t20 -41.5q0 -26 -28.5 -45t-62.5 -27q-2 -1 -2.5 -2t1.5 -1q29 0 48.5 -22t19.5 -49t-20 -51.5t-52.5 -43t-69.5 -29t-72 -10.5zM90 -19
q-16 0 -22 13t4 23l609 636q8 8 22.5 12t27.5 4q16 0 22 -10t-3 -19l-606 -632q-13 -14 -26 -20.5t-28 -6.5zM494 -9q-12 0 -9 8l25 79q3 11 -9 11q-37 0 -77 -1t-79 -1q-4 0 -4.5 4.5t5.5 9.5q46 41 101 85.5t107 84.5q14 11 45.5 30.5t56.5 39.5q8 6 15 10t11 4
q3 0 3.5 -2.5t-0.5 -6.5l-66 -207q-2 -5 5 -5q17 0 28.5 0.5t14.5 0.5q6 0 5 -7q-1 -9 -12 -23t-16 -14h-15h-16q-9 0 -12 -7l-15 -53q-2 -6 -14.5 -13t-29 -13t-30 -10t-18.5 -4zM440 135h82q4 0 6 4l28 85q0 1 -1 1t-2 -1q-12 -9 -35.5 -25.5t-45.5 -33t-33 -26.5
q-2 -4 1 -4z" />
    <glyph glyph-name="questiondown" unicode="&#xbf;" horiz-adv-x="404" 
d="M255 306q7 0 21.5 -12t26 -31t11.5 -41q0 -35 -11 -65t-45.5 -56t-104.5 -47q-56 -16 -86 -38.5t-30 -53.5q0 -26 16.5 -42.5t55.5 -16.5q14 0 28.5 8t27.5 14q8 4 19.5 9.5t22.5 5.5q18 0 30.5 -12t11.5 -33q0 -35 -28.5 -54t-68.5 -19q-41 0 -77 23.5t-59 67t-23 103.5
q0 26 14.5 53.5t39 49.5t55.5 34l94 37q27 10 36 20.5t9 27.5q0 8 -1 15l-2 14q-2 7 -4.5 14t-2.5 13q0 7 7.5 9.5t16.5 2.5zM293 497q24 0 41 -18t17 -41q0 -36 -27 -63.5t-62 -27.5q-31 0 -46.5 20.5t-15.5 43.5q0 34 27.5 60t65.5 26z" />
    <glyph glyph-name="Agrave" unicode="&#xc0;" horiz-adv-x="766" 
d="M-46 -5q-11 0 -17.5 3.5t-4.5 13.5t9.5 15t17.5 7q18 4 43 12t49.5 21t40.5 31q64 73 127.5 145t127.5 144.5t128 144.5q19 21 31.5 42.5t21 36t14.5 14.5q26 0 52 4.5t45 14.5q17 9 32 18.5t25 9.5q11 0 12.5 -20.5t-3.5 -45.5l-98 -494q-6 -31 9.5 -49t53.5 -29
q11 -3 18.5 -6.5t7.5 -14.5q0 -7 -11.5 -11t-19.5 -4q-21 0 -49.5 1t-57.5 2t-52 1q-20 0 -49 -1t-59 -2.5t-52 -1.5q-20 0 -18 15q1 9 9 14.5t18 7.5q23 5 39 12.5t26.5 19.5t14.5 31l30 122q2 8 -1.5 12.5t-11.5 4.5h-161q-8 0 -14.5 -5.5t-11.5 -11.5l-62 -79
q-25 -32 -30.5 -53t7.5 -33.5t41 -19.5q9 -2 17.5 -7.5t7.5 -14.5q-1 -7 -11 -10.5t-21 -3.5q-33 0 -63.5 1.5t-60.5 1.5q-29 0 -66.5 -3t-69.5 -3zM341 284h123q8 0 12 2t5 9l47 219q2 6 2.5 11t-3.5 5q-1 0 -5 -2t-7 -5l-184 -221q-9 -10 -7.5 -14t17.5 -4zM703 693
q-3 0 -10.5 0.5t-17.5 4.5q-43 20 -90 43t-89 44q-18 9 -21 21q-2 8 12.5 17.5t32.5 17.5t25 10q21 6 36 -8q33 -30 60 -61t60 -58q14 -11 14 -21t-12 -10z" />
    <glyph glyph-name="Aacute" unicode="&#xc1;" horiz-adv-x="766" 
d="M-46 -5q-11 0 -17.5 3.5t-4.5 13.5t9.5 15t17.5 7q18 4 43 12t49.5 21t40.5 31q64 73 127.5 145t127.5 144.5t128 144.5q19 21 31.5 42.5t21 36t14.5 14.5q26 0 52 4.5t45 14.5q17 9 32 18.5t25 9.5q11 0 12.5 -20.5t-3.5 -45.5l-98 -494q-6 -31 9.5 -49t53.5 -29
q11 -3 18.5 -6.5t7.5 -14.5q0 -7 -11.5 -11t-19.5 -4q-21 0 -49.5 1t-57.5 2t-52 1q-20 0 -49 -1t-59 -2.5t-52 -1.5q-20 0 -18 15q1 9 9 14.5t18 7.5q23 5 39 12.5t26.5 19.5t14.5 31l30 122q2 8 -1.5 12.5t-11.5 4.5h-161q-8 0 -14.5 -5.5t-11.5 -11.5l-62 -79
q-25 -32 -30.5 -53t7.5 -33.5t41 -19.5q9 -2 17.5 -7.5t7.5 -14.5q-1 -7 -11 -10.5t-21 -3.5q-33 0 -63.5 1.5t-60.5 1.5q-29 0 -66.5 -3t-69.5 -3zM341 284h123q8 0 12 2t5 9l47 219q2 6 2.5 11t-3.5 5q-1 0 -5 -2t-7 -5l-184 -221q-9 -10 -7.5 -14t17.5 -4zM615 681
q-12 0 -14 8q-1 7 9 23q23 37 46.5 70.5t51.5 67.5q12 15 34 15q8 0 27.5 -4.5t35.5 -12t15 -16.5q-1 -12 -18 -24q-38 -28 -80 -59.5t-81 -57.5q-9 -6 -16 -8t-10 -2z" />
    <glyph glyph-name="Acircumflex" unicode="&#xc2;" horiz-adv-x="766" 
d="M-46 -5q-11 0 -17.5 3.5t-4.5 13.5t9.5 15t17.5 7q18 4 43 12t49.5 21t40.5 31q64 73 127.5 145t127.5 144.5t128 144.5q19 21 31.5 42.5t21 36t14.5 14.5q26 0 52 4.5t45 14.5q17 9 32 18.5t25 9.5q11 0 12.5 -20.5t-3.5 -45.5l-98 -494q-6 -31 9.5 -49t53.5 -29
q11 -3 18.5 -6.5t7.5 -14.5q0 -7 -11.5 -11t-19.5 -4q-21 0 -49.5 1t-57.5 2t-52 1q-20 0 -49 -1t-59 -2.5t-52 -1.5q-20 0 -18 15q1 9 9 14.5t18 7.5q23 5 39 12.5t26.5 19.5t14.5 31l30 122q2 8 -1.5 12.5t-11.5 4.5h-161q-8 0 -14.5 -5.5t-11.5 -11.5l-62 -79
q-25 -32 -30.5 -53t7.5 -33.5t41 -19.5q9 -2 17.5 -7.5t7.5 -14.5q-1 -7 -11 -10.5t-21 -3.5q-33 0 -63.5 1.5t-60.5 1.5q-29 0 -66.5 -3t-69.5 -3zM341 284h123q8 0 12 2t5 9l47 219q2 6 2.5 11t-3.5 5q-1 0 -5 -2t-7 -5l-184 -221q-9 -10 -7.5 -14t17.5 -4zM512 692
q-21 0 -16 13q3 8 14 16l133 96q23 17 35 23.5t26 6.5q15 0 23 -6.5t21 -23.5l78 -95q4 -4 4 -8.5t-1 -8.5q-3 -14 -21 -14q-9 0 -30.5 9t-45 20.5t-38.5 19.5q-12 7 -26 0q-14 -6 -36 -14.5t-45.5 -16t-43.5 -12.5t-31 -5z" />
    <glyph glyph-name="Atilde" unicode="&#xc3;" horiz-adv-x="766" 
d="M-46 -5q-11 0 -17.5 3.5t-4.5 13.5t9.5 15t17.5 7q18 4 43 12t49.5 21t40.5 31q64 73 127.5 145t127.5 144.5t128 144.5q19 21 31.5 42.5t21 36t14.5 14.5q26 0 52 4.5t45 14.5q17 9 32 18.5t25 9.5q11 0 12.5 -20.5t-3.5 -45.5l-98 -494q-6 -31 9.5 -49t53.5 -29
q11 -3 18.5 -6.5t7.5 -14.5q0 -7 -11.5 -11t-19.5 -4q-21 0 -49.5 1t-57.5 2t-52 1q-20 0 -49 -1t-59 -2.5t-52 -1.5q-20 0 -18 15q1 9 9 14.5t18 7.5q23 5 39 12.5t26.5 19.5t14.5 31l30 122q2 8 -1.5 12.5t-11.5 4.5h-161q-8 0 -14.5 -5.5t-11.5 -11.5l-62 -79
q-25 -32 -30.5 -53t7.5 -33.5t41 -19.5q9 -2 17.5 -7.5t7.5 -14.5q-1 -7 -11 -10.5t-21 -3.5q-33 0 -63.5 1.5t-60.5 1.5q-29 0 -66.5 -3t-69.5 -3zM341 284h123q8 0 12 2t5 9l47 219q2 6 2.5 11t-3.5 5q-1 0 -5 -2t-7 -5l-184 -221q-9 -10 -7.5 -14t17.5 -4zM532 691
q-5 0 -12 6.5t-7 9.5q0 6 9 22.5t22.5 35.5t26 32.5t19.5 13.5q19 0 41.5 -1.5t44.5 -2.5q19 -1 41 -2t47 -1q11 0 19.5 6.5t15.5 13.5q8 8 12.5 15t7.5 7q5 0 14 -7t9 -12q0 -4 -4.5 -11t-13.5 -20q-11 -16 -20.5 -31.5t-18.5 -29.5q-6 -9 -15 -11.5t-16 -2.5q-9 0 -33 2
t-53.5 4t-54.5 4t-34 2q-8 0 -15.5 -6.5t-13.5 -14.5t-11 -14.5t-7 -6.5z" />
    <glyph glyph-name="Adieresis" unicode="&#xc4;" horiz-adv-x="766" 
d="M-46 -5q-11 0 -17.5 3.5t-4.5 13.5t9.5 15t17.5 7q18 4 43 12t49.5 21t40.5 31q64 73 127.5 145t127.5 144.5t128 144.5q19 21 31.5 42.5t21 36t14.5 14.5q26 0 52 4.5t45 14.5q17 9 32 18.5t25 9.5q11 0 12.5 -20.5t-3.5 -45.5l-98 -494q-6 -31 9.5 -49t53.5 -29
q11 -3 18.5 -6.5t7.5 -14.5q0 -7 -11.5 -11t-19.5 -4q-21 0 -49.5 1t-57.5 2t-52 1q-20 0 -49 -1t-59 -2.5t-52 -1.5q-20 0 -18 15q1 9 9 14.5t18 7.5q23 5 39 12.5t26.5 19.5t14.5 31l30 122q2 8 -1.5 12.5t-11.5 4.5h-161q-8 0 -14.5 -5.5t-11.5 -11.5l-62 -79
q-25 -32 -30.5 -53t7.5 -33.5t41 -19.5q9 -2 17.5 -7.5t7.5 -14.5q-1 -7 -11 -10.5t-21 -3.5q-33 0 -63.5 1.5t-60.5 1.5q-29 0 -66.5 -3t-69.5 -3zM341 284h123q8 0 12 2t5 9l47 219q2 6 2.5 11t-3.5 5q-1 0 -5 -2t-7 -5l-184 -221q-9 -10 -7.5 -14t17.5 -4zM763 686
q-27 0 -45.5 18.5t-18.5 41.5q0 37 28.5 65t72.5 28q28 0 45.5 -20t17.5 -46q0 -23 -14 -43t-36.5 -32t-49.5 -12zM565 686q-28 0 -46 18.5t-18 41.5q0 38 29 65.5t72 27.5q27 0 44.5 -20t17.5 -46q0 -34 -29.5 -60.5t-69.5 -26.5z" />
    <glyph glyph-name="Aring" unicode="&#xc5;" horiz-adv-x="766" 
d="M-46 -5q-11 0 -17.5 3.5t-4.5 13.5t9.5 15t17.5 7q18 4 43 12t49.5 21t40.5 31q64 73 127.5 145t127.5 144.5t128 144.5q19 21 31.5 42.5t21 36t14.5 14.5q26 0 52 4.5t45 14.5q17 9 32 18.5t25 9.5q11 0 12.5 -20.5t-3.5 -45.5l-98 -494q-6 -31 9.5 -49t53.5 -29
q11 -3 18.5 -6.5t7.5 -14.5q0 -7 -11.5 -11t-19.5 -4q-21 0 -49.5 1t-57.5 2t-52 1q-20 0 -49 -1t-59 -2.5t-52 -1.5q-20 0 -18 15q1 9 9 14.5t18 7.5q23 5 39 12.5t26.5 19.5t14.5 31l30 122q2 8 -1.5 12.5t-11.5 4.5h-161q-8 0 -14.5 -5.5t-11.5 -11.5l-62 -79
q-25 -32 -30.5 -53t7.5 -33.5t41 -19.5q9 -2 17.5 -7.5t7.5 -14.5q-1 -7 -11 -10.5t-21 -3.5q-33 0 -63.5 1.5t-60.5 1.5q-29 0 -66.5 -3t-69.5 -3zM341 284h123q8 0 12 2t5 9l47 219q2 6 2.5 11t-3.5 5q-1 0 -5 -2t-7 -5l-184 -221q-9 -10 -7.5 -14t17.5 -4zM653 695
q-38 0 -69 17t-31 48q0 50 40.5 79.5t98.5 29.5q24 0 47.5 -7.5t38.5 -22.5t15 -36q0 -51 -40.5 -79.5t-99.5 -28.5zM666 728q29 0 44 22t15 46q0 16 -13 26t-31 10q-29 0 -45.5 -21.5t-16.5 -45.5q0 -16 14 -26.5t33 -10.5z" />
    <glyph glyph-name="AE" unicode="&#xc6;" horiz-adv-x="913" 
d="M-47 -5q-11 0 -17.5 3.5t-3.5 13.5t11 14.5t18 7.5q32 9 60 26.5t47 37.5l453 501q4 5 3 8.5t-6 4.5l-45 8q-21 4 -21 19q0 8 8.5 12t20.5 4q22 0 55 -1t65.5 -2.5t52.5 -1.5q31 0 65 -0.5t68 -0.5q54 0 89 3.5t56.5 7t32.5 3.5q8 0 14.5 -4.5t4.5 -16.5
q-3 -30 -8.5 -68.5t-13.5 -65.5q-3 -10 -9 -15t-11 -5t-9.5 4t-5.5 13q-2 27 -5 44.5t-10 29.5t-23 23t-44 11h-77q-28 0 -43 -17t-21 -39q-7 -27 -15.5 -58t-16.5 -62t-16 -58q-4 -13 1 -18.5t17 -5.5h42.5h42.5q26 0 44 19t34 43q7 9 14 13.5t13 4.5q5 0 7.5 -6t-2.5 -17
q-9 -22 -16.5 -42.5t-14.5 -40.5q-6 -20 -11 -40t-10 -43q-4 -15 -9 -21.5t-10 -6.5q-7 0 -12 7t-5 17q2 32 -5.5 50.5t-26.5 18.5h-47h-47q-11 0 -18.5 -6t-10.5 -17q-13 -43 -28 -96.5t-28 -96.5q-8 -28 0.5 -39.5t33.5 -11.5h87q20 0 41 5.5t39 17.5q22 14 41 36t36 45
q6 8 11.5 10t11.5 2t9 -4t1 -11q-6 -18 -19 -43.5t-28 -50.5t-27 -43q-4 -7 -12 -9.5t-16 -2.5q-5 0 -39 0.5t-84 1.5t-104.5 1.5t-99.5 0.5q-20 0 -46.5 -1t-52.5 -2.5t-46 -1.5q-9 0 -12.5 5t-1.5 11q4 15 26 21q36 10 53 21t27 42q11 35 23.5 73.5t22.5 72.5q2 6 1 12
t-12 6h-133q-8 0 -15 -3t-16 -14l-36 -45t-37.5 -48.5t-28.5 -39.5q-16 -24 -17 -38.5t12.5 -22.5t38.5 -14q9 -2 13.5 -7.5t1.5 -14.5q-2 -7 -8 -10.5t-17 -3.5q-33 0 -63 1.5t-60 1.5q-29 0 -56.5 -3t-59.5 -3zM348 307h103q9 0 13.5 4.5t5.5 8.5l57 206q1 4 0.5 7.5
t-3.5 3.5q-4 0 -9 -6l-177 -206q-10 -11 -5 -14.5t15 -3.5z" />
    <glyph glyph-name="Ccedilla" unicode="&#xc7;" horiz-adv-x="673" 
d="M314 -14q-55 0 -102 20.5t-82 56.5t-54 84.5t-19 105.5q0 90 35.5 165t98 130t145 85.5t177.5 30.5q35 0 62 -6.5t47 -13.5q19 -6 30 -9.5t23 -3.5q7 0 13 1t13 5q8 5 15.5 8t14.5 3q10 0 12.5 -6.5t-4.5 -17.5q-13 -17 -28 -48t-27.5 -64.5t-20.5 -59.5q-3 -10 -8 -16.5
t-16 -6.5q-10 0 -14 14.5t-3 37.5q2 22 -4.5 44.5t-18.5 41.5q-16 26 -39 43t-49 17q-53 0 -98 -28.5t-79.5 -76t-59 -106.5t-37 -121.5t-12.5 -118.5q0 -37 8 -65t24 -47t40 -28t56 -9q39 0 76.5 17.5t73.5 50.5t70 77q8 11 13.5 19t12.5 8q8 0 13.5 -8t2.5 -19
q-7 -25 -18 -56.5t-24 -59.5t-24.5 -46.5t-18.5 -18.5q-10 0 -15 3.5t-11 7.5t-14.5 6.5t-24.5 2.5q-12 0 -26 -3.5t-31 -8.5q-18 -4 -41.5 -8.5t-52.5 -4.5zM239 -281q-25 0 -46.5 10.5t-34 26t-12.5 29.5q0 39 31 39q15 0 28.5 -8t26.5 -19q15 -12 24 -20t22 -8
q9 0 13.5 5.5t4.5 13.5q0 14 -10 22.5t-22 20.5q-12 11 -24.5 27t-12.5 29q0 17 20.5 41t50.5 48t59 41h41q-37 -26 -50.5 -43t-13.5 -31q0 -10 10.5 -21t22.5 -22q14 -13 23 -25t9 -25q0 -16 -15.5 -38t-39.5 -43.5t-52 -35.5t-53 -14z" />
    <glyph glyph-name="Egrave" unicode="&#xc8;" horiz-adv-x="572" 
d="M-45 -5q-9 0 -12 5t-2 11q4 15 26 21q36 11 53 21.5t27 41.5l141 456q10 32 1.5 45.5t-40.5 21.5q-11 3 -15 9t-2 12q2 7 12 11.5t32 4.5q14 0 36 -1.5t46 -3t44 -1.5l166 1q43 0 70 3.5t42.5 6.5t21.5 3q8 0 14 -5.5t6 -16.5q0 -13 -6.5 -36.5t-13 -49t-6.5 -46.5
q0 -10 -5.5 -15t-10.5 -5q-4 0 -9 4t-7 13q-7 58 -21 83t-52 25h-68q-25 0 -42 -16.5t-31 -65.5l-44 -153q-4 -13 1 -18.5t17 -5.5h84q26 0 45 17t35 45q5 9 13 13.5t14 4.5q5 0 7.5 -6t-2.5 -17q-9 -22 -17 -42.5t-14 -40.5t-11 -40t-10 -43q-4 -15 -9 -21.5t-10 -6.5
q-7 0 -12.5 7t-4.5 17q2 32 -4.5 50.5t-25.5 18.5h-97q-11 0 -18.5 -6t-10.5 -17l-50 -173q-11 -37 1.5 -57t52.5 -20h72q20 0 41 7t39 19q22 14 41 42.5t38 56.5q5 8 8.5 10t9.5 2t8.5 -5t2.5 -18q0 -11 -8.5 -37.5t-21.5 -56.5t-28 -50q-5 -7 -12.5 -9.5t-15.5 -2.5
q-4 0 -30 0.5t-65.5 1t-85.5 1t-91.5 1t-81.5 0.5q-20 0 -46.5 -1t-52.5 -2.5t-46 -1.5zM448 693q-3 0 -10.5 0.5t-17.5 4.5q-43 20 -90 43t-89 44q-18 9 -21 21q-2 8 12.5 17.5t32.5 17.5t25 10q21 6 36 -8q33 -30 60 -61t60 -58q14 -11 14 -21t-12 -10z" />
    <glyph glyph-name="Eacute" unicode="&#xc9;" horiz-adv-x="572" 
d="M-45 -5q-9 0 -12 5t-2 11q4 15 26 21q36 11 53 21.5t27 41.5l141 456q10 32 1.5 45.5t-40.5 21.5q-11 3 -15 9t-2 12q2 7 12 11.5t32 4.5q14 0 36 -1.5t46 -3t44 -1.5l166 1q43 0 70 3.5t42.5 6.5t21.5 3q8 0 14 -5.5t6 -16.5q0 -13 -6.5 -36.5t-13 -49t-6.5 -46.5
q0 -10 -5.5 -15t-10.5 -5q-4 0 -9 4t-7 13q-7 58 -21 83t-52 25h-68q-25 0 -42 -16.5t-31 -65.5l-44 -153q-4 -13 1 -18.5t17 -5.5h84q26 0 45 17t35 45q5 9 13 13.5t14 4.5q5 0 7.5 -6t-2.5 -17q-9 -22 -17 -42.5t-14 -40.5t-11 -40t-10 -43q-4 -15 -9 -21.5t-10 -6.5
q-7 0 -12.5 7t-4.5 17q2 32 -4.5 50.5t-25.5 18.5h-97q-11 0 -18.5 -6t-10.5 -17l-50 -173q-11 -37 1.5 -57t52.5 -20h72q20 0 41 7t39 19q22 14 41 42.5t38 56.5q5 8 8.5 10t9.5 2t8.5 -5t2.5 -18q0 -11 -8.5 -37.5t-21.5 -56.5t-28 -50q-5 -7 -12.5 -9.5t-15.5 -2.5
q-4 0 -30 0.5t-65.5 1t-85.5 1t-91.5 1t-81.5 0.5q-20 0 -46.5 -1t-52.5 -2.5t-46 -1.5zM360 681q-12 0 -14 8q-1 7 9 23q23 37 46.5 70.5t51.5 67.5q12 15 34 15q8 0 27.5 -4.5t35.5 -12t15 -16.5q-1 -12 -18 -24q-38 -28 -80 -59.5t-81 -57.5q-9 -6 -16 -8t-10 -2z" />
    <glyph glyph-name="Ecircumflex" unicode="&#xca;" horiz-adv-x="572" 
d="M-45 -5q-9 0 -12 5t-2 11q4 15 26 21q36 11 53 21.5t27 41.5l141 456q10 32 1.5 45.5t-40.5 21.5q-11 3 -15 9t-2 12q2 7 12 11.5t32 4.5q14 0 36 -1.5t46 -3t44 -1.5l166 1q43 0 70 3.5t42.5 6.5t21.5 3q8 0 14 -5.5t6 -16.5q0 -13 -6.5 -36.5t-13 -49t-6.5 -46.5
q0 -10 -5.5 -15t-10.5 -5q-4 0 -9 4t-7 13q-7 58 -21 83t-52 25h-68q-25 0 -42 -16.5t-31 -65.5l-44 -153q-4 -13 1 -18.5t17 -5.5h84q26 0 45 17t35 45q5 9 13 13.5t14 4.5q5 0 7.5 -6t-2.5 -17q-9 -22 -17 -42.5t-14 -40.5t-11 -40t-10 -43q-4 -15 -9 -21.5t-10 -6.5
q-7 0 -12.5 7t-4.5 17q2 32 -4.5 50.5t-25.5 18.5h-97q-11 0 -18.5 -6t-10.5 -17l-50 -173q-11 -37 1.5 -57t52.5 -20h72q20 0 41 7t39 19q22 14 41 42.5t38 56.5q5 8 8.5 10t9.5 2t8.5 -5t2.5 -18q0 -11 -8.5 -37.5t-21.5 -56.5t-28 -50q-5 -7 -12.5 -9.5t-15.5 -2.5
q-4 0 -30 0.5t-65.5 1t-85.5 1t-91.5 1t-81.5 0.5q-20 0 -46.5 -1t-52.5 -2.5t-46 -1.5zM257 692q-21 0 -16 13q3 8 14 16l133 96q23 17 35 23.5t26 6.5q15 0 23 -6.5t21 -23.5l78 -95q4 -4 4 -8.5t-1 -8.5q-3 -14 -21 -14q-9 0 -30.5 9t-45 20.5t-38.5 19.5q-12 7 -26 0
q-14 -6 -36 -14.5t-45.5 -16t-43.5 -12.5t-31 -5z" />
    <glyph glyph-name="Edieresis" unicode="&#xcb;" horiz-adv-x="572" 
d="M-45 -5q-9 0 -12 5t-2 11q4 15 26 21q36 11 53 21.5t27 41.5l141 456q10 32 1.5 45.5t-40.5 21.5q-11 3 -15 9t-2 12q2 7 12 11.5t32 4.5q14 0 36 -1.5t46 -3t44 -1.5l166 1q43 0 70 3.5t42.5 6.5t21.5 3q8 0 14 -5.5t6 -16.5q0 -13 -6.5 -36.5t-13 -49t-6.5 -46.5
q0 -10 -5.5 -15t-10.5 -5q-4 0 -9 4t-7 13q-7 58 -21 83t-52 25h-68q-25 0 -42 -16.5t-31 -65.5l-44 -153q-4 -13 1 -18.5t17 -5.5h84q26 0 45 17t35 45q5 9 13 13.5t14 4.5q5 0 7.5 -6t-2.5 -17q-9 -22 -17 -42.5t-14 -40.5t-11 -40t-10 -43q-4 -15 -9 -21.5t-10 -6.5
q-7 0 -12.5 7t-4.5 17q2 32 -4.5 50.5t-25.5 18.5h-97q-11 0 -18.5 -6t-10.5 -17l-50 -173q-11 -37 1.5 -57t52.5 -20h72q20 0 41 7t39 19q22 14 41 42.5t38 56.5q5 8 8.5 10t9.5 2t8.5 -5t2.5 -18q0 -11 -8.5 -37.5t-21.5 -56.5t-28 -50q-5 -7 -12.5 -9.5t-15.5 -2.5
q-4 0 -30 0.5t-65.5 1t-85.5 1t-91.5 1t-81.5 0.5q-20 0 -46.5 -1t-52.5 -2.5t-46 -1.5zM508 686q-27 0 -45.5 18.5t-18.5 41.5q0 37 28.5 65t72.5 28q28 0 45.5 -20t17.5 -46q0 -23 -14 -43t-36.5 -32t-49.5 -12zM310 686q-28 0 -46 18.5t-18 41.5q0 38 29 65.5t72 27.5
q27 0 44.5 -20t17.5 -46q0 -34 -29.5 -60.5t-69.5 -26.5z" />
    <glyph glyph-name="Igrave" unicode="&#xcc;" horiz-adv-x="381" 
d="M-33 -3q-6 0 -10.5 4t-2.5 11q6 17 26 22q41 9 58 20.5t27 42.5l141 454q10 32 1 44.5t-47 22.5q-8 2 -11.5 7.5t-0.5 14.5q2 7 9.5 11t13.5 4q22 0 49 -1t53 -2.5t46 -1.5t48.5 1t58 2t50.5 1q16 0 11 -15q-3 -10 -9 -14t-17 -7q-30 -8 -46.5 -16t-25 -20t-14.5 -32
l-126 -408q-12 -40 -15 -60t6.5 -28.5t31.5 -14.5q23 -6 29.5 -11t3.5 -15q-2 -7 -7.5 -11t-13.5 -4q-21 0 -52.5 1t-62 2t-50.5 1q-30 0 -74.5 -2.5t-77.5 -2.5zM376 693q-3 0 -10.5 0.5t-17.5 4.5q-43 20 -90 43t-89 44q-18 9 -21 21q-2 8 12.5 17.5t32.5 17.5t25 10
q21 6 36 -8q33 -30 60 -61t60 -58q14 -11 14 -21t-12 -10z" />
    <glyph glyph-name="Iacute" unicode="&#xcd;" horiz-adv-x="381" 
d="M-33 -3q-6 0 -10.5 4t-2.5 11q6 17 26 22q41 9 58 20.5t27 42.5l141 454q10 32 1 44.5t-47 22.5q-8 2 -11.5 7.5t-0.5 14.5q2 7 9.5 11t13.5 4q22 0 49 -1t53 -2.5t46 -1.5t48.5 1t58 2t50.5 1q16 0 11 -15q-3 -10 -9 -14t-17 -7q-30 -8 -46.5 -16t-25 -20t-14.5 -32
l-126 -408q-12 -40 -15 -60t6.5 -28.5t31.5 -14.5q23 -6 29.5 -11t3.5 -15q-2 -7 -7.5 -11t-13.5 -4q-21 0 -52.5 1t-62 2t-50.5 1q-30 0 -74.5 -2.5t-77.5 -2.5zM288 681q-12 0 -14 8q-1 7 9 23q23 37 46.5 70.5t51.5 67.5q12 15 34 15q8 0 27.5 -4.5t35.5 -12t15 -16.5
q-1 -12 -18 -24q-38 -28 -80 -59.5t-81 -57.5q-9 -6 -16 -8t-10 -2z" />
    <glyph glyph-name="Icircumflex" unicode="&#xce;" horiz-adv-x="381" 
d="M-33 -3q-6 0 -10.5 4t-2.5 11q6 17 26 22q41 9 58 20.5t27 42.5l141 454q10 32 1 44.5t-47 22.5q-8 2 -11.5 7.5t-0.5 14.5q2 7 9.5 11t13.5 4q22 0 49 -1t53 -2.5t46 -1.5t48.5 1t58 2t50.5 1q16 0 11 -15q-3 -10 -9 -14t-17 -7q-30 -8 -46.5 -16t-25 -20t-14.5 -32
l-126 -408q-12 -40 -15 -60t6.5 -28.5t31.5 -14.5q23 -6 29.5 -11t3.5 -15q-2 -7 -7.5 -11t-13.5 -4q-21 0 -52.5 1t-62 2t-50.5 1q-30 0 -74.5 -2.5t-77.5 -2.5zM185 692q-21 0 -16 13q3 8 14 16l133 96q23 17 35 23.5t26 6.5q15 0 23 -6.5t21 -23.5l78 -95q4 -4 4 -8.5
t-1 -8.5q-3 -14 -21 -14q-9 0 -30.5 9t-45 20.5t-38.5 19.5q-12 7 -26 0q-14 -6 -36 -14.5t-45.5 -16t-43.5 -12.5t-31 -5z" />
    <glyph glyph-name="Idieresis" unicode="&#xcf;" horiz-adv-x="381" 
d="M-33 -3q-6 0 -10.5 4t-2.5 11q6 17 26 22q41 9 58 20.5t27 42.5l141 454q10 32 1 44.5t-47 22.5q-8 2 -11.5 7.5t-0.5 14.5q2 7 9.5 11t13.5 4q22 0 49 -1t53 -2.5t46 -1.5t48.5 1t58 2t50.5 1q16 0 11 -15q-3 -10 -9 -14t-17 -7q-30 -8 -46.5 -16t-25 -20t-14.5 -32
l-126 -408q-12 -40 -15 -60t6.5 -28.5t31.5 -14.5q23 -6 29.5 -11t3.5 -15q-2 -7 -7.5 -11t-13.5 -4q-21 0 -52.5 1t-62 2t-50.5 1q-30 0 -74.5 -2.5t-77.5 -2.5zM436 686q-27 0 -45.5 18.5t-18.5 41.5q0 37 28.5 65t72.5 28q28 0 45.5 -20t17.5 -46q0 -23 -14 -43
t-36.5 -32t-49.5 -12zM238 686q-28 0 -46 18.5t-18 41.5q0 38 29 65.5t72 27.5q27 0 44.5 -20t17.5 -46q0 -34 -29.5 -60.5t-69.5 -26.5z" />
    <glyph glyph-name="Eth" unicode="&#xd0;" horiz-adv-x="729" 
d="M58 304q-13 0 -15 10.5t1 20.5q4 14 14.5 22.5t23.5 8.5h301q10 0 16 -6t2 -13q-10 -19 -26.5 -31t-30.5 -12h-286zM303 -7q-40 0 -80.5 3t-72 5.5t-44.5 2.5q-20 0 -47.5 -1.5t-56 -3.5t-50.5 -2q-6 0 -10.5 4t-2.5 11q6 17 26 22q27 6 43.5 12.5t26 18.5t15.5 32
l141 454q6 23 4 35t-14 19t-36 13q-8 2 -11.5 7.5t-0.5 14.5q2 7 9.5 11t13.5 4q33 0 75.5 -2.5t72.5 -2.5q20 0 41 1t47.5 2t61.5 1q94 0 158 -37t97 -98.5t33 -133.5q0 -79 -34.5 -149.5t-95 -125t-140 -86t-169.5 -31.5zM302 31q50 0 97.5 32.5t85.5 86t60.5 119.5
t22.5 133q0 79 -17 125.5t-47.5 67t-69.5 20.5q-19 0 -33 -4t-22.5 -13.5t-13.5 -25.5l-135 -453q-10 -33 0.5 -52.5t31.5 -27.5t40 -8z" />
    <glyph glyph-name="Ntilde" unicode="&#xd1;" horiz-adv-x="783" 
d="M3 -3q-6 0 -13 4t-5 11q3 9 12 13.5t19 7.5q30 8 50.5 28t33.5 54l151 395q14 37 8.5 60t-28.5 35t-63 15q-13 2 -20 7t-7 15q0 6 11 11t22 5q21 0 55.5 -1t73 -2.5t69.5 -1.5q14 0 22.5 -5.5t13.5 -16.5l191 -432q2 -4 4.5 -8t5.5 -4q7 0 12 14q3 7 7.5 21.5t11 35.5
t14 47.5t15.5 56.5t15.5 62.5t13.5 65.5q14 68 -4.5 94.5t-73.5 36.5q-17 3 -16 15q1 7 10 11t16 4q41 0 71 -3t44 -3q20 0 38.5 2t39.5 3.5t46 1.5q19 0 19 -15q0 -7 -11.5 -11.5t-22.5 -6.5q-24 -5 -41 -14.5t-30.5 -32.5t-27.5 -67q-6 -20 -13.5 -44.5t-16 -52.5
t-17.5 -58.5t-19 -62.5t-19.5 -64.5t-19.5 -64.5q-10 -31 -8.5 -48.5t14.5 -40.5q5 -7 10.5 -17.5t12.5 -17.5q8 -7 13.5 -10t5.5 -8q0 -10 -5.5 -13t-16.5 -3q-29 0 -48 -2t-34.5 -3.5t-35.5 -2.5q-31 -1 -46 14t-27 46q-6 16 -22 54.5t-36.5 88t-42 101t-39.5 95t-29 70
t-11 25.5q-1 2 -3.5 6t-4.5 4q-4 0 -7.5 -7t-5.5 -12q-13 -32 -31 -79.5t-36 -100t-32.5 -101t-22.5 -83.5q-8 -38 4 -53t54 -26q8 -2 15.5 -6.5t4.5 -14.5q-2 -7 -11.5 -11t-17.5 -4q-27 0 -42.5 1t-26.5 1.5t-27 0.5q-23 0 -49 -1t-44.5 -2zM409 691q-5 0 -12 6.5t-7 9.5
q0 6 9 22.5t22.5 35.5t26 32.5t19.5 13.5q19 0 41.5 -1.5t44.5 -2.5q19 -1 41 -2t47 -1q11 0 19.5 6.5t15.5 13.5q8 8 12.5 15t7.5 7q5 0 14 -7t9 -12q0 -4 -4.5 -11t-13.5 -20q-11 -16 -20.5 -31.5t-18.5 -29.5q-6 -9 -15 -11.5t-16 -2.5q-9 0 -33 2t-53.5 4t-54.5 4t-34 2
q-8 0 -15.5 -6.5t-13.5 -14.5t-11 -14.5t-7 -6.5z" />
    <glyph glyph-name="Ograve" unicode="&#xd2;" horiz-adv-x="692" 
d="M292 -14q-67 0 -121 32t-86 90t-32 134q0 83 32.5 159t90 135t133 93.5t161.5 34.5q67 0 121.5 -32t86.5 -89.5t32 -134.5q0 -82 -33 -158t-90.5 -135.5t-133 -94t-161.5 -34.5zM291 25q41 0 80 30.5t73 81t60 110.5t40.5 119t14.5 107q0 42 -9.5 77.5t-29.5 57t-51 21.5
q-41 0 -80 -31t-72.5 -82t-59 -111.5t-40 -120.5t-14.5 -108q0 -41 9 -75.5t28.5 -55t50.5 -20.5zM550 693q-3 0 -10.5 0.5t-17.5 4.5q-43 20 -90 43t-89 44q-18 9 -21 21q-2 8 12.5 17.5t32.5 17.5t25 10q21 6 36 -8q33 -30 60 -61t60 -58q14 -11 14 -21t-12 -10z" />
    <glyph glyph-name="Oacute" unicode="&#xd3;" horiz-adv-x="692" 
d="M292 -14q-67 0 -121 32t-86 90t-32 134q0 83 32.5 159t90 135t133 93.5t161.5 34.5q67 0 121.5 -32t86.5 -89.5t32 -134.5q0 -82 -33 -158t-90.5 -135.5t-133 -94t-161.5 -34.5zM291 25q41 0 80 30.5t73 81t60 110.5t40.5 119t14.5 107q0 42 -9.5 77.5t-29.5 57t-51 21.5
q-41 0 -80 -31t-72.5 -82t-59 -111.5t-40 -120.5t-14.5 -108q0 -41 9 -75.5t28.5 -55t50.5 -20.5zM462 681q-12 0 -14 8q-1 7 9 23q23 37 46.5 70.5t51.5 67.5q12 15 34 15q8 0 27.5 -4.5t35.5 -12t15 -16.5q-1 -12 -18 -24q-38 -28 -80 -59.5t-81 -57.5q-9 -6 -16 -8
t-10 -2z" />
    <glyph glyph-name="Ocircumflex" unicode="&#xd4;" horiz-adv-x="692" 
d="M292 -14q-67 0 -121 32t-86 90t-32 134q0 83 32.5 159t90 135t133 93.5t161.5 34.5q67 0 121.5 -32t86.5 -89.5t32 -134.5q0 -82 -33 -158t-90.5 -135.5t-133 -94t-161.5 -34.5zM291 25q41 0 80 30.5t73 81t60 110.5t40.5 119t14.5 107q0 42 -9.5 77.5t-29.5 57t-51 21.5
q-41 0 -80 -31t-72.5 -82t-59 -111.5t-40 -120.5t-14.5 -108q0 -41 9 -75.5t28.5 -55t50.5 -20.5zM359 692q-21 0 -16 13q3 8 14 16l133 96q23 17 35 23.5t26 6.5q15 0 23 -6.5t21 -23.5l78 -95q4 -4 4 -8.5t-1 -8.5q-3 -14 -21 -14q-9 0 -30.5 9t-45 20.5t-38.5 19.5
q-12 7 -26 0q-14 -6 -36 -14.5t-45.5 -16t-43.5 -12.5t-31 -5z" />
    <glyph glyph-name="Otilde" unicode="&#xd5;" horiz-adv-x="692" 
d="M292 -14q-67 0 -121 32t-86 90t-32 134q0 83 32.5 159t90 135t133 93.5t161.5 34.5q67 0 121.5 -32t86.5 -89.5t32 -134.5q0 -82 -33 -158t-90.5 -135.5t-133 -94t-161.5 -34.5zM291 25q41 0 80 30.5t73 81t60 110.5t40.5 119t14.5 107q0 42 -9.5 77.5t-29.5 57t-51 21.5
q-41 0 -80 -31t-72.5 -82t-59 -111.5t-40 -120.5t-14.5 -108q0 -41 9 -75.5t28.5 -55t50.5 -20.5zM379 691q-5 0 -12 6.5t-7 9.5q0 6 9 22.5t22.5 35.5t26 32.5t19.5 13.5q19 0 41.5 -1.5t44.5 -2.5q19 -1 41 -2t47 -1q11 0 19.5 6.5t15.5 13.5q8 8 12.5 15t7.5 7q5 0 14 -7
t9 -12q0 -4 -4.5 -11t-13.5 -20q-11 -16 -20.5 -31.5t-18.5 -29.5q-6 -9 -15 -11.5t-16 -2.5q-9 0 -33 2t-53.5 4t-54.5 4t-34 2q-8 0 -15.5 -6.5t-13.5 -14.5t-11 -14.5t-7 -6.5z" />
    <glyph glyph-name="Odieresis" unicode="&#xd6;" horiz-adv-x="692" 
d="M292 -14q-67 0 -121 32t-86 90t-32 134q0 83 32.5 159t90 135t133 93.5t161.5 34.5q67 0 121.5 -32t86.5 -89.5t32 -134.5q0 -82 -33 -158t-90.5 -135.5t-133 -94t-161.5 -34.5zM291 25q41 0 80 30.5t73 81t60 110.5t40.5 119t14.5 107q0 42 -9.5 77.5t-29.5 57t-51 21.5
q-41 0 -80 -31t-72.5 -82t-59 -111.5t-40 -120.5t-14.5 -108q0 -41 9 -75.5t28.5 -55t50.5 -20.5zM610 686q-27 0 -45.5 18.5t-18.5 41.5q0 37 28.5 65t72.5 28q28 0 45.5 -20t17.5 -46q0 -23 -14 -43t-36.5 -32t-49.5 -12zM412 686q-28 0 -46 18.5t-18 41.5q0 38 29 65.5
t72 27.5q27 0 44.5 -20t17.5 -46q0 -34 -29.5 -60.5t-69.5 -26.5z" />
    <glyph glyph-name="multiply" unicode="&#xd7;" horiz-adv-x="568" 
d="M464 49q-10 0 -19 9l-142 141q-9 9 -19 -1l-134 -135q-4 -4 -9 -6.5t-10 -2.5q-7 0 -15.5 14.5t-8.5 29.5q0 12 6 18l127 126q6 6 6 10t-6 10l-131 133q-6 6 -6 14q0 12 7 24t13 18q4 4 11 3t11 -6l140 -142q5 -4 9 -4.5t9 4.5l142 142q6 6 13 6q6 0 9 -3q6 -6 13 -18
t7 -24q0 -8 -6 -14l-133 -134q-9 -9 0 -18l134 -132q7 -7 7 -19q0 -10 -7 -26.5t-18 -16.5z" />
    <glyph glyph-name="Oslash" unicode="&#xd8;" horiz-adv-x="692" 
d="M18 -14q-19 0 -31.5 14t-12.5 27q0 23 18 36l124 99l56 37l409 338l42 25l114 90q8 6 15 9t13 3q13 0 21 -10.5t8 -24.5q0 -28 -17 -42l-110 -88l-75 -53l-409 -343l-39 -24l-101 -83q-6 -5 -12 -7.5t-13 -2.5zM292 -14q-67 0 -121 32t-86 90t-32 134q0 83 32.5 159
t90 135t133 93.5t161.5 34.5q67 0 121.5 -32t86.5 -89.5t32 -134.5q0 -82 -33 -158t-90.5 -135.5t-133 -94t-161.5 -34.5zM291 25q41 0 80 30.5t73 81t60 110.5t40.5 119t14.5 107q0 42 -9.5 77.5t-29.5 57t-51 21.5q-41 0 -80 -31t-72.5 -82t-59 -111.5t-40 -120.5
t-14.5 -108q0 -41 9 -75.5t28.5 -55t50.5 -20.5z" />
    <glyph glyph-name="Ugrave" unicode="&#xd9;" horiz-adv-x="715" 
d="M318 -14q-68 0 -117 20t-77.5 56.5t-34.5 86t12 107.5l87 280q8 26 3 50.5t-30 31.5q-24 7 -20 22q2 7 11 11t20 4q33 0 69 -2.5t66 -2.5q29 0 73 2t75 2q27 0 22 -15q-4 -12 -22.5 -17.5t-36.5 -13.5q-18 -7 -34 -25.5t-27 -52.5l-95 -293q-16 -49 -4.5 -87.5t41.5 -60
t69 -21.5q51 0 94.5 26.5t76 70t49.5 95.5q16 45 27.5 82t19.5 63.5t11 39.5q14 59 15 92.5t-7 50.5t-22 26q-10 6 -24.5 10.5t-11.5 14.5q2 8 11 11.5t23 3.5q26 0 41.5 -1t28.5 -1.5t31 -0.5q19 0 31 1t24.5 2t33.5 1q11 0 17 -3t3 -12q-4 -14 -33 -22q-25 -6 -41 -16.5
t-26 -26.5t-19 -41q-25 -73 -45 -139.5t-43 -137.5q-25 -81 -66 -142t-102 -95t-147 -34zM592 693q-3 0 -10.5 0.5t-17.5 4.5q-43 20 -90 43t-89 44q-18 9 -21 21q-2 8 12.5 17.5t32.5 17.5t25 10q21 6 36 -8q33 -30 60 -61t60 -58q14 -11 14 -21t-12 -10z" />
    <glyph glyph-name="Uacute" unicode="&#xda;" horiz-adv-x="715" 
d="M318 -14q-68 0 -117 20t-77.5 56.5t-34.5 86t12 107.5l87 280q8 26 3 50.5t-30 31.5q-24 7 -20 22q2 7 11 11t20 4q33 0 69 -2.5t66 -2.5q29 0 73 2t75 2q27 0 22 -15q-4 -12 -22.5 -17.5t-36.5 -13.5q-18 -7 -34 -25.5t-27 -52.5l-95 -293q-16 -49 -4.5 -87.5t41.5 -60
t69 -21.5q51 0 94.5 26.5t76 70t49.5 95.5q16 45 27.5 82t19.5 63.5t11 39.5q14 59 15 92.5t-7 50.5t-22 26q-10 6 -24.5 10.5t-11.5 14.5q2 8 11 11.5t23 3.5q26 0 41.5 -1t28.5 -1.5t31 -0.5q19 0 31 1t24.5 2t33.5 1q11 0 17 -3t3 -12q-4 -14 -33 -22q-25 -6 -41 -16.5
t-26 -26.5t-19 -41q-25 -73 -45 -139.5t-43 -137.5q-25 -81 -66 -142t-102 -95t-147 -34zM504 681q-12 0 -14 8q-1 7 9 23q23 37 46.5 70.5t51.5 67.5q12 15 34 15q8 0 27.5 -4.5t35.5 -12t15 -16.5q-1 -12 -18 -24q-38 -28 -80 -59.5t-81 -57.5q-9 -6 -16 -8t-10 -2z" />
    <glyph glyph-name="Ucircumflex" unicode="&#xdb;" horiz-adv-x="715" 
d="M318 -14q-68 0 -117 20t-77.5 56.5t-34.5 86t12 107.5l87 280q8 26 3 50.5t-30 31.5q-24 7 -20 22q2 7 11 11t20 4q33 0 69 -2.5t66 -2.5q29 0 73 2t75 2q27 0 22 -15q-4 -12 -22.5 -17.5t-36.5 -13.5q-18 -7 -34 -25.5t-27 -52.5l-95 -293q-16 -49 -4.5 -87.5t41.5 -60
t69 -21.5q51 0 94.5 26.5t76 70t49.5 95.5q16 45 27.5 82t19.5 63.5t11 39.5q14 59 15 92.5t-7 50.5t-22 26q-10 6 -24.5 10.5t-11.5 14.5q2 8 11 11.5t23 3.5q26 0 41.5 -1t28.5 -1.5t31 -0.5q19 0 31 1t24.5 2t33.5 1q11 0 17 -3t3 -12q-4 -14 -33 -22q-25 -6 -41 -16.5
t-26 -26.5t-19 -41q-25 -73 -45 -139.5t-43 -137.5q-25 -81 -66 -142t-102 -95t-147 -34zM401 692q-21 0 -16 13q3 8 14 16l133 96q23 17 35 23.5t26 6.5q15 0 23 -6.5t21 -23.5l78 -95q4 -4 4 -8.5t-1 -8.5q-3 -14 -21 -14q-9 0 -30.5 9t-45 20.5t-38.5 19.5q-12 7 -26 0
q-14 -6 -36 -14.5t-45.5 -16t-43.5 -12.5t-31 -5z" />
    <glyph glyph-name="Udieresis" unicode="&#xdc;" horiz-adv-x="715" 
d="M318 -14q-68 0 -117 20t-77.5 56.5t-34.5 86t12 107.5l87 280q8 26 3 50.5t-30 31.5q-24 7 -20 22q2 7 11 11t20 4q33 0 69 -2.5t66 -2.5q29 0 73 2t75 2q27 0 22 -15q-4 -12 -22.5 -17.5t-36.5 -13.5q-18 -7 -34 -25.5t-27 -52.5l-95 -293q-16 -49 -4.5 -87.5t41.5 -60
t69 -21.5q51 0 94.5 26.5t76 70t49.5 95.5q16 45 27.5 82t19.5 63.5t11 39.5q14 59 15 92.5t-7 50.5t-22 26q-10 6 -24.5 10.5t-11.5 14.5q2 8 11 11.5t23 3.5q26 0 41.5 -1t28.5 -1.5t31 -0.5q19 0 31 1t24.5 2t33.5 1q11 0 17 -3t3 -12q-4 -14 -33 -22q-25 -6 -41 -16.5
t-26 -26.5t-19 -41q-25 -73 -45 -139.5t-43 -137.5q-25 -81 -66 -142t-102 -95t-147 -34zM652 686q-27 0 -45.5 18.5t-18.5 41.5q0 37 28.5 65t72.5 28q28 0 45.5 -20t17.5 -46q0 -23 -14 -43t-36.5 -32t-49.5 -12zM454 686q-28 0 -46 18.5t-18 41.5q0 38 29 65.5t72 27.5
q27 0 44.5 -20t17.5 -46q0 -34 -29.5 -60.5t-69.5 -26.5z" />
    <glyph glyph-name="Yacute" unicode="&#xdd;" horiz-adv-x="669" 
d="M119 -6q-13 0 -18.5 5t-3.5 12q2 9 13 14.5t22 7.5q41 8 61 27t29 50l42 136q10 30 9.5 54t-8.5 53l-61 201q-7 20 -17 36t-29 23t-26 11.5t-4 14.5q2 8 9.5 11.5t14.5 3.5q47 0 83 -3t81 -3q29 0 61 3.5t69 3.5q8 0 16 -4t6 -11q-2 -9 -13.5 -14.5t-20.5 -7.5
q-49 -11 -62.5 -27.5t-6.5 -47.5l42 -187q4 -15 7 -19t7 -4t9 4t12 13q34 41 71.5 89.5t73.5 92.5q27 32 25.5 55.5t-44.5 30.5q-10 2 -18.5 7.5t-5.5 14.5q2 7 13 10.5t21 3.5q23 0 46.5 -2.5t51.5 -2.5q31 0 56.5 4t55.5 4q11 0 19 -3.5t5 -13.5t-12.5 -13.5t-19.5 -6.5
q-21 -5 -42 -14t-38.5 -21t-29.5 -26q-30 -35 -59 -68l-58 -66t-60 -67q-18 -19 -31.5 -43.5t-23.5 -55.5l-45 -148q-12 -38 -3 -52.5t44 -25.5q11 -3 18.5 -7t4.5 -14q-2 -7 -11 -12t-20 -5q-21 0 -49.5 2t-56.5 4t-48 2t-47.5 -2t-55.5 -4.5t-50 -2.5zM468 681
q-12 0 -14 8q-1 7 9 23q23 37 46.5 70.5t51.5 67.5q12 15 34 15q8 0 27.5 -4.5t35.5 -12t15 -16.5q-1 -12 -18 -24q-38 -28 -80 -59.5t-81 -57.5q-9 -6 -16 -8t-10 -2z" />
    <glyph glyph-name="Thorn" unicode="&#xde;" horiz-adv-x="629" 
d="M-33 -3q-6 0 -10.5 4t-2.5 11q6 17 26 22q41 9 58 20.5t27 42.5l141 454q10 32 1 44.5t-47 22.5q-8 2 -11.5 7.5t-0.5 14.5q2 7 9.5 11t13.5 4q22 0 49 -1t53 -2.5t46 -1.5t48.5 1t58 2t50.5 1q16 0 11 -15q-3 -10 -9 -14t-17 -7q-30 -8 -46.5 -16t-25 -20t-14.5 -32
l-6 -21l-81 22q24 2 58 4.5t74 2.5q70 0 119.5 -25.5t75.5 -70t23 -102.5q-2 -48 -26 -90t-65.5 -73.5t-97 -49.5t-119.5 -18q-27 0 -37 6t-10 18q0 7 6.5 11t15.5 5q10 2 18.5 3t21.5 2q40 5 67.5 27t44.5 52.5t24.5 61t7.5 52.5q0 58 -13.5 90t-34.5 45t-42 13
q-13 0 -22.5 -6t-18.5 -25t-22 -59l-101 -327q-8 -28 1.5 -39t44.5 -25q8 -3 11.5 -7t0.5 -14q-2 -7 -7.5 -11t-13.5 -4q-21 0 -49.5 1t-56 2t-47.5 1q-30 0 -74.5 -2.5t-77.5 -2.5z" />
    <glyph glyph-name="germandbls" unicode="&#xdf;" horiz-adv-x="580" 
d="M-92 -291q-31 0 -60.5 6.5t-48 23.5t-18.5 46q0 27 17 46.5t37 19.5q10 0 20 -11t20 -25q12 -16 25 -36.5t32 -20.5q25 0 39.5 29.5t31.5 102.5q8 33 15.5 65.5t15.5 65.5t15.5 66t15.5 66q11 48 23 96.5t23 97.5q31 130 95.5 208.5t150.5 114.5t180 36q80 0 115.5 -22.5
t35.5 -60.5q0 -28 -14.5 -50.5t-37.5 -41.5t-48.5 -35t-47.5 -30q-25 -17 -48 -33t-37 -34.5t-14 -41.5q0 -15 8 -33.5t19 -37.5t20 -38q14 -27 30 -55t16 -55q0 -21 -19.5 -50.5t-51.5 -55.5q-25 -19 -56.5 -32.5t-64.5 -13.5q-44 0 -73 19.5t-29 50.5q0 23 12 43t32 20
q12 0 24 -11.5t20 -24.5q12 -16 24 -32.5t28 -16.5q14 0 23.5 10t9.5 25q0 21 -10.5 45t-26.5 47q-19 28 -33 56t-14 56q0 42 17 74t43.5 57.5t52.5 46.5q28 23 50.5 43t38.5 39.5t24.5 39t8.5 41.5q0 24 -14.5 39.5t-48.5 15.5q-42 0 -78.5 -19.5t-66 -56t-52 -87.5
t-36.5 -115q-12 -54 -27 -120.5t-30.5 -133t-27.5 -120.5q-15 -69 -44 -125.5t-67 -97.5t-80.5 -63t-83.5 -22z" />
    <glyph glyph-name="agrave" unicode="&#xe0;" horiz-adv-x="552" 
d="M36 -14q-14 0 -29 8t-25 20.5t-10 23.5q0 29 16.5 63.5t57.5 87t114 136.5q41 47 80 77t58 30q29 0 66 -29q5 -5 6.5 -6t2.5 -1q2 0 2.5 0.5t3.5 6.5q6 12 9 18.5t6 13.5q5 12 27 12q17 0 36 -8t32.5 -19t13.5 -21q0 -6 -1 -7l-97 -266q-8 -24 10 -24q10 0 33.5 17
t48.5 42l3 3h1q5 0 9 -5t4 -12q0 -16 -20 -41.5t-53 -52.5q-38 -31 -74.5 -49t-59.5 -18q-16 0 -33 9t-28 22.5t-11 26.5q0 6 5 23q3 9 7 19l8 20t8.5 20t8.5 20q2 4 -2 6t-6 0q-49 -57 -90.5 -94t-75 -54.5t-62.5 -17.5zM152 101q16 0 51.5 30.5t70.5 74.5q31 38 49 67.5
t18 41.5q0 9 -22 27q-10 8 -21 13.5t-18 5.5q-15 0 -41 -18t-49 -41q-18 -18 -33.5 -46.5t-25 -60t-9.5 -58.5q0 -17 8 -26.5t22 -9.5zM348 469q13 0 14 11.5t-4 22.5l-73 162q-9 20 -18 28.5t-21 8.5q-11 0 -26 -9t-26 -21t-11 -22t6 -20t17 -21l111 -123q7 -7 15 -12
t16 -5z" />
    <glyph glyph-name="aacute" unicode="&#xe1;" horiz-adv-x="552" 
d="M36 -14q-14 0 -29 8t-25 20.5t-10 23.5q0 29 16.5 63.5t57.5 87t114 136.5q41 47 80 77t58 30q29 0 66 -29q5 -5 6.5 -6t2.5 -1q2 0 2.5 0.5t3.5 6.5q6 12 9 18.5t6 13.5q5 12 27 12q17 0 36 -8t32.5 -19t13.5 -21q0 -6 -1 -7l-97 -266q-8 -24 10 -24q10 0 33.5 17
t48.5 42l3 3h1q5 0 9 -5t4 -12q0 -16 -20 -41.5t-53 -52.5q-38 -31 -74.5 -49t-59.5 -18q-16 0 -33 9t-28 22.5t-11 26.5q0 6 5 23q3 9 7 19l8 20t8.5 20t8.5 20q2 4 -2 6t-6 0q-49 -57 -90.5 -94t-75 -54.5t-62.5 -17.5zM152 101q16 0 51.5 30.5t70.5 74.5q31 38 49 67.5
t18 41.5q0 9 -22 27q-10 8 -21 13.5t-18 5.5q-15 0 -41 -18t-49 -41q-18 -18 -33.5 -46.5t-25 -60t-9.5 -58.5q0 -17 8 -26.5t22 -9.5zM320 469q-13 0 -14 11.5t4 22.5l73 162q9 20 18 28.5t21 8.5q11 0 26 -9t26 -21t11 -22t-6 -20t-17 -21l-111 -123q-7 -7 -15 -12t-16 -5
z" />
    <glyph glyph-name="acircumflex" unicode="&#xe2;" horiz-adv-x="552" 
d="M36 -14q-14 0 -29 8t-25 20.5t-10 23.5q0 29 16.5 63.5t57.5 87t114 136.5q41 47 80 77t58 30q29 0 66 -29q5 -5 6.5 -6t2.5 -1q2 0 2.5 0.5t3.5 6.5q6 12 9 18.5t6 13.5q5 12 27 12q17 0 36 -8t32.5 -19t13.5 -21q0 -6 -1 -7l-97 -266q-8 -24 10 -24q10 0 33.5 17
t48.5 42l3 3h1q5 0 9 -5t4 -12q0 -16 -20 -41.5t-53 -52.5q-38 -31 -74.5 -49t-59.5 -18q-16 0 -33 9t-28 22.5t-11 26.5q0 6 5 23q3 9 7 19l8 20t8.5 20t8.5 20q2 4 -2 6t-6 0q-49 -57 -90.5 -94t-75 -54.5t-62.5 -17.5zM152 101q16 0 51.5 30.5t70.5 74.5q31 38 49 67.5
t18 41.5q0 9 -22 27q-10 8 -21 13.5t-18 5.5q-15 0 -41 -18t-49 -41q-18 -18 -33.5 -46.5t-25 -60t-9.5 -58.5q0 -17 8 -26.5t22 -9.5zM403 698q10 0 15 -10.5t11 -32.5q4 -17 9.5 -33.5t10.5 -33t9.5 -33t7.5 -33.5q4 -18 -1 -31.5t-21 -13.5t-32 35q-6 13 -15.5 30
t-22.5 37q-4 6 -12 0q-23 -20 -45 -38t-36 -30q-20 -17 -33 -25.5t-20 -8.5q-11 0 -11 13q0 6 3.5 14t11.5 18q19 22 39 44.5l40 45t40 45.5q17 19 29 30t23 11z" />
    <glyph glyph-name="atilde" unicode="&#xe3;" horiz-adv-x="552" 
d="M36 -14q-14 0 -29 8t-25 20.5t-10 23.5q0 29 16.5 63.5t57.5 87t114 136.5q41 47 80 77t58 30q29 0 66 -29q5 -5 6.5 -6t2.5 -1q2 0 2.5 0.5t3.5 6.5q6 12 9 18.5t6 13.5q5 12 27 12q17 0 36 -8t32.5 -19t13.5 -21q0 -6 -1 -7l-97 -266q-8 -24 10 -24q10 0 33.5 17
t48.5 42l3 3h1q5 0 9 -5t4 -12q0 -16 -20 -41.5t-53 -52.5q-38 -31 -74.5 -49t-59.5 -18q-16 0 -33 9t-28 22.5t-11 26.5q0 6 5 23q3 9 7 19l8 20t8.5 20t8.5 20q2 4 -2 6t-6 0q-49 -57 -90.5 -94t-75 -54.5t-62.5 -17.5zM152 101q16 0 51.5 30.5t70.5 74.5q31 38 49 67.5
t18 41.5q0 9 -22 27q-10 8 -21 13.5t-18 5.5q-15 0 -41 -18t-49 -41q-18 -18 -33.5 -46.5t-25 -60t-9.5 -58.5q0 -17 8 -26.5t22 -9.5zM218 467q-4 0 -13.5 8t-9.5 12q0 6 12 24t29 39.5t32.5 37t21.5 15.5q10 0 24 -3t48 -5q23 -1 42 -2.5t28 -1.5q18 0 35 20
q10 12 14.5 18.5t8.5 6.5q5 0 14 -7.5t9 -12.5q0 -4 -6 -12t-15 -21q-11 -16 -22.5 -34.5t-20.5 -32.5q-6 -9 -15 -11.5t-16 -2.5q-9 0 -30 1.5t-46 3t-46.5 3t-30.5 1.5q-11 0 -19 -11q-13 -18 -18.5 -25.5t-9.5 -7.5z" />
    <glyph glyph-name="adieresis" unicode="&#xe4;" horiz-adv-x="552" 
d="M36 -14q-14 0 -29 8t-25 20.5t-10 23.5q0 29 16.5 63.5t57.5 87t114 136.5q41 47 80 77t58 30q29 0 66 -29q5 -5 6.5 -6t2.5 -1q2 0 2.5 0.5t3.5 6.5q6 12 9 18.5t6 13.5q5 12 27 12q17 0 36 -8t32.5 -19t13.5 -21q0 -6 -1 -7l-97 -266q-8 -24 10 -24q10 0 33.5 17
t48.5 42l3 3h1q5 0 9 -5t4 -12q0 -16 -20 -41.5t-53 -52.5q-38 -31 -74.5 -49t-59.5 -18q-16 0 -33 9t-28 22.5t-11 26.5q0 6 5 23q3 9 7 19l8 20t8.5 20t8.5 20q2 4 -2 6t-6 0q-49 -57 -90.5 -94t-75 -54.5t-62.5 -17.5zM152 101q16 0 51.5 30.5t70.5 74.5q31 38 49 67.5
t18 41.5q0 9 -22 27q-10 8 -21 13.5t-18 5.5q-15 0 -41 -18t-49 -41q-18 -18 -33.5 -46.5t-25 -60t-9.5 -58.5q0 -17 8 -26.5t22 -9.5zM438 490q-25 0 -40 16t-15 42q0 27 15 48.5t38.5 34t49.5 12.5q28 0 43.5 -15.5t15.5 -41.5q0 -39 -31.5 -67.5t-75.5 -28.5zM234 490
q-25 0 -40 16t-15 42q0 27 15 48.5t38.5 34t49.5 12.5q28 0 43.5 -15.5t15.5 -41.5q0 -39 -31.5 -67.5t-75.5 -28.5z" />
    <glyph glyph-name="aring" unicode="&#xe5;" horiz-adv-x="552" 
d="M36 -14q-14 0 -29 8t-25 20.5t-10 23.5q0 29 16.5 63.5t57.5 87t114 136.5q41 47 80 77t58 30q29 0 66 -29q5 -5 6.5 -6t2.5 -1q2 0 2.5 0.5t3.5 6.5q6 12 9 18.5t6 13.5q5 12 27 12q17 0 36 -8t32.5 -19t13.5 -21q0 -6 -1 -7l-97 -266q-8 -24 10 -24q10 0 33.5 17
t48.5 42l3 3h1q5 0 9 -5t4 -12q0 -16 -20 -41.5t-53 -52.5q-38 -31 -74.5 -49t-59.5 -18q-16 0 -33 9t-28 22.5t-11 26.5q0 6 5 23q3 9 7 19l8 20t8.5 20t8.5 20q2 4 -2 6t-6 0q-49 -57 -90.5 -94t-75 -54.5t-62.5 -17.5zM152 101q16 0 51.5 30.5t70.5 74.5q31 38 49 67.5
t18 41.5q0 9 -22 27q-10 8 -21 13.5t-18 5.5q-15 0 -41 -18t-49 -41q-18 -18 -33.5 -46.5t-25 -60t-9.5 -58.5q0 -17 8 -26.5t22 -9.5zM337 480q-34 0 -61 17.5t-27 48.5q0 37 19.5 67.5t53 48.5t73.5 18q34 0 61 -17.5t27 -49.5q0 -36 -19 -66t-52 -48.5t-75 -18.5z
M352 518q18 0 32.5 14.5t23 34t8.5 34.5q0 17 -9.5 27t-26.5 10q-18 0 -32.5 -13.5t-23.5 -32t-9 -34.5q0 -17 9.5 -28.5t27.5 -11.5z" />
    <glyph glyph-name="ae" unicode="&#xe6;" horiz-adv-x="575" 
d="M35 -14q-11 0 -25 6t-24.5 18t-10.5 29q0 50 29 103t79 103.5t111 89.5q41 26 82 47.5t82 34t82 12.5l-74 -71q-41 -1 -77.5 -11.5t-78.5 -40.5q-25 -18 -46 -45.5t-33 -57.5t-12 -56t8 -36t19 -10q14 0 37.5 21t49.5 51l13 -39q-46 -52 -81.5 -85t-66 -48t-63.5 -15z
M347 -15q-25 0 -54.5 17t-50 48.5t-20.5 73.5q0 61 19 117.5t53.5 100.5t80 69.5t98.5 25.5q55 0 79.5 -23t24.5 -55q0 -35 -22 -61.5t-55.5 -43.5t-69 -24t-63.5 -3q-8 1 -8 -9t-2 -18t-2 -18q0 -34 21.5 -61.5t50.5 -27.5q23 0 44 13t40 39q11 12 16 12q8 0 8 -11
q0 -3 -0.5 -7.5t-2.5 -7.5q-16 -37 -42 -70.5t-61.5 -54.5t-81.5 -21zM375 262q9 0 25 6t33.5 19t30 33t13.5 48q0 11 -4 21t-17 10t-25.5 -9t-23.5 -26t-20.5 -41.5t-17.5 -54.5q-1 -6 6 -6z" />
    <glyph glyph-name="ccedilla" unicode="&#xe7;" horiz-adv-x="378" 
d="M154 -14q-41 0 -74 19.5t-52.5 52t-18.5 71.5q1 51 15.5 97.5t40 85t59 66.5t74 43.5t84.5 15.5q41 0 67 -18.5t26 -47.5q0 -20 -14 -39t-29 -19q-8 0 -14 6t-18 26q-10 19 -23.5 32.5t-25.5 13.5q-21 0 -40 -17t-34.5 -45.5t-24.5 -64t-10 -73.5t19.5 -60.5t55.5 -22.5
q26 0 50.5 12.5t40.5 34.5q4 5 9.5 8.5t9.5 3.5q10 0 10 -11q0 -28 -16.5 -58t-44 -55.5t-59.5 -41t-63 -15.5zM52 -281q-25 0 -46.5 10.5t-34 26t-12.5 29.5q0 39 31 39q15 0 28.5 -8t26.5 -19q15 -12 24 -20t22 -8q9 0 13.5 5.5t4.5 13.5q0 14 -10 22.5t-22 20.5
q-12 11 -24.5 27t-12.5 29q0 17 20.5 41t50.5 48t59 41h41q-37 -26 -50.5 -43t-13.5 -31q0 -10 10.5 -21t22.5 -22q14 -13 23 -25t9 -25q0 -16 -15.5 -38t-39.5 -43.5t-52 -35.5t-53 -14z" />
    <glyph glyph-name="egrave" unicode="&#xe8;" horiz-adv-x="389" 
d="M142 -15q-28 0 -60 16.5t-54.5 45t-22.5 64.5q0 65 23.5 123.5t62.5 104t87.5 72t97.5 26.5q63 0 90.5 -23.5t27.5 -54.5q0 -35 -23 -59.5t-59 -42t-77.5 -28.5t-77.5 -19q-4 -1 -6 -3t-3 -6t-1.5 -8.5t-1.5 -9.5q-1 -35 19.5 -62.5t61.5 -27.5q26 0 49 13.5t47 38.5
q11 12 17 12q9 0 9 -11q0 -3 -0.5 -7.5t-2.5 -7.5q-19 -37 -47.5 -70.5t-67 -54.5t-88.5 -21zM164 248q23 7 44.5 15.5t38.5 22t28 33t13 47.5q1 11 -6 22t-22 11q-17 0 -33 -11.5t-30.5 -31t-24.5 -46t-15 -56.5q-1 -8 7 -6zM310 469q13 0 14 11.5t-4 22.5l-73 162
q-9 20 -18 28.5t-21 8.5q-11 0 -26 -9t-26 -21t-11 -22t6 -20t17 -21l111 -123q7 -7 15 -12t16 -5z" />
    <glyph glyph-name="eacute" unicode="&#xe9;" horiz-adv-x="389" 
d="M142 -15q-28 0 -60 16.5t-54.5 45t-22.5 64.5q0 65 23.5 123.5t62.5 104t87.5 72t97.5 26.5q63 0 90.5 -23.5t27.5 -54.5q0 -35 -23 -59.5t-59 -42t-77.5 -28.5t-77.5 -19q-4 -1 -6 -3t-3 -6t-1.5 -8.5t-1.5 -9.5q-1 -35 19.5 -62.5t61.5 -27.5q26 0 49 13.5t47 38.5
q11 12 17 12q9 0 9 -11q0 -3 -0.5 -7.5t-2.5 -7.5q-19 -37 -47.5 -70.5t-67 -54.5t-88.5 -21zM164 248q23 7 44.5 15.5t38.5 22t28 33t13 47.5q1 11 -6 22t-22 11q-17 0 -33 -11.5t-30.5 -31t-24.5 -46t-15 -56.5q-1 -8 7 -6zM282 469q-13 0 -14 11.5t4 22.5l73 162
q9 20 18 28.5t21 8.5q11 0 26 -9t26 -21t11 -22t-6 -20t-17 -21l-111 -123q-7 -7 -15 -12t-16 -5z" />
    <glyph glyph-name="ecircumflex" unicode="&#xea;" horiz-adv-x="389" 
d="M142 -15q-28 0 -60 16.5t-54.5 45t-22.5 64.5q0 65 23.5 123.5t62.5 104t87.5 72t97.5 26.5q63 0 90.5 -23.5t27.5 -54.5q0 -35 -23 -59.5t-59 -42t-77.5 -28.5t-77.5 -19q-4 -1 -6 -3t-3 -6t-1.5 -8.5t-1.5 -9.5q-1 -35 19.5 -62.5t61.5 -27.5q26 0 49 13.5t47 38.5
q11 12 17 12q9 0 9 -11q0 -3 -0.5 -7.5t-2.5 -7.5q-19 -37 -47.5 -70.5t-67 -54.5t-88.5 -21zM164 248q23 7 44.5 15.5t38.5 22t28 33t13 47.5q1 11 -6 22t-22 11q-17 0 -33 -11.5t-30.5 -31t-24.5 -46t-15 -56.5q-1 -8 7 -6zM365 698q10 0 15 -10.5t11 -32.5
q4 -17 9.5 -33.5t10.5 -33t9.5 -33t7.5 -33.5q4 -18 -1 -31.5t-21 -13.5t-32 35q-6 13 -15.5 30t-22.5 37q-4 6 -12 0q-23 -20 -45 -38t-36 -30q-20 -17 -33 -25.5t-20 -8.5q-11 0 -11 13q0 6 3.5 14t11.5 18q19 22 39 44.5l40 45t40 45.5q17 19 29 30t23 11z" />
    <glyph glyph-name="edieresis" unicode="&#xeb;" horiz-adv-x="389" 
d="M142 -15q-28 0 -60 16.5t-54.5 45t-22.5 64.5q0 65 23.5 123.5t62.5 104t87.5 72t97.5 26.5q63 0 90.5 -23.5t27.5 -54.5q0 -35 -23 -59.5t-59 -42t-77.5 -28.5t-77.5 -19q-4 -1 -6 -3t-3 -6t-1.5 -8.5t-1.5 -9.5q-1 -35 19.5 -62.5t61.5 -27.5q26 0 49 13.5t47 38.5
q11 12 17 12q9 0 9 -11q0 -3 -0.5 -7.5t-2.5 -7.5q-19 -37 -47.5 -70.5t-67 -54.5t-88.5 -21zM164 248q23 7 44.5 15.5t38.5 22t28 33t13 47.5q1 11 -6 22t-22 11q-17 0 -33 -11.5t-30.5 -31t-24.5 -46t-15 -56.5q-1 -8 7 -6zM400 490q-25 0 -40 16t-15 42q0 27 15 48.5
t38.5 34t49.5 12.5q28 0 43.5 -15.5t15.5 -41.5q0 -39 -31.5 -67.5t-75.5 -28.5zM196 490q-25 0 -40 16t-15 42q0 27 15 48.5t38.5 34t49.5 12.5q28 0 43.5 -15.5t15.5 -41.5q0 -39 -31.5 -67.5t-75.5 -28.5z" />
    <glyph glyph-name="igrave" unicode="&#xec;" horiz-adv-x="340" 
d="M90 -14q-25 0 -45 19.5t-20 38.5q0 5 1 10.5t4 12.5q26 59 50.5 119t48.5 118q2 5 -4 5q-8 0 -18 -4.5t-20.5 -11t-21.5 -12.5q-15 -8 -21 -3.5t-6 12.5t14.5 23.5t37.5 34t49 36.5t49.5 31.5t37.5 18.5q16 6 33 -1.5t26.5 -21t4.5 -26.5l-110 -274q-1 -3 -1.5 -6.5
t-0.5 -5.5q0 -3 1.5 -5t3.5 -2q7 0 26 11.5t40 27t34 28.5q3 3 4 3q6 0 10 -5t4 -11q0 -18 -22 -45t-55 -53.5t-69 -44t-65 -17.5zM279 466q13 0 14 11.5t-4 22.5l-73 162q-9 20 -18 28.5t-21 8.5q-11 0 -26 -9t-26 -21t-11 -22t6 -20t17 -21l111 -123q7 -7 15 -12t16 -5z
" />
    <glyph glyph-name="iacute" unicode="&#xed;" horiz-adv-x="340" 
d="M90 -14q-25 0 -45 19.5t-20 38.5q0 5 1 10.5t4 12.5q26 59 50.5 119t48.5 118q2 5 -4 5q-8 0 -18 -4.5t-20.5 -11t-21.5 -12.5q-15 -8 -21 -3.5t-6 12.5t14.5 23.5t37.5 34t49 36.5t49.5 31.5t37.5 18.5q16 6 33 -1.5t26.5 -21t4.5 -26.5l-110 -274q-1 -3 -1.5 -6.5
t-0.5 -5.5q0 -3 1.5 -5t3.5 -2q7 0 26 11.5t40 27t34 28.5q3 3 4 3q6 0 10 -5t4 -11q0 -18 -22 -45t-55 -53.5t-69 -44t-65 -17.5zM251 466q-13 0 -14 11.5t4 22.5l73 162q9 20 18 28.5t21 8.5q11 0 26 -9t26 -21t11 -22t-6 -20t-17 -21l-111 -123q-7 -7 -15 -12t-16 -5z
" />
    <glyph glyph-name="icircumflex" unicode="&#xee;" horiz-adv-x="340" 
d="M90 -14q-25 0 -45 19.5t-20 38.5q0 5 1 10.5t4 12.5q26 59 50.5 119t48.5 118q2 5 -4 5q-8 0 -18 -4.5t-20.5 -11t-21.5 -12.5q-15 -8 -21 -3.5t-6 12.5t14.5 23.5t37.5 34t49 36.5t49.5 31.5t37.5 18.5q16 6 33 -1.5t26.5 -21t4.5 -26.5l-110 -274q-1 -3 -1.5 -6.5
t-0.5 -5.5q0 -3 1.5 -5t3.5 -2q7 0 26 11.5t40 27t34 28.5q3 3 4 3q6 0 10 -5t4 -11q0 -18 -22 -45t-55 -53.5t-69 -44t-65 -17.5zM334 695q10 0 15 -10.5t11 -32.5q4 -17 9.5 -33.5t10.5 -33t9.5 -33t7.5 -33.5q4 -18 -1 -31.5t-21 -13.5t-32 35q-6 13 -15.5 30t-22.5 37
q-4 6 -12 0q-23 -20 -45 -38t-36 -30q-20 -17 -33 -25.5t-20 -8.5q-11 0 -11 13q0 6 3.5 14t11.5 18q19 22 39 44.5l40 45t40 45.5q17 19 29 30t23 11z" />
    <glyph glyph-name="idieresis" unicode="&#xef;" horiz-adv-x="340" 
d="M90 -14q-25 0 -45 19.5t-20 38.5q0 5 1 10.5t4 12.5q26 59 50.5 119t48.5 118q2 5 -4 5q-8 0 -18 -4.5t-20.5 -11t-21.5 -12.5q-15 -8 -21 -3.5t-6 12.5t14.5 23.5t37.5 34t49 36.5t49.5 31.5t37.5 18.5q16 6 33 -1.5t26.5 -21t4.5 -26.5l-110 -274q-1 -3 -1.5 -6.5
t-0.5 -5.5q0 -3 1.5 -5t3.5 -2q7 0 26 11.5t40 27t34 28.5q3 3 4 3q6 0 10 -5t4 -11q0 -18 -22 -45t-55 -53.5t-69 -44t-65 -17.5zM369 487q-25 0 -40 16t-15 42q0 27 15 48.5t38.5 34t49.5 12.5q28 0 43.5 -15.5t15.5 -41.5q0 -39 -31.5 -67.5t-75.5 -28.5zM165 487
q-25 0 -40 16t-15 42q0 27 15 48.5t38.5 34t49.5 12.5q28 0 43.5 -15.5t15.5 -41.5q0 -39 -31.5 -67.5t-75.5 -28.5z" />
    <glyph glyph-name="eth" unicode="&#xf0;" horiz-adv-x="456" 
d="M133 -14q-38 0 -69 18.5t-47.5 50t-13.5 69.5q4 50 24.5 104t57 102t87 77.5t114.5 29.5q8 0 14.5 -1t12.5 -3q5 -1 9 -2.5t7 -1.5q5 0 8 17.5t3 30.5q0 31 -6 52l-107 -56q-13 -6 -20.5 0.5t-6.5 13.5q2 17 6.5 31.5t17.5 21.5l99 51q-10 32 -25.5 49.5t-41.5 22.5
q-16 4 -23.5 8.5t-7.5 11.5q0 13 11 17.5t28 4.5q54 0 95 -19t68 -52l95 48q6 4 17.5 1.5t11.5 -12.5q0 -13 -5 -29.5t-22 -24.5l-66 -34q22 -57 22 -119q0 -63 -18 -130t-51 -129t-76.5 -111.5t-95 -78.5t-106.5 -29zM156 27q19 0 40.5 22.5t42.5 59.5t39.5 81.5t30.5 89
t15 80.5q2 20 -5 29.5t-23 9.5t-37 -22.5t-42.5 -59.5t-41 -81.5t-32.5 -88.5t-16 -80q-2 -20 6.5 -30t22.5 -10z" />
    <glyph glyph-name="ntilde" unicode="&#xf1;" horiz-adv-x="614" 
d="M129 -14q-9 0 -23 7t-27 19.5t-19 29.5t2 36l98 244q8 21 -12 21q-6 0 -20 -1t-30.5 -8t-31.5 -24q-4 -5 -12.5 -4.5t-9.5 9.5q0 8 7 20.5t17.5 25.5t17.5 19q26 23 62 40t86 17q28 0 42.5 -14.5t17.5 -36t-6 -44.5l-50 -123q-3 -7 6.5 -8t13.5 6q34 61 67.5 110.5
t71 79.5t81.5 30q43 0 61 -23.5t18.5 -56.5t-12.5 -62l-72 -168q-12 -29 4 -29q5 0 14.5 5t20.5 13t20.5 16t14.5 13q6 6 12.5 12t10.5 6q3 0 6.5 -4t3.5 -9q0 -22 -15 -40q-30 -36 -68.5 -64t-79 -44t-75.5 -16q-14 0 -28.5 9t-21.5 21.5t-2 25.5q33 75 69.5 147.5
t64.5 148.5q5 14 4 21.5t-12 7.5q-13 0 -28.5 -17.5t-32 -43t-34.5 -51.5q-8 -12 -23 -36.5t-33 -54t-34.5 -58t-28.5 -48.5q-17 -30 -35 -51t-38 -21zM260 467q-4 0 -13.5 8t-9.5 12q0 6 12 24t29 39.5t32.5 37t21.5 15.5q10 0 24 -3t48 -5q23 -1 42 -2.5t28 -1.5
q18 0 35 20q10 12 14.5 18.5t8.5 6.5q5 0 14 -7.5t9 -12.5q0 -4 -6 -12t-15 -21q-11 -16 -22.5 -34.5t-20.5 -32.5q-6 -9 -15 -11.5t-16 -2.5q-9 0 -30 1.5t-46 3t-46.5 3t-30.5 1.5q-11 0 -19 -11q-13 -18 -18.5 -25.5t-9.5 -7.5z" />
    <glyph glyph-name="ograve" unicode="&#xf2;" horiz-adv-x="475" 
d="M165 -14q-41 0 -77 18.5t-58 51.5t-22 78q0 46 20 98.5t59 99t95 76t128 29.5q70 0 113.5 -38.5t43.5 -109.5q0 -46 -20 -98.5t-59 -99t-95 -76t-128 -29.5zM185 27q19 0 38.5 22.5t37.5 59.5t32 81.5t22.5 89t8.5 80.5q0 20 -8 29.5t-24 9.5t-35 -22.5t-37.5 -59.5
t-33.5 -81.5t-24.5 -88.5t-9.5 -80q0 -20 9.5 -30t23.5 -10zM347 469q13 0 14 11.5t-4 22.5l-73 162q-9 20 -18 28.5t-21 8.5q-11 0 -26 -9t-26 -21t-11 -22t6 -20t17 -21l111 -123q7 -7 15 -12t16 -5z" />
    <glyph glyph-name="oacute" unicode="&#xf3;" horiz-adv-x="475" 
d="M165 -14q-41 0 -77 18.5t-58 51.5t-22 78q0 46 20 98.5t59 99t95 76t128 29.5q70 0 113.5 -38.5t43.5 -109.5q0 -46 -20 -98.5t-59 -99t-95 -76t-128 -29.5zM185 27q19 0 38.5 22.5t37.5 59.5t32 81.5t22.5 89t8.5 80.5q0 20 -8 29.5t-24 9.5t-35 -22.5t-37.5 -59.5
t-33.5 -81.5t-24.5 -88.5t-9.5 -80q0 -20 9.5 -30t23.5 -10zM319 469q-13 0 -14 11.5t4 22.5l73 162q9 20 18 28.5t21 8.5q11 0 26 -9t26 -21t11 -22t-6 -20t-17 -21l-111 -123q-7 -7 -15 -12t-16 -5z" />
    <glyph glyph-name="ocircumflex" unicode="&#xf4;" horiz-adv-x="475" 
d="M165 -14q-41 0 -77 18.5t-58 51.5t-22 78q0 46 20 98.5t59 99t95 76t128 29.5q70 0 113.5 -38.5t43.5 -109.5q0 -46 -20 -98.5t-59 -99t-95 -76t-128 -29.5zM185 27q19 0 38.5 22.5t37.5 59.5t32 81.5t22.5 89t8.5 80.5q0 20 -8 29.5t-24 9.5t-35 -22.5t-37.5 -59.5
t-33.5 -81.5t-24.5 -88.5t-9.5 -80q0 -20 9.5 -30t23.5 -10zM402 698q10 0 15 -10.5t11 -32.5q4 -17 9.5 -33.5t10.5 -33t9.5 -33t7.5 -33.5q4 -18 -1 -31.5t-21 -13.5t-32 35q-6 13 -15.5 30t-22.5 37q-4 6 -12 0q-23 -20 -45 -38t-36 -30q-20 -17 -33 -25.5t-20 -8.5
q-11 0 -11 13q0 6 3.5 14t11.5 18q19 22 39 44.5l40 45t40 45.5q17 19 29 30t23 11z" />
    <glyph glyph-name="otilde" unicode="&#xf5;" horiz-adv-x="475" 
d="M165 -14q-41 0 -77 18.5t-58 51.5t-22 78q0 46 20 98.5t59 99t95 76t128 29.5q70 0 113.5 -38.5t43.5 -109.5q0 -46 -20 -98.5t-59 -99t-95 -76t-128 -29.5zM185 27q19 0 38.5 22.5t37.5 59.5t32 81.5t22.5 89t8.5 80.5q0 20 -8 29.5t-24 9.5t-35 -22.5t-37.5 -59.5
t-33.5 -81.5t-24.5 -88.5t-9.5 -80q0 -20 9.5 -30t23.5 -10zM204 467q-4 0 -13.5 8t-9.5 12q0 6 12 24t29 39.5t32.5 37t21.5 15.5q10 0 24 -3t48 -5q23 -1 42 -2.5t28 -1.5q18 0 35 20q10 12 14.5 18.5t8.5 6.5q5 0 14 -7.5t9 -12.5q0 -4 -6 -12t-15 -21
q-11 -16 -22.5 -34.5t-20.5 -32.5q-6 -9 -15 -11.5t-16 -2.5q-9 0 -30 1.5t-46 3t-46.5 3t-30.5 1.5q-11 0 -19 -11q-13 -18 -18.5 -25.5t-9.5 -7.5z" />
    <glyph glyph-name="odieresis" unicode="&#xf6;" horiz-adv-x="475" 
d="M165 -14q-41 0 -77 18.5t-58 51.5t-22 78q0 46 20 98.5t59 99t95 76t128 29.5q70 0 113.5 -38.5t43.5 -109.5q0 -46 -20 -98.5t-59 -99t-95 -76t-128 -29.5zM185 27q19 0 38.5 22.5t37.5 59.5t32 81.5t22.5 89t8.5 80.5q0 20 -8 29.5t-24 9.5t-35 -22.5t-37.5 -59.5
t-33.5 -81.5t-24.5 -88.5t-9.5 -80q0 -20 9.5 -30t23.5 -10zM437 490q-25 0 -40 16t-15 42q0 27 15 48.5t38.5 34t49.5 12.5q28 0 43.5 -15.5t15.5 -41.5q0 -39 -31.5 -67.5t-75.5 -28.5zM233 490q-25 0 -40 16t-15 42q0 27 15 48.5t38.5 34t49.5 12.5q28 0 43.5 -15.5
t15.5 -41.5q0 -39 -31.5 -67.5t-75.5 -28.5z" />
    <glyph glyph-name="divide" unicode="&#xf7;" horiz-adv-x="597" 
d="M70 259q-7 0 -13 4.5t-6 8.5q0 6 3.5 17t10.5 19.5t19 8.5h483q11 0 18.5 -4.5t7.5 -10.5q0 -13 -10.5 -28t-26.5 -15h-486zM327 64q-30 0 -52 21.5t-22 51.5q0 32 22 54t52 22q32 0 54 -22t22 -54q0 -30 -22 -51.5t-54 -21.5zM326 349q-30 0 -52 21.5t-22 51.5
q0 32 22 54t52 22q32 0 54 -22t22 -54q0 -30 -22 -51.5t-54 -21.5z" />
    <glyph glyph-name="oslash" unicode="&#xf8;" horiz-adv-x="445" 
d="M-9 -14q-11 1 -21 8t-9 17q3 23 16 33l70 58l46 30l239 215l50 30l63 52q5 4 11 6.5t13 1.5q10 -1 13 -8t3 -18q0 -8 -4.5 -18.5t-12.5 -17.5l-72 -61l-70 -49l-219 -204l-33 -19l-55 -46q-6 -5 -11.5 -8t-16.5 -2zM165 -14q-41 0 -77 18.5t-58 51.5t-22 78q0 46 20 98.5
t59 99t95 76t128 29.5q70 0 113.5 -38.5t43.5 -109.5q0 -46 -20 -98.5t-59 -99t-95 -76t-128 -29.5zM185 27q19 0 38.5 22.5t37.5 59.5t32 81.5t22.5 89t8.5 80.5q0 20 -8 29.5t-24 9.5t-35 -22.5t-37.5 -59.5t-33.5 -81.5t-24.5 -88.5t-9.5 -80q0 -20 9.5 -30t23.5 -10z
" />
    <glyph glyph-name="ugrave" unicode="&#xf9;" horiz-adv-x="615" 
d="M123 -14q-22 0 -40.5 19t-26 44.5t1.5 46.5l91 203q7 15 5.5 22t-9.5 7q-6 0 -22.5 -9.5t-33 -21.5t-23.5 -19q-15 -15 -24 -15t-9 10q0 11 6 21t13 19q30 36 63 64t67.5 44t69.5 16q16 0 31.5 -14.5t23 -34t0.5 -35.5q-16 -36 -43.5 -93.5t-63.5 -134.5q-7 -14 -5 -23.5
t12 -9.5t29 22t43.5 56.5t49.5 69.5q15 20 29 41.5t27.5 43.5t25.5 41q19 30 34 50.5t34 20.5q22 0 39 -12t25 -28.5t2 -32.5l-93 -251q-2 -6 -2 -12.5t5 -6.5q7 0 27 12.5t42.5 29.5t35.5 30q3 3 4 3q6 0 10 -5t4 -11q0 -15 -16.5 -36t-43 -44t-57 -42.5t-59 -32
t-49.5 -12.5q-13 0 -25 9.5t-19 23.5t-7 25q0 5 2 10.5t5 12.5q7 16 16 36t20 45t23 56q3 8 -2 8.5t-10 -6.5q-24 -36 -52.5 -74.5t-59 -71.5t-61.5 -53.5t-60 -20.5zM425 469q13 0 14 11.5t-4 22.5l-73 162q-9 20 -18 28.5t-21 8.5q-11 0 -26 -9t-26 -21t-11 -22t6 -20
t17 -21l111 -123q7 -7 15 -12t16 -5z" />
    <glyph glyph-name="uacute" unicode="&#xfa;" horiz-adv-x="615" 
d="M123 -14q-22 0 -40.5 19t-26 44.5t1.5 46.5l91 203q7 15 5.5 22t-9.5 7q-6 0 -22.5 -9.5t-33 -21.5t-23.5 -19q-15 -15 -24 -15t-9 10q0 11 6 21t13 19q30 36 63 64t67.5 44t69.5 16q16 0 31.5 -14.5t23 -34t0.5 -35.5q-16 -36 -43.5 -93.5t-63.5 -134.5q-7 -14 -5 -23.5
t12 -9.5t29 22t43.5 56.5t49.5 69.5q15 20 29 41.5t27.5 43.5t25.5 41q19 30 34 50.5t34 20.5q22 0 39 -12t25 -28.5t2 -32.5l-93 -251q-2 -6 -2 -12.5t5 -6.5q7 0 27 12.5t42.5 29.5t35.5 30q3 3 4 3q6 0 10 -5t4 -11q0 -15 -16.5 -36t-43 -44t-57 -42.5t-59 -32
t-49.5 -12.5q-13 0 -25 9.5t-19 23.5t-7 25q0 5 2 10.5t5 12.5q7 16 16 36t20 45t23 56q3 8 -2 8.5t-10 -6.5q-24 -36 -52.5 -74.5t-59 -71.5t-61.5 -53.5t-60 -20.5zM397 469q-13 0 -14 11.5t4 22.5l73 162q9 20 18 28.5t21 8.5q11 0 26 -9t26 -21t11 -22t-6 -20t-17 -21
l-111 -123q-7 -7 -15 -12t-16 -5z" />
    <glyph glyph-name="ucircumflex" unicode="&#xfb;" horiz-adv-x="615" 
d="M123 -14q-22 0 -40.5 19t-26 44.5t1.5 46.5l91 203q7 15 5.5 22t-9.5 7q-6 0 -22.5 -9.5t-33 -21.5t-23.5 -19q-15 -15 -24 -15t-9 10q0 11 6 21t13 19q30 36 63 64t67.5 44t69.5 16q16 0 31.5 -14.5t23 -34t0.5 -35.5q-16 -36 -43.5 -93.5t-63.5 -134.5q-7 -14 -5 -23.5
t12 -9.5t29 22t43.5 56.5t49.5 69.5q15 20 29 41.5t27.5 43.5t25.5 41q19 30 34 50.5t34 20.5q22 0 39 -12t25 -28.5t2 -32.5l-93 -251q-2 -6 -2 -12.5t5 -6.5q7 0 27 12.5t42.5 29.5t35.5 30q3 3 4 3q6 0 10 -5t4 -11q0 -15 -16.5 -36t-43 -44t-57 -42.5t-59 -32
t-49.5 -12.5q-13 0 -25 9.5t-19 23.5t-7 25q0 5 2 10.5t5 12.5q7 16 16 36t20 45t23 56q3 8 -2 8.5t-10 -6.5q-24 -36 -52.5 -74.5t-59 -71.5t-61.5 -53.5t-60 -20.5zM480 698q10 0 15 -10.5t11 -32.5q4 -17 9.5 -33.5t10.5 -33t9.5 -33t7.5 -33.5q4 -18 -1 -31.5t-21 -13.5
t-32 35q-6 13 -15.5 30t-22.5 37q-4 6 -12 0q-23 -20 -45 -38t-36 -30q-20 -17 -33 -25.5t-20 -8.5q-11 0 -11 13q0 6 3.5 14t11.5 18q19 22 39 44.5l40 45t40 45.5q17 19 29 30t23 11z" />
    <glyph glyph-name="udieresis" unicode="&#xfc;" horiz-adv-x="615" 
d="M123 -14q-22 0 -40.5 19t-26 44.5t1.5 46.5l91 203q7 15 5.5 22t-9.5 7q-6 0 -22.5 -9.5t-33 -21.5t-23.5 -19q-15 -15 -24 -15t-9 10q0 11 6 21t13 19q30 36 63 64t67.5 44t69.5 16q16 0 31.5 -14.5t23 -34t0.5 -35.5q-16 -36 -43.5 -93.5t-63.5 -134.5q-7 -14 -5 -23.5
t12 -9.5t29 22t43.5 56.5t49.5 69.5q15 20 29 41.5t27.5 43.5t25.5 41q19 30 34 50.5t34 20.5q22 0 39 -12t25 -28.5t2 -32.5l-93 -251q-2 -6 -2 -12.5t5 -6.5q7 0 27 12.5t42.5 29.5t35.5 30q3 3 4 3q6 0 10 -5t4 -11q0 -15 -16.5 -36t-43 -44t-57 -42.5t-59 -32
t-49.5 -12.5q-13 0 -25 9.5t-19 23.5t-7 25q0 5 2 10.5t5 12.5q7 16 16 36t20 45t23 56q3 8 -2 8.5t-10 -6.5q-24 -36 -52.5 -74.5t-59 -71.5t-61.5 -53.5t-60 -20.5zM515 490q-25 0 -40 16t-15 42q0 27 15 48.5t38.5 34t49.5 12.5q28 0 43.5 -15.5t15.5 -41.5
q0 -39 -31.5 -67.5t-75.5 -28.5zM311 490q-25 0 -40 16t-15 42q0 27 15 48.5t38.5 34t49.5 12.5q28 0 43.5 -15.5t15.5 -41.5q0 -39 -31.5 -67.5t-75.5 -28.5z" />
    <glyph glyph-name="yacute" unicode="&#xfd;" horiz-adv-x="499" 
d="M-46 -289q-30 0 -55 17t-25 51q0 19 9 37t24 30t32 12q11 0 24 -7.5t25 -16.5q13 -9 27.5 -17t33.5 -8q29 0 56 27t46 71q18 41 27 95t9 113q0 85 -9.5 135t-21.5 72t-22 22q-8 0 -18.5 -13t-20 -29t-14.5 -26q-2 -4 -7.5 -12.5t-11.5 -8.5q-3 0 -6 7.5t-3 20.5
q0 29 14.5 57t37 52t48.5 38t49 14q31 0 48.5 -20.5t30.5 -58.5q14 -43 24 -112t5 -169q-1 -18 3.5 -17t11.5 14q35 67 45.5 147.5t8.5 188.5q0 9 14 18t23 9q10 0 26.5 -9.5t30.5 -25t14 -35.5q0 -62 -36 -144.5t-101 -175t-151 -184.5q-40 -43 -85 -79.5t-86.5 -58
t-73.5 -21.5zM298 469q-13 0 -14 11.5t4 22.5l73 162q9 20 18 28.5t21 8.5q11 0 26 -9t26 -21t11 -22t-6 -20t-17 -21l-111 -123q-7 -7 -15 -12t-16 -5z" />
    <glyph glyph-name="thorn" unicode="&#xfe;" horiz-adv-x="548" 
d="M-131 -285q-4 0 -7 3.5t-2 8.5q1 8 6.5 12t13.5 6q33 9 48 17.5t22 33.5l238 735q5 15 9 30t4 31q0 14 -11 20.5t-25 11.5q-7 3 -13.5 6.5t-6.5 9.5t5 10.5t24 11.5q12 4 36.5 11.5t51.5 15t49 13t31 5.5q8 0 18 -1.5t10 -12.5q0 -13 -3 -22.5t-7 -20.5
q-12 -38 -25.5 -76.5t-28 -77.5t-28.5 -78t-27 -78t-24 -77q-2 -7 0 -7.5t6 5.5q39 62 78.5 101t77.5 57t71 18q34 0 60 -23.5t26 -67.5q0 -55 -19.5 -108t-54.5 -98.5t-81.5 -80t-100 -54t-109.5 -19.5q-20 0 -43.5 5t-34.5 9l40 37l-67 -240q-6 -22 12 -31.5t46 -20.5
q6 -2 8.5 -5.5t0.5 -12.5q-1 -5 -5.5 -8t-10.5 -3q-17 0 -42.5 1t-50.5 1.5t-40 0.5q-25 0 -61 -2t-64 -2zM226 27q10 0 26.5 11.5t34.5 32t34 46.5q12 19 26 46.5t27 57t21.5 56.5t8.5 45q0 8 -2 14.5t-7 10t-14 3.5q-18 0 -44 -21t-53.5 -54t-51 -69.5t-38.5 -69
t-15 -51.5q0 -21 15.5 -39.5t31.5 -18.5z" />
    <glyph glyph-name="ydieresis" unicode="&#xff;" horiz-adv-x="499" 
d="M-46 -289q-30 0 -55 17t-25 51q0 19 9 37t24 30t32 12q11 0 24 -7.5t25 -16.5q13 -9 27.5 -17t33.5 -8q29 0 56 27t46 71q18 41 27 95t9 113q0 85 -9.5 135t-21.5 72t-22 22q-8 0 -18.5 -13t-20 -29t-14.5 -26q-2 -4 -7.5 -12.5t-11.5 -8.5q-3 0 -6 7.5t-3 20.5
q0 29 14.5 57t37 52t48.5 38t49 14q31 0 48.5 -20.5t30.5 -58.5q14 -43 24 -112t5 -169q-1 -18 3.5 -17t11.5 14q35 67 45.5 147.5t8.5 188.5q0 9 14 18t23 9q10 0 26.5 -9.5t30.5 -25t14 -35.5q0 -62 -36 -144.5t-101 -175t-151 -184.5q-40 -43 -85 -79.5t-86.5 -58
t-73.5 -21.5zM416 490q-25 0 -40 16t-15 42q0 27 15 48.5t38.5 34t49.5 12.5q28 0 43.5 -15.5t15.5 -41.5q0 -39 -31.5 -67.5t-75.5 -28.5zM212 490q-25 0 -40 16t-15 42q0 27 15 48.5t38.5 34t49.5 12.5q28 0 43.5 -15.5t15.5 -41.5q0 -39 -31.5 -67.5t-75.5 -28.5z" />
    <glyph glyph-name="Amacron" unicode="&#x100;" horiz-adv-x="766" 
d="M-46 -5q-11 0 -17.5 3.5t-4.5 13.5t9.5 15t17.5 7q18 4 43 12t49.5 21t40.5 31q64 73 127.5 145t127.5 144.5t128 144.5q19 21 31.5 42.5t21 36t14.5 14.5q26 0 52 4.5t45 14.5q17 9 32 18.5t25 9.5q11 0 12.5 -20.5t-3.5 -45.5l-98 -494q-6 -31 9.5 -49t53.5 -29
q11 -3 18.5 -6.5t7.5 -14.5q0 -7 -11.5 -11t-19.5 -4q-21 0 -49.5 1t-57.5 2t-52 1q-20 0 -49 -1t-59 -2.5t-52 -1.5q-20 0 -18 15q1 9 9 14.5t18 7.5q23 5 39 12.5t26.5 19.5t14.5 31l30 122q2 8 -1.5 12.5t-11.5 4.5h-161q-8 0 -14.5 -5.5t-11.5 -11.5l-62 -79
q-25 -32 -30.5 -53t7.5 -33.5t41 -19.5q9 -2 17.5 -7.5t7.5 -14.5q-1 -7 -11 -10.5t-21 -3.5q-33 0 -63.5 1.5t-60.5 1.5q-29 0 -66.5 -3t-69.5 -3zM341 284h123q8 0 12 2t5 9l47 219q2 6 2.5 11t-3.5 5q-1 0 -5 -2t-7 -5l-184 -221q-9 -10 -7.5 -14t17.5 -4zM535 716
q-10 0 -15.5 6t-5.5 13q0 30 13 48.5t27 18.5h270q10 0 15 -5.5t5 -13.5q0 -26 -13 -46.5t-30 -20.5h-266z" />
    <glyph glyph-name="amacron" unicode="&#x101;" horiz-adv-x="552" 
d="M36 -14q-14 0 -29 8t-25 20.5t-10 23.5q0 29 16.5 63.5t57.5 87t114 136.5q41 47 80 77t58 30q29 0 66 -29q5 -5 6.5 -6t2.5 -1q2 0 2.5 0.5t3.5 6.5q6 12 9 18.5t6 13.5q5 12 27 12q17 0 36 -8t32.5 -19t13.5 -21q0 -6 -1 -7l-97 -266q-8 -24 10 -24q10 0 33.5 17
t48.5 42l3 3h1q5 0 9 -5t4 -12q0 -16 -20 -41.5t-53 -52.5q-38 -31 -74.5 -49t-59.5 -18q-16 0 -33 9t-28 22.5t-11 26.5q0 6 5 23q3 9 7 19l8 20t8.5 20t8.5 20q2 4 -2 6t-6 0q-49 -57 -90.5 -94t-75 -54.5t-62.5 -17.5zM152 101q16 0 51.5 30.5t70.5 74.5q31 38 49 67.5
t18 41.5q0 9 -22 27q-10 8 -21 13.5t-18 5.5q-15 0 -41 -18t-49 -41q-18 -18 -33.5 -46.5t-25 -60t-9.5 -58.5q0 -17 8 -26.5t22 -9.5zM195 510q-10 0 -13 5t-3 14q0 17 10 32.5t23 25t22 9.5h261q24 0 24 -14q0 -12 -9.5 -29t-23 -30t-26.5 -13h-265z" />
    <glyph glyph-name="Abreve" unicode="&#x102;" horiz-adv-x="766" 
d="M-46 -5q-11 0 -17.5 3.5t-4.5 13.5t9.5 15t17.5 7q18 4 43 12t49.5 21t40.5 31q64 73 127.5 145t127.5 144.5t128 144.5q19 21 31.5 42.5t21 36t14.5 14.5q26 0 52 4.5t45 14.5q17 9 32 18.5t25 9.5q11 0 12.5 -20.5t-3.5 -45.5l-98 -494q-6 -31 9.5 -49t53.5 -29
q11 -3 18.5 -6.5t7.5 -14.5q0 -7 -11.5 -11t-19.5 -4q-21 0 -49.5 1t-57.5 2t-52 1q-20 0 -49 -1t-59 -2.5t-52 -1.5q-20 0 -18 15q1 9 9 14.5t18 7.5q23 5 39 12.5t26.5 19.5t14.5 31l30 122q2 8 -1.5 12.5t-11.5 4.5h-161q-8 0 -14.5 -5.5t-11.5 -11.5l-62 -79
q-25 -32 -30.5 -53t7.5 -33.5t41 -19.5q9 -2 17.5 -7.5t7.5 -14.5q-1 -7 -11 -10.5t-21 -3.5q-33 0 -63.5 1.5t-60.5 1.5q-29 0 -66.5 -3t-69.5 -3zM341 284h123q8 0 12 2t5 9l47 219q2 6 2.5 11t-3.5 5q-1 0 -5 -2t-7 -5l-184 -221q-9 -10 -7.5 -14t17.5 -4zM673 685
q-44 0 -72.5 19t-42.5 45.5t-14 49.5q0 17 6.5 29t19.5 12q9 0 13 -6t10 -16q16 -25 35 -35.5t54 -10.5t61 9t54 37q11 11 19.5 16.5t17.5 5.5q13 0 13 -20q0 -16 -10 -38.5t-31 -44.5t-54 -37t-79 -15z" />
    <glyph glyph-name="abreve" unicode="&#x103;" horiz-adv-x="552" 
d="M36 -14q-14 0 -29 8t-25 20.5t-10 23.5q0 29 16.5 63.5t57.5 87t114 136.5q41 47 80 77t58 30q29 0 66 -29q5 -5 6.5 -6t2.5 -1q2 0 2.5 0.5t3.5 6.5q6 12 9 18.5t6 13.5q5 12 27 12q17 0 36 -8t32.5 -19t13.5 -21q0 -6 -1 -7l-97 -266q-8 -24 10 -24q10 0 33.5 17
t48.5 42l3 3h1q5 0 9 -5t4 -12q0 -16 -20 -41.5t-53 -52.5q-38 -31 -74.5 -49t-59.5 -18q-16 0 -33 9t-28 22.5t-11 26.5q0 6 5 23q3 9 7 19l8 20t8.5 20t8.5 20q2 4 -2 6t-6 0q-49 -57 -90.5 -94t-75 -54.5t-62.5 -17.5zM152 101q16 0 51.5 30.5t70.5 74.5q31 38 49 67.5
t18 41.5q0 9 -22 27q-10 8 -21 13.5t-18 5.5q-15 0 -41 -18t-49 -41q-18 -18 -33.5 -46.5t-25 -60t-9.5 -58.5q0 -17 8 -26.5t22 -9.5zM335 475q-45 0 -70 19.5t-32 48.5t1 56q5 19 16 27.5t20 8.5t12.5 -5.5t2.5 -15.5q-2 -29 15 -40.5t52 -11.5t59 11.5t40 40.5
q5 10 12.5 15.5t16.5 5.5t13 -8.5t1 -27.5q-3 -20 -23 -49.5t-54.5 -52t-81.5 -22.5z" />
    <glyph glyph-name="Aogonek" unicode="&#x104;" horiz-adv-x="808" 
d="M-46 -5q-11 0 -17.5 3.5t-4.5 13.5t9.5 15t17.5 7q18 4 43 12t49.5 21t40.5 31q64 73 127.5 145t127.5 144.5t128 144.5q19 21 31.5 42.5t21 36t14.5 14.5q26 0 52 4.5t45 14.5q17 9 32 18.5t25 9.5q11 0 12.5 -20.5t-3.5 -45.5l-98 -494q-6 -31 9.5 -49t53.5 -29
q11 -3 18.5 -6.5t7.5 -14.5q0 -7 -11.5 -11t-19.5 -4q-21 0 -49.5 1t-57.5 2t-52 1q-20 0 -49 -1t-59 -2.5t-52 -1.5q-20 0 -18 15q1 9 9 14.5t18 7.5q23 5 39 12.5t26.5 19.5t14.5 31l30 122q2 8 -1.5 12.5t-11.5 4.5h-161q-8 0 -14.5 -5.5t-11.5 -11.5l-62 -79
q-25 -32 -30.5 -53t7.5 -33.5t41 -19.5q9 -2 17.5 -7.5t7.5 -14.5q-1 -7 -11 -10.5t-21 -3.5q-33 0 -63.5 1.5t-60.5 1.5q-29 0 -66.5 -3t-69.5 -3zM341 284h123q8 0 12 2t5 9l47 219q2 6 2.5 11t-3.5 5q-1 0 -5 -2t-7 -5l-184 -221q-9 -10 -7.5 -14t17.5 -4zM457 -287
q-23 0 -43 13t-31.5 32.5t-11.5 39.5q0 38 19 70.5t49 60t64.5 49.5t66.5 40h44q-32 -22 -59.5 -55.5t-44 -68.5t-16.5 -64q0 -13 8 -20.5t24 -7.5q12 0 27.5 11t28.5 29q2 2 4 5t5 5t7 2q7 0 8 -6t1 -11q0 -18 -14 -39.5t-36 -41t-48.5 -31.5t-51.5 -12z" />
    <glyph glyph-name="aogonek" unicode="&#x105;" horiz-adv-x="534" 
d="M36 -14q-14 0 -29 8t-25 20.5t-10 23.5q0 29 16.5 63.5t57.5 87t114 136.5q41 47 80 77t58 30q29 0 66 -29q5 -5 6.5 -6t2.5 -1q2 0 2.5 0.5t3.5 6.5q6 12 9 18.5t6 13.5q5 12 27 12q17 0 36 -8t32.5 -19t13.5 -21q0 -6 -1 -7l-97 -266q-8 -24 10 -24q10 0 33.5 17
t48.5 42l3 3h1q5 0 9 -5t4 -12q0 -16 -20 -41.5t-53 -52.5q-38 -31 -74.5 -49t-59.5 -18q-16 0 -33 9t-28 22.5t-11 26.5q0 6 5 23q3 9 7 19l8 20t8.5 20t8.5 20q2 4 -2 6t-6 0q-49 -57 -90.5 -94t-75 -54.5t-62.5 -17.5zM152 101q16 0 51.5 30.5t70.5 74.5q31 38 49 67.5
t18 41.5q0 9 -22 27q-10 8 -21 13.5t-18 5.5q-15 0 -41 -18t-49 -41q-18 -18 -33.5 -46.5t-25 -60t-9.5 -58.5q0 -17 8 -26.5t22 -9.5zM233 -287q-23 0 -43 13t-31.5 32.5t-11.5 39.5q0 38 19 70.5t49 60t64.5 49.5t66.5 40h44q-32 -22 -59.5 -55.5t-44 -68.5t-16.5 -64
q0 -13 8 -20.5t24 -7.5q12 0 27.5 11t28.5 29q2 2 4 5t5 5t7 2q7 0 8 -6t1 -11q0 -18 -14 -39.5t-36 -41t-48.5 -31.5t-51.5 -12z" />
    <glyph glyph-name="Cacute" unicode="&#x106;" horiz-adv-x="673" 
d="M314 -14q-55 0 -102 20.5t-82 56.5t-54 84.5t-19 105.5q0 90 35.5 165t98 130t145 85.5t177.5 30.5q35 0 62 -6.5t47 -13.5q19 -6 30 -9.5t23 -3.5q7 0 13 1t13 5q8 5 15.5 8t14.5 3q10 0 12.5 -6.5t-4.5 -17.5q-13 -17 -28 -48t-27.5 -64.5t-20.5 -59.5q-3 -10 -8 -16.5
t-16 -6.5q-10 0 -14 14.5t-3 37.5q2 22 -4.5 44.5t-18.5 41.5q-16 26 -39 43t-49 17q-53 0 -98 -28.5t-79.5 -76t-59 -106.5t-37 -121.5t-12.5 -118.5q0 -37 8 -65t24 -47t40 -28t56 -9q39 0 76.5 17.5t73.5 50.5t70 77q8 11 13.5 19t12.5 8q8 0 13.5 -8t2.5 -19
q-7 -25 -18 -56.5t-24 -59.5t-24.5 -46.5t-18.5 -18.5q-10 0 -15 3.5t-11 7.5t-14.5 6.5t-24.5 2.5q-12 0 -26 -3.5t-31 -8.5q-18 -4 -41.5 -8.5t-52.5 -4.5zM498 681q-12 0 -14 8q-1 7 9 23q23 37 46.5 70.5t51.5 67.5q12 15 34 15q8 0 27.5 -4.5t35.5 -12t15 -16.5
q-1 -12 -18 -24q-38 -28 -80 -59.5t-81 -57.5q-9 -6 -16 -8t-10 -2z" />
    <glyph glyph-name="cacute" unicode="&#x107;" horiz-adv-x="378" 
d="M154 -14q-41 0 -74 19.5t-52.5 52t-18.5 71.5q1 51 15.5 97.5t40 85t59 66.5t74 43.5t84.5 15.5q41 0 67 -18.5t26 -47.5q0 -20 -14 -39t-29 -19q-8 0 -14 6t-18 26q-10 19 -23.5 32.5t-25.5 13.5q-21 0 -40 -17t-34.5 -45.5t-24.5 -64t-10 -73.5t19.5 -60.5t55.5 -22.5
q26 0 50.5 12.5t40.5 34.5q4 5 9.5 8.5t9.5 3.5q10 0 10 -11q0 -28 -16.5 -58t-44 -55.5t-59.5 -41t-63 -15.5zM267 469q-13 0 -14 11.5t4 22.5l73 162q9 20 18 28.5t21 8.5q11 0 26 -9t26 -21t11 -22t-6 -20t-17 -21l-111 -123q-7 -7 -15 -12t-16 -5z" />
    <glyph glyph-name="Ccircumflex" unicode="&#x108;" horiz-adv-x="673" 
d="M314 -14q-55 0 -102 20.5t-82 56.5t-54 84.5t-19 105.5q0 90 35.5 165t98 130t145 85.5t177.5 30.5q35 0 62 -6.5t47 -13.5q19 -6 30 -9.5t23 -3.5q7 0 13 1t13 5q8 5 15.5 8t14.5 3q10 0 12.5 -6.5t-4.5 -17.5q-13 -17 -28 -48t-27.5 -64.5t-20.5 -59.5q-3 -10 -8 -16.5
t-16 -6.5q-10 0 -14 14.5t-3 37.5q2 22 -4.5 44.5t-18.5 41.5q-16 26 -39 43t-49 17q-53 0 -98 -28.5t-79.5 -76t-59 -106.5t-37 -121.5t-12.5 -118.5q0 -37 8 -65t24 -47t40 -28t56 -9q39 0 76.5 17.5t73.5 50.5t70 77q8 11 13.5 19t12.5 8q8 0 13.5 -8t2.5 -19
q-7 -25 -18 -56.5t-24 -59.5t-24.5 -46.5t-18.5 -18.5q-10 0 -15 3.5t-11 7.5t-14.5 6.5t-24.5 2.5q-12 0 -26 -3.5t-31 -8.5q-18 -4 -41.5 -8.5t-52.5 -4.5zM395 692q-21 0 -16 13q3 8 14 16l133 96q23 17 35 23.5t26 6.5q15 0 23 -6.5t21 -23.5l78 -95q4 -4 4 -8.5
t-1 -8.5q-3 -14 -21 -14q-9 0 -30.5 9t-45 20.5t-38.5 19.5q-12 7 -26 0q-14 -6 -36 -14.5t-45.5 -16t-43.5 -12.5t-31 -5z" />
    <glyph glyph-name="ccircumflex" unicode="&#x109;" horiz-adv-x="378" 
d="M154 -14q-41 0 -74 19.5t-52.5 52t-18.5 71.5q1 51 15.5 97.5t40 85t59 66.5t74 43.5t84.5 15.5q41 0 67 -18.5t26 -47.5q0 -20 -14 -39t-29 -19q-8 0 -14 6t-18 26q-10 19 -23.5 32.5t-25.5 13.5q-21 0 -40 -17t-34.5 -45.5t-24.5 -64t-10 -73.5t19.5 -60.5t55.5 -22.5
q26 0 50.5 12.5t40.5 34.5q4 5 9.5 8.5t9.5 3.5q10 0 10 -11q0 -28 -16.5 -58t-44 -55.5t-59.5 -41t-63 -15.5zM350 698q10 0 15 -10.5t11 -32.5q4 -17 9.5 -33.5t10.5 -33t9.5 -33t7.5 -33.5q4 -18 -1 -31.5t-21 -13.5t-32 35q-6 13 -15.5 30t-22.5 37q-4 6 -12 0
q-23 -20 -45 -38t-36 -30q-20 -17 -33 -25.5t-20 -8.5q-11 0 -11 13q0 6 3.5 14t11.5 18q19 22 39 44.5l40 45t40 45.5q17 19 29 30t23 11z" />
    <glyph glyph-name="Cdotaccent" unicode="&#x10a;" horiz-adv-x="673" 
d="M314 -14q-55 0 -102 20.5t-82 56.5t-54 84.5t-19 105.5q0 90 35.5 165t98 130t145 85.5t177.5 30.5q35 0 62 -6.5t47 -13.5q19 -6 30 -9.5t23 -3.5q7 0 13 1t13 5q8 5 15.5 8t14.5 3q10 0 12.5 -6.5t-4.5 -17.5q-13 -17 -28 -48t-27.5 -64.5t-20.5 -59.5q-3 -10 -8 -16.5
t-16 -6.5q-10 0 -14 14.5t-3 37.5q2 22 -4.5 44.5t-18.5 41.5q-16 26 -39 43t-49 17q-53 0 -98 -28.5t-79.5 -76t-59 -106.5t-37 -121.5t-12.5 -118.5q0 -37 8 -65t24 -47t40 -28t56 -9q39 0 76.5 17.5t73.5 50.5t70 77q8 11 13.5 19t12.5 8q8 0 13.5 -8t2.5 -19
q-7 -25 -18 -56.5t-24 -59.5t-24.5 -46.5t-18.5 -18.5q-10 0 -15 3.5t-11 7.5t-14.5 6.5t-24.5 2.5q-12 0 -26 -3.5t-31 -8.5q-18 -4 -41.5 -8.5t-52.5 -4.5zM548 692q-31 0 -52 19.5t-21 43.5q0 41 32.5 70t82.5 29q32 0 52 -21.5t20 -48.5q0 -24 -16 -45t-42 -34t-56 -13z
" />
    <glyph glyph-name="cdotaccent" unicode="&#x10b;" horiz-adv-x="378" 
d="M154 -14q-41 0 -74 19.5t-52.5 52t-18.5 71.5q1 51 15.5 97.5t40 85t59 66.5t74 43.5t84.5 15.5q41 0 67 -18.5t26 -47.5q0 -20 -14 -39t-29 -19q-8 0 -14 6t-18 26q-10 19 -23.5 32.5t-25.5 13.5q-21 0 -40 -17t-34.5 -45.5t-24.5 -64t-10 -73.5t19.5 -60.5t55.5 -22.5
q26 0 50.5 12.5t40.5 34.5q4 5 9.5 8.5t9.5 3.5q10 0 10 -11q0 -28 -16.5 -58t-44 -55.5t-59.5 -41t-63 -15.5zM286 505q-24 0 -40 18.5t-16 41.5q0 36 26 64t64 28q26 0 40 -21t14 -44q0 -34 -26 -60.5t-62 -26.5z" />
    <glyph glyph-name="Ccaron" unicode="&#x10c;" horiz-adv-x="673" 
d="M314 -14q-55 0 -102 20.5t-82 56.5t-54 84.5t-19 105.5q0 90 35.5 165t98 130t145 85.5t177.5 30.5q35 0 62 -6.5t47 -13.5q19 -6 30 -9.5t23 -3.5q7 0 13 1t13 5q8 5 15.5 8t14.5 3q10 0 12.5 -6.5t-4.5 -17.5q-13 -17 -28 -48t-27.5 -64.5t-20.5 -59.5q-3 -10 -8 -16.5
t-16 -6.5q-10 0 -14 14.5t-3 37.5q2 22 -4.5 44.5t-18.5 41.5q-16 26 -39 43t-49 17q-53 0 -98 -28.5t-79.5 -76t-59 -106.5t-37 -121.5t-12.5 -118.5q0 -37 8 -65t24 -47t40 -28t56 -9q39 0 76.5 17.5t73.5 50.5t70 77q8 11 13.5 19t12.5 8q8 0 13.5 -8t2.5 -19
q-7 -25 -18 -56.5t-24 -59.5t-24.5 -46.5t-18.5 -18.5q-10 0 -15 3.5t-11 7.5t-14.5 6.5t-24.5 2.5q-12 0 -26 -3.5t-31 -8.5q-18 -4 -41.5 -8.5t-52.5 -4.5zM544 698q-14 0 -22 7t-21 23l-76 96q-6 8 -4 16q3 13 24 13q8 0 28.5 -8.5t42.5 -20.5t35 -21q5 -4 10.5 -4
t13.5 4q15 7 40 15.5t51.5 16.5t47 13.5t27.5 5.5q16 0 16 -13q0 -11 -12 -20l-139 -93q-23 -16 -35 -23t-27 -7z" />
    <glyph glyph-name="ccaron" unicode="&#x10d;" horiz-adv-x="378" 
d="M154 -14q-41 0 -74 19.5t-52.5 52t-18.5 71.5q1 51 15.5 97.5t40 85t59 66.5t74 43.5t84.5 15.5q41 0 67 -18.5t26 -47.5q0 -20 -14 -39t-29 -19q-8 0 -14 6t-18 26q-10 19 -23.5 32.5t-25.5 13.5q-21 0 -40 -17t-34.5 -45.5t-24.5 -64t-10 -73.5t19.5 -60.5t55.5 -22.5
q26 0 50.5 12.5t40.5 34.5q4 5 9.5 8.5t9.5 3.5q10 0 10 -11q0 -28 -16.5 -58t-44 -55.5t-59.5 -41t-63 -15.5zM273 473q-10 0 -15 10.5t-11 32.5q-4 17 -9.5 33.5t-10.5 33t-9.5 33t-7.5 33.5q-4 18 1 31.5t21 13.5t32 -35q6 -13 15.5 -30t22.5 -37q4 -6 12 0q23 20 45 38
t36 30q20 17 33 25.5t20 8.5q11 0 11 -13q0 -6 -3.5 -14t-11.5 -18q-19 -22 -39 -44.5l-40 -45t-40 -45.5q-17 -19 -29 -30t-23 -11z" />
    <glyph glyph-name="Dcaron" unicode="&#x10e;" horiz-adv-x="729" 
d="M303 -7q-40 0 -80.5 3t-72 5.5t-44.5 2.5q-20 0 -47.5 -1.5t-56 -3.5t-50.5 -2q-6 0 -10.5 4t-2.5 11q6 17 26 22q27 6 43.5 12.5t26 18.5t15.5 32l141 454q6 23 4 35t-14 19t-36 13q-8 2 -11.5 7.5t-0.5 14.5q2 7 9.5 11t13.5 4q33 0 75.5 -2.5t72.5 -2.5q20 0 41 1
t47.5 2t61.5 1q94 0 158 -37t97 -98.5t33 -133.5q0 -79 -34.5 -149.5t-95 -125t-140 -86t-169.5 -31.5zM302 31q50 0 97.5 32.5t85.5 86t60.5 119.5t22.5 133q0 79 -17 125.5t-47.5 67t-69.5 20.5q-19 0 -33 -4t-22.5 -13.5t-13.5 -25.5l-135 -453q-10 -33 0.5 -52.5
t31.5 -27.5t40 -8zM461 698q-14 0 -22 7t-21 23l-76 96q-6 8 -4 16q3 13 24 13q8 0 28.5 -8.5t42.5 -20.5t35 -21q5 -4 10.5 -4t13.5 4q15 7 40 15.5t51.5 16.5t47 13.5t27.5 5.5q16 0 16 -13q0 -11 -12 -20l-139 -93q-23 -16 -35 -23t-27 -7z" />
    <glyph glyph-name="dcaron" unicode="&#x10f;" horiz-adv-x="651" 
d="M79 -14q-36 0 -59.5 25t-23.5 62q0 36 14 78.5t40 88t62 88.5q44 53 86.5 81t80.5 28q27 0 50 -13.5t41 -24.5q4 -2 7.5 -3.5t7.5 -1.5t7 9l43 134q9 28 12.5 40t4.5 14.5t0 3t-1 4.5q0 10 -10.5 19t-32.5 17q-11 5 -15.5 8.5t-4.5 7.5q0 7 6 11.5t23 10.5q12 4 37.5 10
t55 11.5t53.5 9t33 3.5q28 0 28 -14q0 -9 -2 -17.5t-8 -25.5l-186 -532q-1 -4 -1.5 -7t-0.5 -5q0 -7 5 -7q6 0 21 9t32.5 23.5t32.5 29.5l3 3h1q14 0 14 -16t-15 -37t-38.5 -42.5t-51.5 -40.5t-54.5 -30.5t-46.5 -11.5q-16 0 -33 9t-28 22.5t-11 26.5q0 6 5 23
q5 11 12.5 26.5t15 29.5t12 21t1.5 -1q3 7 -1 8.5t-9 -5.5q-68 -82 -120.5 -121t-93.5 -39zM175 95q19 0 43 16t47.5 42.5t44 57.5t32.5 62.5t12 56.5q0 26 -10.5 39.5t-30.5 13.5q-17 0 -39.5 -18t-45 -47t-41.5 -63t-30.5 -68t-11.5 -60q0 -15 8 -23.5t22 -8.5zM643 451
q-8 0 -8 10q0 5 3 10t7 12q14 30 23.5 65.5t18.5 87.5q3 15 22 33t44 31t44 13q10 0 12.5 -10.5t2.5 -18.5q0 -27 -15 -58.5t-37.5 -62.5t-46.5 -56.5t-43.5 -40.5t-26.5 -15z" />
    <glyph glyph-name="Dcroat" unicode="&#x110;" horiz-adv-x="729" 
d="M58 304q-13 0 -15 10.5t1 20.5q4 14 14.5 22.5t23.5 8.5h301q10 0 16 -6t2 -13q-10 -19 -26.5 -31t-30.5 -12h-286zM303 -7q-40 0 -80.5 3t-72 5.5t-44.5 2.5q-20 0 -47.5 -1.5t-56 -3.5t-50.5 -2q-6 0 -10.5 4t-2.5 11q6 17 26 22q27 6 43.5 12.5t26 18.5t15.5 32
l141 454q6 23 4 35t-14 19t-36 13q-8 2 -11.5 7.5t-0.5 14.5q2 7 9.5 11t13.5 4q33 0 75.5 -2.5t72.5 -2.5q20 0 41 1t47.5 2t61.5 1q94 0 158 -37t97 -98.5t33 -133.5q0 -79 -34.5 -149.5t-95 -125t-140 -86t-169.5 -31.5zM302 31q50 0 97.5 32.5t85.5 86t60.5 119.5
t22.5 133q0 79 -17 125.5t-47.5 67t-69.5 20.5q-19 0 -33 -4t-22.5 -13.5t-13.5 -25.5l-135 -453q-10 -33 0.5 -52.5t31.5 -27.5t40 -8z" />
    <glyph glyph-name="dcroat" unicode="&#x111;" horiz-adv-x="561" 
d="M80 -14q-31 0 -57 22t-26 65q0 40 14.5 82.5t39.5 84.5t57 80q39 47 81 75t85 28q29 0 53.5 -17.5t34.5 -31.5q4 -5 7 -5h5q4 0 6 7l56 161q5 15 10.5 30.5t5.5 31.5q0 14 -14.5 22.5t-28.5 13.5q-7 3 -13.5 6.5t-6.5 9.5t5 10.5t24 11.5q12 4 35 10t48.5 11.5t46.5 9
t30 3.5q8 0 18 -1.5t10 -12.5q0 -13 -3 -22.5t-7 -20.5l-180 -532q-1 -3 -1.5 -6.5t-0.5 -5.5q0 -7 5 -7q7 0 22.5 10t33 24.5t30.5 27.5q3 3 4 3q6 0 10 -5t4 -11q0 -18 -22 -45.5t-55 -54t-68 -44.5t-61 -18q-25 0 -42 19.5t-17 38.5q0 8 5 23q11 25 22.5 48.5t15.5 35.5
q3 8 -1 8.5t-9 -5.5q-63 -84 -116 -126t-95 -42zM171 96q18 0 41 15t46.5 39t43.5 52t32 54.5t12 45.5q0 15 -9 29.5t-22 24t-25 9.5t-30 -15.5t-37.5 -42t-36.5 -58t-27.5 -64.5t-10.5 -61q0 -15 4.5 -21.5t18.5 -6.5zM320 506q-13 0 -15.5 10.5t1.5 20.5q5 14 15.5 22.5
t23.5 8.5l284 1q10 0 15.5 -6t1.5 -13q-10 -21 -20 -32t-33 -11z" />
    <glyph glyph-name="Emacron" unicode="&#x112;" horiz-adv-x="572" 
d="M-45 -5q-9 0 -12 5t-2 11q4 15 26 21q36 11 53 21.5t27 41.5l141 456q10 32 1.5 45.5t-40.5 21.5q-11 3 -15 9t-2 12q2 7 12 11.5t32 4.5q14 0 36 -1.5t46 -3t44 -1.5l166 1q43 0 70 3.5t42.5 6.5t21.5 3q8 0 14 -5.5t6 -16.5q0 -13 -6.5 -36.5t-13 -49t-6.5 -46.5
q0 -10 -5.5 -15t-10.5 -5q-4 0 -9 4t-7 13q-7 58 -21 83t-52 25h-68q-25 0 -42 -16.5t-31 -65.5l-44 -153q-4 -13 1 -18.5t17 -5.5h84q26 0 45 17t35 45q5 9 13 13.5t14 4.5q5 0 7.5 -6t-2.5 -17q-9 -22 -17 -42.5t-14 -40.5t-11 -40t-10 -43q-4 -15 -9 -21.5t-10 -6.5
q-7 0 -12.5 7t-4.5 17q2 32 -4.5 50.5t-25.5 18.5h-97q-11 0 -18.5 -6t-10.5 -17l-50 -173q-11 -37 1.5 -57t52.5 -20h72q20 0 41 7t39 19q22 14 41 42.5t38 56.5q5 8 8.5 10t9.5 2t8.5 -5t2.5 -18q0 -11 -8.5 -37.5t-21.5 -56.5t-28 -50q-5 -7 -12.5 -9.5t-15.5 -2.5
q-4 0 -30 0.5t-65.5 1t-85.5 1t-91.5 1t-81.5 0.5q-20 0 -46.5 -1t-52.5 -2.5t-46 -1.5zM280 716q-10 0 -15.5 6t-5.5 13q0 30 13 48.5t27 18.5h270q10 0 15 -5.5t5 -13.5q0 -26 -13 -46.5t-30 -20.5h-266z" />
    <glyph glyph-name="emacron" unicode="&#x113;" horiz-adv-x="389" 
d="M142 -15q-28 0 -60 16.5t-54.5 45t-22.5 64.5q0 65 23.5 123.5t62.5 104t87.5 72t97.5 26.5q63 0 90.5 -23.5t27.5 -54.5q0 -35 -23 -59.5t-59 -42t-77.5 -28.5t-77.5 -19q-4 -1 -6 -3t-3 -6t-1.5 -8.5t-1.5 -9.5q-1 -35 19.5 -62.5t61.5 -27.5q26 0 49 13.5t47 38.5
q11 12 17 12q9 0 9 -11q0 -3 -0.5 -7.5t-2.5 -7.5q-19 -37 -47.5 -70.5t-67 -54.5t-88.5 -21zM164 248q23 7 44.5 15.5t38.5 22t28 33t13 47.5q1 11 -6 22t-22 11q-17 0 -33 -11.5t-30.5 -31t-24.5 -46t-15 -56.5q-1 -8 7 -6zM157 510q-10 0 -13 5t-3 14q0 17 10 32.5t23 25
t22 9.5h261q24 0 24 -14q0 -12 -9.5 -29t-23 -30t-26.5 -13h-265z" />
    <glyph glyph-name="Ebreve" unicode="&#x114;" horiz-adv-x="572" 
d="M-45 -5q-9 0 -12 5t-2 11q4 15 26 21q36 11 53 21.5t27 41.5l141 456q10 32 1.5 45.5t-40.5 21.5q-11 3 -15 9t-2 12q2 7 12 11.5t32 4.5q14 0 36 -1.5t46 -3t44 -1.5l166 1q43 0 70 3.5t42.5 6.5t21.5 3q8 0 14 -5.5t6 -16.5q0 -13 -6.5 -36.5t-13 -49t-6.5 -46.5
q0 -10 -5.5 -15t-10.5 -5q-4 0 -9 4t-7 13q-7 58 -21 83t-52 25h-68q-25 0 -42 -16.5t-31 -65.5l-44 -153q-4 -13 1 -18.5t17 -5.5h84q26 0 45 17t35 45q5 9 13 13.5t14 4.5q5 0 7.5 -6t-2.5 -17q-9 -22 -17 -42.5t-14 -40.5t-11 -40t-10 -43q-4 -15 -9 -21.5t-10 -6.5
q-7 0 -12.5 7t-4.5 17q2 32 -4.5 50.5t-25.5 18.5h-97q-11 0 -18.5 -6t-10.5 -17l-50 -173q-11 -37 1.5 -57t52.5 -20h72q20 0 41 7t39 19q22 14 41 42.5t38 56.5q5 8 8.5 10t9.5 2t8.5 -5t2.5 -18q0 -11 -8.5 -37.5t-21.5 -56.5t-28 -50q-5 -7 -12.5 -9.5t-15.5 -2.5
q-4 0 -30 0.5t-65.5 1t-85.5 1t-91.5 1t-81.5 0.5q-20 0 -46.5 -1t-52.5 -2.5t-46 -1.5zM418 685q-44 0 -72.5 19t-42.5 45.5t-14 49.5q0 17 6.5 29t19.5 12q9 0 13 -6t10 -16q16 -25 35 -35.5t54 -10.5t61 9t54 37q11 11 19.5 16.5t17.5 5.5q13 0 13 -20q0 -16 -10 -38.5
t-31 -44.5t-54 -37t-79 -15z" />
    <glyph glyph-name="ebreve" unicode="&#x115;" horiz-adv-x="389" 
d="M142 -15q-28 0 -60 16.5t-54.5 45t-22.5 64.5q0 65 23.5 123.5t62.5 104t87.5 72t97.5 26.5q63 0 90.5 -23.5t27.5 -54.5q0 -35 -23 -59.5t-59 -42t-77.5 -28.5t-77.5 -19q-4 -1 -6 -3t-3 -6t-1.5 -8.5t-1.5 -9.5q-1 -35 19.5 -62.5t61.5 -27.5q26 0 49 13.5t47 38.5
q11 12 17 12q9 0 9 -11q0 -3 -0.5 -7.5t-2.5 -7.5q-19 -37 -47.5 -70.5t-67 -54.5t-88.5 -21zM164 248q23 7 44.5 15.5t38.5 22t28 33t13 47.5q1 11 -6 22t-22 11q-17 0 -33 -11.5t-30.5 -31t-24.5 -46t-15 -56.5q-1 -8 7 -6zM297 475q-45 0 -70 19.5t-32 48.5t1 56
q5 19 16 27.5t20 8.5t12.5 -5.5t2.5 -15.5q-2 -29 15 -40.5t52 -11.5t59 11.5t40 40.5q5 10 12.5 15.5t16.5 5.5t13 -8.5t1 -27.5q-3 -20 -23 -49.5t-54.5 -52t-81.5 -22.5z" />
    <glyph glyph-name="Edotaccent" unicode="&#x116;" horiz-adv-x="572" 
d="M-45 -5q-9 0 -12 5t-2 11q4 15 26 21q36 11 53 21.5t27 41.5l141 456q10 32 1.5 45.5t-40.5 21.5q-11 3 -15 9t-2 12q2 7 12 11.5t32 4.5q14 0 36 -1.5t46 -3t44 -1.5l166 1q43 0 70 3.5t42.5 6.5t21.5 3q8 0 14 -5.5t6 -16.5q0 -13 -6.5 -36.5t-13 -49t-6.5 -46.5
q0 -10 -5.5 -15t-10.5 -5q-4 0 -9 4t-7 13q-7 58 -21 83t-52 25h-68q-25 0 -42 -16.5t-31 -65.5l-44 -153q-4 -13 1 -18.5t17 -5.5h84q26 0 45 17t35 45q5 9 13 13.5t14 4.5q5 0 7.5 -6t-2.5 -17q-9 -22 -17 -42.5t-14 -40.5t-11 -40t-10 -43q-4 -15 -9 -21.5t-10 -6.5
q-7 0 -12.5 7t-4.5 17q2 32 -4.5 50.5t-25.5 18.5h-97q-11 0 -18.5 -6t-10.5 -17l-50 -173q-11 -37 1.5 -57t52.5 -20h72q20 0 41 7t39 19q22 14 41 42.5t38 56.5q5 8 8.5 10t9.5 2t8.5 -5t2.5 -18q0 -11 -8.5 -37.5t-21.5 -56.5t-28 -50q-5 -7 -12.5 -9.5t-15.5 -2.5
q-4 0 -30 0.5t-65.5 1t-85.5 1t-91.5 1t-81.5 0.5q-20 0 -46.5 -1t-52.5 -2.5t-46 -1.5zM410 692q-31 0 -52 19.5t-21 43.5q0 41 32.5 70t82.5 29q32 0 52 -21.5t20 -48.5q0 -24 -16 -45t-42 -34t-56 -13z" />
    <glyph glyph-name="edotaccent" unicode="&#x117;" horiz-adv-x="389" 
d="M142 -15q-28 0 -60 16.5t-54.5 45t-22.5 64.5q0 65 23.5 123.5t62.5 104t87.5 72t97.5 26.5q63 0 90.5 -23.5t27.5 -54.5q0 -35 -23 -59.5t-59 -42t-77.5 -28.5t-77.5 -19q-4 -1 -6 -3t-3 -6t-1.5 -8.5t-1.5 -9.5q-1 -35 19.5 -62.5t61.5 -27.5q26 0 49 13.5t47 38.5
q11 12 17 12q9 0 9 -11q0 -3 -0.5 -7.5t-2.5 -7.5q-19 -37 -47.5 -70.5t-67 -54.5t-88.5 -21zM164 248q23 7 44.5 15.5t38.5 22t28 33t13 47.5q1 11 -6 22t-22 11q-17 0 -33 -11.5t-30.5 -31t-24.5 -46t-15 -56.5q-1 -8 7 -6zM301 505q-24 0 -40 18.5t-16 41.5q0 36 26 64
t64 28q26 0 40 -21t14 -44q0 -34 -26 -60.5t-62 -26.5z" />
    <glyph glyph-name="Eogonek" unicode="&#x118;" horiz-adv-x="600" 
d="M-45 -5q-9 0 -12 5t-2 11q4 15 26 21q36 11 53 21.5t27 41.5l141 456q10 32 1.5 45.5t-40.5 21.5q-11 3 -15 9t-2 12q2 7 12 11.5t32 4.5q14 0 36 -1.5t46 -3t44 -1.5l166 1q43 0 70 3.5t42.5 6.5t21.5 3q8 0 14 -5.5t6 -16.5q0 -13 -6.5 -36.5t-13 -49t-6.5 -46.5
q0 -10 -5.5 -15t-10.5 -5q-4 0 -9 4t-7 13q-7 58 -21 83t-52 25h-68q-25 0 -42 -16.5t-31 -65.5l-44 -153q-4 -13 1 -18.5t17 -5.5h84q26 0 45 17t35 45q5 9 13 13.5t14 4.5q5 0 7.5 -6t-2.5 -17q-9 -22 -17 -42.5t-14 -40.5t-11 -40t-10 -43q-4 -15 -9 -21.5t-10 -6.5
q-7 0 -12.5 7t-4.5 17q2 32 -4.5 50.5t-25.5 18.5h-97q-11 0 -18.5 -6t-10.5 -17l-50 -173q-11 -37 1.5 -57t52.5 -20h72q20 0 41 7t39 19q22 14 41 42.5t38 56.5q5 8 8.5 10t9.5 2t8.5 -5t2.5 -18q0 -11 -8.5 -37.5t-21.5 -56.5t-28 -50q-5 -7 -12.5 -9.5t-15.5 -2.5
q-4 0 -30 0.5t-65.5 1t-85.5 1t-91.5 1t-81.5 0.5q-20 0 -46.5 -1t-52.5 -2.5t-46 -1.5zM295 -287q-23 0 -43 13t-31.5 32.5t-11.5 39.5q0 38 19 70.5t49 60t64.5 49.5t66.5 40h44q-32 -22 -59.5 -55.5t-44 -68.5t-16.5 -64q0 -13 8 -20.5t24 -7.5q12 0 27.5 11t28.5 29
q2 2 4 5t5 5t7 2q7 0 8 -6t1 -11q0 -18 -14 -39.5t-36 -41t-48.5 -31.5t-51.5 -12z" />
    <glyph glyph-name="eogonek" unicode="&#x119;" horiz-adv-x="394" 
d="M142 -15q-28 0 -60 16.5t-54.5 45t-22.5 64.5q0 65 23.5 123.5t62.5 104t87.5 72t97.5 26.5q63 0 90.5 -23.5t27.5 -54.5q0 -35 -23 -59.5t-59 -42t-77.5 -28.5t-77.5 -19q-4 -1 -6 -3t-3 -6t-1.5 -8.5t-1.5 -9.5q-1 -35 19.5 -62.5t61.5 -27.5q26 0 49 13.5t47 38.5
q11 12 17 12q9 0 9 -11q0 -3 -0.5 -7.5t-2.5 -7.5q-19 -37 -47.5 -70.5t-67 -54.5t-88.5 -21zM164 248q23 7 44.5 15.5t38.5 22t28 33t13 47.5q1 11 -6 22t-22 11q-17 0 -33 -11.5t-30.5 -31t-24.5 -46t-15 -56.5q-1 -8 7 -6zM101 -287q-23 0 -43 13t-31.5 32.5t-11.5 39.5
q0 38 19 70.5t49 60t64.5 49.5t66.5 40h44q-32 -22 -59.5 -55.5t-44 -68.5t-16.5 -64q0 -13 8 -20.5t24 -7.5q12 0 27.5 11t28.5 29q2 2 4 5t5 5t7 2q7 0 8 -6t1 -11q0 -18 -14 -39.5t-36 -41t-48.5 -31.5t-51.5 -12z" />
    <glyph glyph-name="Ecaron" unicode="&#x11a;" horiz-adv-x="572" 
d="M-45 -5q-9 0 -12 5t-2 11q4 15 26 21q36 11 53 21.5t27 41.5l141 456q10 32 1.5 45.5t-40.5 21.5q-11 3 -15 9t-2 12q2 7 12 11.5t32 4.5q14 0 36 -1.5t46 -3t44 -1.5l166 1q43 0 70 3.5t42.5 6.5t21.5 3q8 0 14 -5.5t6 -16.5q0 -13 -6.5 -36.5t-13 -49t-6.5 -46.5
q0 -10 -5.5 -15t-10.5 -5q-4 0 -9 4t-7 13q-7 58 -21 83t-52 25h-68q-25 0 -42 -16.5t-31 -65.5l-44 -153q-4 -13 1 -18.5t17 -5.5h84q26 0 45 17t35 45q5 9 13 13.5t14 4.5q5 0 7.5 -6t-2.5 -17q-9 -22 -17 -42.5t-14 -40.5t-11 -40t-10 -43q-4 -15 -9 -21.5t-10 -6.5
q-7 0 -12.5 7t-4.5 17q2 32 -4.5 50.5t-25.5 18.5h-97q-11 0 -18.5 -6t-10.5 -17l-50 -173q-11 -37 1.5 -57t52.5 -20h72q20 0 41 7t39 19q22 14 41 42.5t38 56.5q5 8 8.5 10t9.5 2t8.5 -5t2.5 -18q0 -11 -8.5 -37.5t-21.5 -56.5t-28 -50q-5 -7 -12.5 -9.5t-15.5 -2.5
q-4 0 -30 0.5t-65.5 1t-85.5 1t-91.5 1t-81.5 0.5q-20 0 -46.5 -1t-52.5 -2.5t-46 -1.5zM406 698q-14 0 -22 7t-21 23l-76 96q-6 8 -4 16q3 13 24 13q8 0 28.5 -8.5t42.5 -20.5t35 -21q5 -4 10.5 -4t13.5 4q15 7 40 15.5t51.5 16.5t47 13.5t27.5 5.5q16 0 16 -13
q0 -11 -12 -20l-139 -93q-23 -16 -35 -23t-27 -7z" />
    <glyph glyph-name="ecaron" unicode="&#x11b;" horiz-adv-x="389" 
d="M142 -15q-28 0 -60 16.5t-54.5 45t-22.5 64.5q0 65 23.5 123.5t62.5 104t87.5 72t97.5 26.5q63 0 90.5 -23.5t27.5 -54.5q0 -35 -23 -59.5t-59 -42t-77.5 -28.5t-77.5 -19q-4 -1 -6 -3t-3 -6t-1.5 -8.5t-1.5 -9.5q-1 -35 19.5 -62.5t61.5 -27.5q26 0 49 13.5t47 38.5
q11 12 17 12q9 0 9 -11q0 -3 -0.5 -7.5t-2.5 -7.5q-19 -37 -47.5 -70.5t-67 -54.5t-88.5 -21zM164 248q23 7 44.5 15.5t38.5 22t28 33t13 47.5q1 11 -6 22t-22 11q-17 0 -33 -11.5t-30.5 -31t-24.5 -46t-15 -56.5q-1 -8 7 -6zM288 473q-10 0 -15 10.5t-11 32.5
q-4 17 -9.5 33.5t-10.5 33t-9.5 33t-7.5 33.5q-4 18 1 31.5t21 13.5t32 -35q6 -13 15.5 -30t22.5 -37q4 -6 12 0q23 20 45 38t36 30q20 17 33 25.5t20 8.5q11 0 11 -13q0 -6 -3.5 -14t-11.5 -18q-19 -22 -39 -44.5l-40 -45t-40 -45.5q-17 -19 -29 -30t-23 -11z" />
    <glyph glyph-name="Gcircumflex" unicode="&#x11c;" horiz-adv-x="734" 
d="M328 -14q-75 0 -134 26.5t-95.5 76.5t-44.5 119.5t18 154.5q19 61 59.5 115.5t99 96t132 65.5t157.5 24q35 0 62 -6.5t47 -13.5q19 -6 30 -9.5t23 -3.5q7 0 13 1t13 5q8 5 15.5 8t14.5 3q11 0 13 -7.5t-5 -16.5q-13 -17 -27.5 -46t-26.5 -60.5t-20 -57.5q-3 -10 -8 -16.5
t-16 -6.5q-22 0 -19 44q2 31 -1.5 56.5t-17.5 44.5q-14 20 -40.5 33t-55.5 13q-41 0 -82 -19t-79.5 -58t-72.5 -100t-60 -145q-18 -59 -15.5 -110.5t22 -90t54 -60.5t79.5 -22q36 0 62.5 24.5t36.5 55.5l34 112q3 11 1 20.5t-16 15.5q-13 6 -31.5 10.5t-30.5 7.5
q-8 2 -14.5 8t-3.5 15q2 7 10 11t16 4q22 0 52 -2.5t59 -5t49 -2.5q29 0 61 4.5t80 4.5q16 0 11 -15q-3 -10 -9 -14.5t-16 -6.5q-32 -7 -45.5 -18t-24.5 -31q-8 -15 -17.5 -37t-16 -41t-6.5 -26q0 -11 6 -20t16 -20q-9 -18 -43 -34t-80 -29t-92.5 -20.5t-79.5 -7.5zM370 692
q-21 0 -16 13q3 8 14 16l133 96q23 17 35 23.5t26 6.5q15 0 23 -6.5t21 -23.5l78 -95q4 -4 4 -8.5t-1 -8.5q-3 -14 -21 -14q-9 0 -30.5 9t-45 20.5t-38.5 19.5q-12 7 -26 0q-14 -6 -36 -14.5t-45.5 -16t-43.5 -12.5t-31 -5z" />
    <glyph glyph-name="gcircumflex" unicode="&#x11d;" horiz-adv-x="480" 
d="M123 -290q-63 0 -114 13.5t-81.5 37t-30.5 52.5t25 52t67.5 41t96.5 32q13 4 2 9q-20 10 -37.5 29.5t-17.5 40.5q0 24 25.5 41.5t61.5 36.5q7 4 10.5 7.5t3.5 5.5q0 4 -10 9q-17 8 -36.5 23.5t-32.5 38t-13 49.5q0 31 14.5 67t43 68.5t72.5 53t102 20.5q18 0 37 -5.5
t35 -12.5q17 -7 31.5 -13t22.5 -6q19 0 35 4t30.5 8t27.5 4q7 0 17 -5.5t10 -22.5t-8 -30t-21 -13q-9 0 -19.5 1.5t-22.5 3t-24 1.5q-4 0 -8 -1.5t-2 -9.5q2 -6 2 -12v-13q0 -40 -16 -79t-45 -70t-69 -49.5t-88 -18.5q-10 0 -20.5 1.5t-15.5 -0.5q-10 -5 -10 -14
q0 -10 11 -21.5t27 -22.5q20 -13 45 -28.5t51.5 -31.5t50.5 -32q25 -16 39 -36t14 -41q0 -30 -23 -59t-61.5 -52t-86 -37t-97.5 -14zM168 -253q24 0 47.5 8.5t39.5 23t16 33.5q0 10 -7.5 21.5t-18.5 18.5q-23 16 -54.5 34.5t-50.5 27.5q-6 3 -13 3q-5 0 -9 -1t-9 -3
q-46 -13 -68 -31.5t-22 -53.5q0 -21 14.5 -39.5t47.5 -30t87 -11.5zM178 141q17 -2 36 13.5t36.5 42t31.5 57.5t22.5 60.5t8.5 49.5t-7 30t-18 10q-15 0 -32.5 -16.5t-34.5 -43t-31 -57t-22.5 -58t-8.5 -46.5q0 -22 5.5 -31.5t13.5 -10.5zM384 698q10 0 15 -10.5t11 -32.5
q4 -17 9.5 -33.5t10.5 -33t9.5 -33t7.5 -33.5q4 -18 -1 -31.5t-21 -13.5t-32 35q-6 13 -15.5 30t-22.5 37q-4 6 -12 0q-23 -20 -45 -38t-36 -30q-20 -17 -33 -25.5t-20 -8.5q-11 0 -11 13q0 6 3.5 14t11.5 18q19 22 39 44.5l40 45t40 45.5q17 19 29 30t23 11z" />
    <glyph glyph-name="Gbreve" unicode="&#x11e;" horiz-adv-x="734" 
d="M328 -14q-75 0 -134 26.5t-95.5 76.5t-44.5 119.5t18 154.5q19 61 59.5 115.5t99 96t132 65.5t157.5 24q35 0 62 -6.5t47 -13.5q19 -6 30 -9.5t23 -3.5q7 0 13 1t13 5q8 5 15.5 8t14.5 3q11 0 13 -7.5t-5 -16.5q-13 -17 -27.5 -46t-26.5 -60.5t-20 -57.5q-3 -10 -8 -16.5
t-16 -6.5q-22 0 -19 44q2 31 -1.5 56.5t-17.5 44.5q-14 20 -40.5 33t-55.5 13q-41 0 -82 -19t-79.5 -58t-72.5 -100t-60 -145q-18 -59 -15.5 -110.5t22 -90t54 -60.5t79.5 -22q36 0 62.5 24.5t36.5 55.5l34 112q3 11 1 20.5t-16 15.5q-13 6 -31.5 10.5t-30.5 7.5
q-8 2 -14.5 8t-3.5 15q2 7 10 11t16 4q22 0 52 -2.5t59 -5t49 -2.5q29 0 61 4.5t80 4.5q16 0 11 -15q-3 -10 -9 -14.5t-16 -6.5q-32 -7 -45.5 -18t-24.5 -31q-8 -15 -17.5 -37t-16 -41t-6.5 -26q0 -11 6 -20t16 -20q-9 -18 -43 -34t-80 -29t-92.5 -20.5t-79.5 -7.5zM531 685
q-44 0 -72.5 19t-42.5 45.5t-14 49.5q0 17 6.5 29t19.5 12q9 0 13 -6t10 -16q16 -25 35 -35.5t54 -10.5t61 9t54 37q11 11 19.5 16.5t17.5 5.5q13 0 13 -20q0 -16 -10 -38.5t-31 -44.5t-54 -37t-79 -15z" />
    <glyph glyph-name="gbreve" unicode="&#x11f;" horiz-adv-x="480" 
d="M123 -290q-63 0 -114 13.5t-81.5 37t-30.5 52.5t25 52t67.5 41t96.5 32q13 4 2 9q-20 10 -37.5 29.5t-17.5 40.5q0 24 25.5 41.5t61.5 36.5q7 4 10.5 7.5t3.5 5.5q0 4 -10 9q-17 8 -36.5 23.5t-32.5 38t-13 49.5q0 31 14.5 67t43 68.5t72.5 53t102 20.5q18 0 37 -5.5
t35 -12.5q17 -7 31.5 -13t22.5 -6q19 0 35 4t30.5 8t27.5 4q7 0 17 -5.5t10 -22.5t-8 -30t-21 -13q-9 0 -19.5 1.5t-22.5 3t-24 1.5q-4 0 -8 -1.5t-2 -9.5q2 -6 2 -12v-13q0 -40 -16 -79t-45 -70t-69 -49.5t-88 -18.5q-10 0 -20.5 1.5t-15.5 -0.5q-10 -5 -10 -14
q0 -10 11 -21.5t27 -22.5q20 -13 45 -28.5t51.5 -31.5t50.5 -32q25 -16 39 -36t14 -41q0 -30 -23 -59t-61.5 -52t-86 -37t-97.5 -14zM168 -253q24 0 47.5 8.5t39.5 23t16 33.5q0 10 -7.5 21.5t-18.5 18.5q-23 16 -54.5 34.5t-50.5 27.5q-6 3 -13 3q-5 0 -9 -1t-9 -3
q-46 -13 -68 -31.5t-22 -53.5q0 -21 14.5 -39.5t47.5 -30t87 -11.5zM178 141q17 -2 36 13.5t36.5 42t31.5 57.5t22.5 60.5t8.5 49.5t-7 30t-18 10q-15 0 -32.5 -16.5t-34.5 -43t-31 -57t-22.5 -58t-8.5 -46.5q0 -22 5.5 -31.5t13.5 -10.5zM316 475q-45 0 -70 19.5t-32 48.5
t1 56q5 19 16 27.5t20 8.5t12.5 -5.5t2.5 -15.5q-2 -29 15 -40.5t52 -11.5t59 11.5t40 40.5q5 10 12.5 15.5t16.5 5.5t13 -8.5t1 -27.5q-3 -20 -23 -49.5t-54.5 -52t-81.5 -22.5z" />
    <glyph glyph-name="Gdotaccent" unicode="&#x120;" horiz-adv-x="734" 
d="M328 -14q-75 0 -134 26.5t-95.5 76.5t-44.5 119.5t18 154.5q19 61 59.5 115.5t99 96t132 65.5t157.5 24q35 0 62 -6.5t47 -13.5q19 -6 30 -9.5t23 -3.5q7 0 13 1t13 5q8 5 15.5 8t14.5 3q11 0 13 -7.5t-5 -16.5q-13 -17 -27.5 -46t-26.5 -60.5t-20 -57.5q-3 -10 -8 -16.5
t-16 -6.5q-22 0 -19 44q2 31 -1.5 56.5t-17.5 44.5q-14 20 -40.5 33t-55.5 13q-41 0 -82 -19t-79.5 -58t-72.5 -100t-60 -145q-18 -59 -15.5 -110.5t22 -90t54 -60.5t79.5 -22q36 0 62.5 24.5t36.5 55.5l34 112q3 11 1 20.5t-16 15.5q-13 6 -31.5 10.5t-30.5 7.5
q-8 2 -14.5 8t-3.5 15q2 7 10 11t16 4q22 0 52 -2.5t59 -5t49 -2.5q29 0 61 4.5t80 4.5q16 0 11 -15q-3 -10 -9 -14.5t-16 -6.5q-32 -7 -45.5 -18t-24.5 -31q-8 -15 -17.5 -37t-16 -41t-6.5 -26q0 -11 6 -20t16 -20q-9 -18 -43 -34t-80 -29t-92.5 -20.5t-79.5 -7.5zM523 692
q-31 0 -52 19.5t-21 43.5q0 41 32.5 70t82.5 29q32 0 52 -21.5t20 -48.5q0 -24 -16 -45t-42 -34t-56 -13z" />
    <glyph glyph-name="gdotaccent" unicode="&#x121;" horiz-adv-x="480" 
d="M123 -290q-63 0 -114 13.5t-81.5 37t-30.5 52.5t25 52t67.5 41t96.5 32q13 4 2 9q-20 10 -37.5 29.5t-17.5 40.5q0 24 25.5 41.5t61.5 36.5q7 4 10.5 7.5t3.5 5.5q0 4 -10 9q-17 8 -36.5 23.5t-32.5 38t-13 49.5q0 31 14.5 67t43 68.5t72.5 53t102 20.5q18 0 37 -5.5
t35 -12.5q17 -7 31.5 -13t22.5 -6q19 0 35 4t30.5 8t27.5 4q7 0 17 -5.5t10 -22.5t-8 -30t-21 -13q-9 0 -19.5 1.5t-22.5 3t-24 1.5q-4 0 -8 -1.5t-2 -9.5q2 -6 2 -12v-13q0 -40 -16 -79t-45 -70t-69 -49.5t-88 -18.5q-10 0 -20.5 1.5t-15.5 -0.5q-10 -5 -10 -14
q0 -10 11 -21.5t27 -22.5q20 -13 45 -28.5t51.5 -31.5t50.5 -32q25 -16 39 -36t14 -41q0 -30 -23 -59t-61.5 -52t-86 -37t-97.5 -14zM168 -253q24 0 47.5 8.5t39.5 23t16 33.5q0 10 -7.5 21.5t-18.5 18.5q-23 16 -54.5 34.5t-50.5 27.5q-6 3 -13 3q-5 0 -9 -1t-9 -3
q-46 -13 -68 -31.5t-22 -53.5q0 -21 14.5 -39.5t47.5 -30t87 -11.5zM178 141q17 -2 36 13.5t36.5 42t31.5 57.5t22.5 60.5t8.5 49.5t-7 30t-18 10q-15 0 -32.5 -16.5t-34.5 -43t-31 -57t-22.5 -58t-8.5 -46.5q0 -22 5.5 -31.5t13.5 -10.5zM320 505q-24 0 -40 18.5t-16 41.5
q0 36 26 64t64 28q26 0 40 -21t14 -44q0 -34 -26 -60.5t-62 -26.5z" />
    <glyph glyph-name="uni0122" unicode="&#x122;" horiz-adv-x="734" 
d="M328 -14q-75 0 -134 26.5t-95.5 76.5t-44.5 119.5t18 154.5q19 61 59.5 115.5t99 96t132 65.5t157.5 24q35 0 62 -6.5t47 -13.5q19 -6 30 -9.5t23 -3.5q7 0 13 1t13 5q8 5 15.5 8t14.5 3q11 0 13 -7.5t-5 -16.5q-13 -17 -27.5 -46t-26.5 -60.5t-20 -57.5q-3 -10 -8 -16.5
t-16 -6.5q-22 0 -19 44q2 31 -1.5 56.5t-17.5 44.5q-14 20 -40.5 33t-55.5 13q-41 0 -82 -19t-79.5 -58t-72.5 -100t-60 -145q-18 -59 -15.5 -110.5t22 -90t54 -60.5t79.5 -22q36 0 62.5 24.5t36.5 55.5l34 112q3 11 1 20.5t-16 15.5q-13 6 -31.5 10.5t-30.5 7.5
q-8 2 -14.5 8t-3.5 15q2 7 10 11t16 4q22 0 52 -2.5t59 -5t49 -2.5q29 0 61 4.5t80 4.5q16 0 11 -15q-3 -10 -9 -14.5t-16 -6.5q-32 -7 -45.5 -18t-24.5 -31q-8 -15 -17.5 -37t-16 -41t-6.5 -26q0 -11 6 -20t16 -20q-9 -18 -43 -34t-80 -29t-92.5 -20.5t-79.5 -7.5z
M174 -294q-24 0 -24 14q0 7 5.5 12.5t18.5 9.5q29 8 49.5 19.5t31.5 26t11 30.5q0 13 -9 20.5t-20 12.5q-14 7 -20.5 17t-6.5 23q0 27 21 43.5t56 16.5q38 0 56.5 -22t18.5 -57q0 -26 -16 -55t-42.5 -54t-60 -41t-69.5 -16z" />
    <glyph glyph-name="uni0123" unicode="&#x123;" horiz-adv-x="480" 
d="M123 -290q-63 0 -114 13.5t-81.5 37t-30.5 52.5t25 52t67.5 41t96.5 32q13 4 2 9q-20 10 -37.5 29.5t-17.5 40.5q0 24 25.5 41.5t61.5 36.5q7 4 10.5 7.5t3.5 5.5q0 4 -10 9q-17 8 -36.5 23.5t-32.5 38t-13 49.5q0 31 14.5 67t43 68.5t72.5 53t102 20.5q18 0 37 -5.5
t35 -12.5q17 -7 31.5 -13t22.5 -6q19 0 35 4t30.5 8t27.5 4q7 0 17 -5.5t10 -22.5t-8 -30t-21 -13q-9 0 -19.5 1.5t-22.5 3t-24 1.5q-4 0 -8 -1.5t-2 -9.5q2 -6 2 -12v-13q0 -40 -16 -79t-45 -70t-69 -49.5t-88 -18.5q-10 0 -20.5 1.5t-15.5 -0.5q-10 -5 -10 -14
q0 -10 11 -21.5t27 -22.5q20 -13 45 -28.5t51.5 -31.5t50.5 -32q25 -16 39 -36t14 -41q0 -30 -23 -59t-61.5 -52t-86 -37t-97.5 -14zM168 -253q24 0 47.5 8.5t39.5 23t16 33.5q0 10 -7.5 21.5t-18.5 18.5q-23 16 -54.5 34.5t-50.5 27.5q-6 3 -13 3q-5 0 -9 -1t-9 -3
q-46 -13 -68 -31.5t-22 -53.5q0 -21 14.5 -39.5t47.5 -30t87 -11.5zM178 141q17 -2 36 13.5t36.5 42t31.5 57.5t22.5 60.5t8.5 49.5t-7 30t-18 10q-15 0 -32.5 -16.5t-34.5 -43t-31 -57t-22.5 -58t-8.5 -46.5q0 -22 5.5 -31.5t13.5 -10.5zM437 707q24 0 24 -14
q0 -7 -5.5 -12.5t-18.5 -9.5q-29 -8 -49.5 -19.5t-31.5 -26t-11 -30.5q0 -13 9 -20.5t20 -12.5q14 -7 20.5 -17t6.5 -23q0 -27 -21 -43.5t-56 -16.5q-38 0 -56.5 22t-18.5 57q0 26 16 55t42.5 54t60 41t69.5 16z" />
    <glyph glyph-name="Hcircumflex" unicode="&#x124;" horiz-adv-x="786" 
d="M-33 -3q-6 0 -10.5 4t-2.5 11q3 9 9.5 14.5t16.5 7.5q36 8 52.5 20t26.5 43l141 454q10 32 1.5 45t-41.5 22q-8 2 -11.5 7.5t-0.5 14.5q2 7 9.5 11t13.5 4q22 0 47.5 -1t50 -2.5t44.5 -1.5t48.5 1t58 2t50.5 1q16 0 11 -15q-3 -10 -9 -14t-17 -7q-30 -8 -46.5 -16
t-25 -20t-14.5 -32l-55 -181q-4 -15 11 -15h227q15 0 19 15l55 181q9 30 1 41.5t-45 26.5q-7 3 -11 7t-1 14q2 8 8 11.5t13 3.5q21 0 49.5 -1t56.5 -2t47 -1q20 0 45.5 1.5t52 2.5t48.5 1q6 0 10.5 -4t2.5 -11q-6 -17 -26 -22q-37 -9 -53.5 -22t-26.5 -45l-141 -454
q-10 -31 0 -43t41 -20q8 -2 11.5 -7.5t0.5 -14.5q-2 -7 -9.5 -11t-13.5 -4q-19 0 -44.5 1.5t-51.5 2.5t-46 1q-19 0 -48 -1t-58.5 -2t-50.5 -1q-15 0 -11 15q3 10 9.5 14t16.5 7q42 12 59 24t25 40l58 191q3 8 1.5 12.5t-9.5 4.5h-227q-17 0 -22 -17l-58 -191
q-8 -28 1.5 -39t44.5 -25q8 -3 11.5 -7t0.5 -14q-2 -7 -7.5 -11t-13.5 -4q-21 0 -49.5 1t-56 2t-47.5 1t-47 -1t-53.5 -2.5t-45.5 -1.5zM395 692q-21 0 -16 13q3 8 14 16l133 96q23 17 35 23.5t26 6.5q15 0 23 -6.5t21 -23.5l78 -95q4 -4 4 -8.5t-1 -8.5q-3 -14 -21 -14
q-9 0 -30.5 9t-45 20.5t-38.5 19.5q-12 7 -26 0q-14 -6 -36 -14.5t-45.5 -16t-43.5 -12.5t-31 -5z" />
    <glyph glyph-name="hcircumflex" unicode="&#x125;" horiz-adv-x="544" 
d="M108 -14q-9 0 -23.5 6.5t-26.5 18.5t-12 28q0 17 3.5 34t10.5 38l133 424q5 15 7.5 28.5t2.5 26.5q0 14 -12.5 21.5t-26.5 12.5q-7 3 -13.5 6.5t-6.5 9.5t5 10.5t24 11.5q12 4 37.5 11.5t54 15t51.5 13t32 5.5q8 0 18 -1.5t10 -12.5q0 -13 -3 -22.5t-7 -20.5l-140 -415
q-2 -7 2.5 -7.5t8.5 5.5q35 56 76 102.5t84 74t84 27.5q43 0 64.5 -26.5t21.5 -64.5q0 -53 -12.5 -99.5t-34 -87.5t-48.5 -76q-7 -9 -28 -25t-47.5 -32.5t-50 -28t-34.5 -11.5q-14 0 -29 8.5t-25.5 20t-10.5 19.5q0 5 5.5 17.5t14 23.5t17.5 11q11 0 16.5 -5.5l13.5 -13.5
q8 -7 16 -13.5t18 -6.5q9 0 19 20.5t19.5 53t16.5 70t11.5 73t4.5 60.5q0 15 -5.5 24.5t-17.5 9.5t-30 -20.5t-40.5 -55.5t-48 -77.5t-52 -86.5t-52.5 -83q-17 -26 -33.5 -37.5t-31.5 -11.5zM191 737q-21 0 -16 13q2 4 5.5 8t8.5 8l119 81q24 17 36 23.5t26 6.5t21.5 -6.5
t20.5 -23.5l69 -81q8 -10 2 -19.5t-22 -9.5q-6 0 -17 3t-25 10l-63 31q-6 2 -12 2.5t-14 -2.5l-101 -35q-13 -4 -23 -6.5t-15 -2.5z" />
    <glyph glyph-name="Hbar" unicode="&#x126;" horiz-adv-x="800" 
d="M124 447q-11 0 -15.5 9t-0.5 22q5 14 15.5 22.5t23.5 8.5h692q10 0 14.5 -5.5t2.5 -13.5q-4 -15 -22 -29t-35 -14h-675zM-33 -3q-6 0 -10.5 4t-2.5 11q3 9 9.5 14.5t16.5 7.5q36 8 52.5 20t26.5 43l141 454q10 32 1.5 45t-41.5 22q-8 2 -11.5 7.5t-0.5 14.5q2 7 9.5 11
t13.5 4q22 0 47.5 -1t50 -2.5t44.5 -1.5t48.5 1t58 2t50.5 1q16 0 11 -15q-3 -10 -9 -14t-17 -7q-30 -8 -46.5 -16t-25 -20t-14.5 -32l-55 -181q-4 -15 11 -15h227q15 0 19 15l55 181q9 30 1 41.5t-45 26.5q-7 3 -11 7t-1 14q2 8 8 11.5t13 3.5q21 0 49.5 -1t56.5 -2t47 -1
q20 0 45.5 1.5t52 2.5t48.5 1q6 0 10.5 -4t2.5 -11q-6 -17 -26 -22q-37 -9 -53.5 -22t-26.5 -45l-141 -454q-10 -31 0 -43t41 -20q8 -2 11.5 -7.5t0.5 -14.5q-2 -7 -9.5 -11t-13.5 -4q-19 0 -44.5 1.5t-51.5 2.5t-46 1q-19 0 -48 -1t-58.5 -2t-50.5 -1q-15 0 -11 15
q3 10 9.5 14t16.5 7q42 12 59 24t25 40l58 191q3 8 1.5 12.5t-9.5 4.5h-227q-17 0 -22 -17l-58 -191q-8 -28 1.5 -39t44.5 -25q8 -3 11.5 -7t0.5 -14q-2 -7 -7.5 -11t-13.5 -4q-21 0 -49.5 1t-56 2t-47.5 1t-47 -1t-53.5 -2.5t-45.5 -1.5z" />
    <glyph glyph-name="hbar" unicode="&#x127;" horiz-adv-x="579" 
d="M123 491q-13 0 -15.5 10.5t1.5 20.5q5 14 15.5 22.5t23.5 8.5l284 1q10 0 15.5 -6t1.5 -13q-1 -1 -1.5 -5t-1.5 -6q-7 -13 -20 -22.5t-30 -9.5zM108 -14q-9 0 -23.5 6.5t-26.5 18.5t-12 28q0 17 3.5 34t10.5 38l133 424q5 15 7.5 28.5t2.5 26.5q0 14 -12.5 21.5
t-26.5 12.5q-7 3 -13.5 6.5t-6.5 9.5t5 10.5t24 11.5q12 4 37.5 11.5t54 15t51.5 13t32 5.5q8 0 18 -1.5t10 -12.5q0 -13 -3 -22.5t-7 -20.5l-140 -415q-2 -7 2.5 -7.5t8.5 5.5q35 56 76 102.5t84 74t84 27.5q43 0 64.5 -26.5t21.5 -64.5q0 -53 -12.5 -99.5t-34 -87.5
t-48.5 -76q-7 -9 -28 -25t-47.5 -32.5t-50 -28t-34.5 -11.5q-14 0 -29 8.5t-25.5 20t-10.5 19.5q0 5 5.5 17.5t14 23.5t17.5 11q11 0 16.5 -5.5l13.5 -13.5q8 -7 16 -13.5t18 -6.5q9 0 19 20.5t19.5 53t16.5 70t11.5 73t4.5 60.5q0 15 -5.5 24.5t-17.5 9.5t-30 -20.5
t-40.5 -55.5t-48 -77.5t-52 -86.5t-52.5 -83q-17 -26 -33.5 -37.5t-31.5 -11.5z" />
    <glyph glyph-name="Itilde" unicode="&#x128;" horiz-adv-x="381" 
d="M-33 -3q-6 0 -10.5 4t-2.5 11q6 17 26 22q41 9 58 20.5t27 42.5l141 454q10 32 1 44.5t-47 22.5q-8 2 -11.5 7.5t-0.5 14.5q2 7 9.5 11t13.5 4q22 0 49 -1t53 -2.5t46 -1.5t48.5 1t58 2t50.5 1q16 0 11 -15q-3 -10 -9 -14t-17 -7q-30 -8 -46.5 -16t-25 -20t-14.5 -32
l-126 -408q-12 -40 -15 -60t6.5 -28.5t31.5 -14.5q23 -6 29.5 -11t3.5 -15q-2 -7 -7.5 -11t-13.5 -4q-21 0 -52.5 1t-62 2t-50.5 1q-30 0 -74.5 -2.5t-77.5 -2.5zM205 691q-5 0 -12 6.5t-7 9.5q0 6 9 22.5t22.5 35.5t26 32.5t19.5 13.5q19 0 41.5 -1.5t44.5 -2.5
q19 -1 41 -2t47 -1q11 0 19.5 6.5t15.5 13.5q8 8 12.5 15t7.5 7q5 0 14 -7t9 -12q0 -4 -4.5 -11t-13.5 -20q-11 -16 -20.5 -31.5t-18.5 -29.5q-6 -9 -15 -11.5t-16 -2.5q-9 0 -33 2t-53.5 4t-54.5 4t-34 2q-8 0 -15.5 -6.5t-13.5 -14.5t-11 -14.5t-7 -6.5z" />
    <glyph glyph-name="itilde" unicode="&#x129;" horiz-adv-x="340" 
d="M90 -14q-25 0 -45 19.5t-20 38.5q0 5 1 10.5t4 12.5q26 59 50.5 119t48.5 118q2 5 -4 5q-8 0 -18 -4.5t-20.5 -11t-21.5 -12.5q-15 -8 -21 -3.5t-6 12.5t14.5 23.5t37.5 34t49 36.5t49.5 31.5t37.5 18.5q16 6 33 -1.5t26.5 -21t4.5 -26.5l-110 -274q-1 -3 -1.5 -6.5
t-0.5 -5.5q0 -3 1.5 -5t3.5 -2q7 0 26 11.5t40 27t34 28.5q3 3 4 3q6 0 10 -5t4 -11q0 -18 -22 -45t-55 -53.5t-69 -44t-65 -17.5zM149 464q-4 0 -13.5 8t-9.5 12q0 6 12 24t29 39.5t32.5 37t21.5 15.5q10 0 24 -3t48 -5q23 -1 42 -2.5t28 -1.5q18 0 35 20q10 12 14.5 18.5
t8.5 6.5q5 0 14 -7.5t9 -12.5q0 -4 -6 -12t-15 -21q-11 -16 -22.5 -34.5t-20.5 -32.5q-6 -9 -15 -11.5t-16 -2.5q-9 0 -30 1.5t-46 3t-46.5 3t-30.5 1.5q-11 0 -19 -11q-13 -18 -18.5 -25.5t-9.5 -7.5z" />
    <glyph glyph-name="Imacron" unicode="&#x12a;" horiz-adv-x="381" 
d="M-33 -3q-6 0 -10.5 4t-2.5 11q6 17 26 22q41 9 58 20.5t27 42.5l141 454q10 32 1 44.5t-47 22.5q-8 2 -11.5 7.5t-0.5 14.5q2 7 9.5 11t13.5 4q22 0 49 -1t53 -2.5t46 -1.5t48.5 1t58 2t50.5 1q16 0 11 -15q-3 -10 -9 -14t-17 -7q-30 -8 -46.5 -16t-25 -20t-14.5 -32
l-126 -408q-12 -40 -15 -60t6.5 -28.5t31.5 -14.5q23 -6 29.5 -11t3.5 -15q-2 -7 -7.5 -11t-13.5 -4q-21 0 -52.5 1t-62 2t-50.5 1q-30 0 -74.5 -2.5t-77.5 -2.5zM208 716q-10 0 -15.5 6t-5.5 13q0 30 13 48.5t27 18.5h270q10 0 15 -5.5t5 -13.5q0 -26 -13 -46.5t-30 -20.5
h-266z" />
    <glyph glyph-name="imacron" unicode="&#x12b;" horiz-adv-x="340" 
d="M90 -14q-25 0 -45 19.5t-20 38.5q0 5 1 10.5t4 12.5q26 59 50.5 119t48.5 118q2 5 -4 5q-8 0 -18 -4.5t-20.5 -11t-21.5 -12.5q-15 -8 -21 -3.5t-6 12.5t14.5 23.5t37.5 34t49 36.5t49.5 31.5t37.5 18.5q16 6 33 -1.5t26.5 -21t4.5 -26.5l-110 -274q-1 -3 -1.5 -6.5
t-0.5 -5.5q0 -3 1.5 -5t3.5 -2q7 0 26 11.5t40 27t34 28.5q3 3 4 3q6 0 10 -5t4 -11q0 -18 -22 -45t-55 -53.5t-69 -44t-65 -17.5zM126 507q-10 0 -13 5t-3 14q0 17 10 32.5t23 25t22 9.5h261q24 0 24 -14q0 -12 -9.5 -29t-23 -30t-26.5 -13h-265z" />
    <glyph glyph-name="Ibreve" unicode="&#x12c;" horiz-adv-x="381" 
d="M-33 -3q-6 0 -10.5 4t-2.5 11q6 17 26 22q41 9 58 20.5t27 42.5l141 454q10 32 1 44.5t-47 22.5q-8 2 -11.5 7.5t-0.5 14.5q2 7 9.5 11t13.5 4q22 0 49 -1t53 -2.5t46 -1.5t48.5 1t58 2t50.5 1q16 0 11 -15q-3 -10 -9 -14t-17 -7q-30 -8 -46.5 -16t-25 -20t-14.5 -32
l-126 -408q-12 -40 -15 -60t6.5 -28.5t31.5 -14.5q23 -6 29.5 -11t3.5 -15q-2 -7 -7.5 -11t-13.5 -4q-21 0 -52.5 1t-62 2t-50.5 1q-30 0 -74.5 -2.5t-77.5 -2.5zM346 685q-44 0 -72.5 19t-42.5 45.5t-14 49.5q0 17 6.5 29t19.5 12q9 0 13 -6t10 -16q16 -25 35 -35.5
t54 -10.5t61 9t54 37q11 11 19.5 16.5t17.5 5.5q13 0 13 -20q0 -16 -10 -38.5t-31 -44.5t-54 -37t-79 -15z" />
    <glyph glyph-name="ibreve" unicode="&#x12d;" horiz-adv-x="340" 
d="M90 -14q-25 0 -45 19.5t-20 38.5q0 5 1 10.5t4 12.5q26 59 50.5 119t48.5 118q2 5 -4 5q-8 0 -18 -4.5t-20.5 -11t-21.5 -12.5q-15 -8 -21 -3.5t-6 12.5t14.5 23.5t37.5 34t49 36.5t49.5 31.5t37.5 18.5q16 6 33 -1.5t26.5 -21t4.5 -26.5l-110 -274q-1 -3 -1.5 -6.5
t-0.5 -5.5q0 -3 1.5 -5t3.5 -2q7 0 26 11.5t40 27t34 28.5q3 3 4 3q6 0 10 -5t4 -11q0 -18 -22 -45t-55 -53.5t-69 -44t-65 -17.5zM266 472q-45 0 -70 19.5t-32 48.5t1 56q5 19 16 27.5t20 8.5t12.5 -5.5t2.5 -15.5q-2 -29 15 -40.5t52 -11.5t59 11.5t40 40.5
q5 10 12.5 15.5t16.5 5.5t13 -8.5t1 -27.5q-3 -20 -23 -49.5t-54.5 -52t-81.5 -22.5z" />
    <glyph glyph-name="Iogonek" unicode="&#x12e;" horiz-adv-x="370" 
d="M-33 -3q-6 0 -10.5 4t-2.5 11q6 17 26 22q41 9 58 20.5t27 42.5l141 454q10 32 1 44.5t-47 22.5q-8 2 -11.5 7.5t-0.5 14.5q2 7 9.5 11t13.5 4q22 0 49 -1t53 -2.5t46 -1.5t48.5 1t58 2t50.5 1q16 0 11 -15q-3 -10 -9 -14t-17 -7q-30 -8 -46.5 -16t-25 -20t-14.5 -32
l-126 -408q-12 -40 -15 -60t6.5 -28.5t31.5 -14.5q23 -6 29.5 -11t3.5 -15q-2 -7 -7.5 -11t-13.5 -4q-21 0 -52.5 1t-62 2t-50.5 1q-30 0 -74.5 -2.5t-77.5 -2.5zM49 -287q-23 0 -43 13t-31.5 32.5t-11.5 39.5q0 38 19 70.5t49 60t64.5 49.5t66.5 40h44q-32 -22 -59.5 -55.5
t-44 -68.5t-16.5 -64q0 -13 8 -20.5t24 -7.5q12 0 27.5 11t28.5 29q2 2 4 5t5 5t7 2q7 0 8 -6t1 -11q0 -18 -14 -39.5t-36 -41t-48.5 -31.5t-51.5 -12z" />
    <glyph glyph-name="iogonek" unicode="&#x12f;" horiz-adv-x="332" 
d="M90 -14q-25 0 -45 19.5t-20 38.5q0 5 1 10.5t4 12.5q26 59 50.5 119t48.5 118q2 5 -4 5q-8 0 -18 -4.5t-20.5 -11t-21.5 -12.5q-15 -8 -21 -3.5t-6 12.5t14.5 23.5t37.5 34t49 36.5t49.5 31.5t37.5 18.5q16 6 33 -1.5t26.5 -21t4.5 -26.5l-110 -274q-1 -3 -1.5 -6.5
t-0.5 -5.5q0 -3 1.5 -5t3.5 -2q7 0 26 11.5t40 27t34 28.5q3 3 4 3q6 0 10 -5t4 -11q0 -18 -22 -45t-55 -53.5t-69 -44t-65 -17.5zM270 502q-24 0 -40 18.5t-16 41.5q0 36 26 64t64 28q26 0 40 -21t14 -44q0 -34 -26 -60.5t-62 -26.5zM17 -287q-23 0 -43 13t-31.5 32.5
t-11.5 39.5q0 38 19 70.5t49 60t64.5 49.5t66.5 40h44q-32 -22 -59.5 -55.5t-44 -68.5t-16.5 -64q0 -13 8 -20.5t24 -7.5q12 0 27.5 11t28.5 29q2 2 4 5t5 5t7 2q7 0 8 -6t1 -11q0 -18 -14 -39.5t-36 -41t-48.5 -31.5t-51.5 -12z" />
    <glyph glyph-name="Idotaccent" unicode="&#x130;" horiz-adv-x="381" 
d="M-33 -3q-6 0 -10.5 4t-2.5 11q6 17 26 22q41 9 58 20.5t27 42.5l141 454q10 32 1 44.5t-47 22.5q-8 2 -11.5 7.5t-0.5 14.5q2 7 9.5 11t13.5 4q22 0 49 -1t53 -2.5t46 -1.5t48.5 1t58 2t50.5 1q16 0 11 -15q-3 -10 -9 -14t-17 -7q-30 -8 -46.5 -16t-25 -20t-14.5 -32
l-126 -408q-12 -40 -15 -60t6.5 -28.5t31.5 -14.5q23 -6 29.5 -11t3.5 -15q-2 -7 -7.5 -11t-13.5 -4q-21 0 -52.5 1t-62 2t-50.5 1q-30 0 -74.5 -2.5t-77.5 -2.5zM338 692q-31 0 -52 19.5t-21 43.5q0 41 32.5 70t82.5 29q32 0 52 -21.5t20 -48.5q0 -24 -16 -45t-42 -34
t-56 -13z" />
    <glyph glyph-name="dotlessi" unicode="&#x131;" horiz-adv-x="340" 
d="M90 -14q-25 0 -45 19.5t-20 38.5q0 5 1 10.5t4 12.5q26 59 50.5 119t48.5 118q2 5 -4 5q-8 0 -18 -4.5t-20.5 -11t-21.5 -12.5q-15 -8 -21 -3.5t-6 12.5t14.5 23.5t37.5 34t49 36.5t49.5 31.5t37.5 18.5q16 6 33 -1.5t26.5 -21t4.5 -26.5l-110 -274q-1 -3 -1.5 -6.5
t-0.5 -5.5q0 -3 1.5 -5t3.5 -2q7 0 26 11.5t40 27t34 28.5q3 3 4 3q6 0 10 -5t4 -11q0 -18 -22 -45t-55 -53.5t-69 -44t-65 -17.5z" />
    <glyph glyph-name="IJ" unicode="&#x132;" horiz-adv-x="778" 
d="M-33 -3q-6 0 -10.5 4t-2.5 11q6 17 26 22q41 9 58 20.5t27 42.5l141 454q10 32 1 44.5t-47 22.5q-8 2 -11.5 7.5t-0.5 14.5q2 7 9.5 11t13.5 4q22 0 49 -1t53 -2.5t46 -1.5t48.5 1t58 2t50.5 1q16 0 11 -15q-3 -10 -9 -14t-17 -7q-30 -8 -46.5 -16t-25 -20t-14.5 -32
l-126 -408q-12 -40 -15 -60t6.5 -28.5t31.5 -14.5q23 -6 29.5 -11t3.5 -15q-2 -7 -7.5 -11t-13.5 -4q-21 0 -52.5 1t-62 2t-50.5 1q-30 0 -74.5 -2.5t-77.5 -2.5zM317 -200q-77 0 -107.5 15.5t-31.5 42.5q0 31 11.5 52t29.5 21q14 0 30.5 -14t34.5 -31q19 -17 37 -32t33 -15
q16 0 29.5 20t28.5 61t34 105l163 526q10 32 1 45t-46 22q-8 2 -11.5 7.5t-0.5 14.5q2 7 9 11t13 4q22 0 49 -1t53.5 -2.5t46.5 -1.5t48.5 1t57.5 2t50 1q16 0 11 -15q-3 -10 -9 -14t-16 -7q-30 -8 -46.5 -16t-25 -20t-14.5 -32l-154 -498q-6 -21 -18 -44t-28.5 -46t-37 -45
t-43.5 -41q-40 -34 -86.5 -55t-94.5 -21z" />
    <glyph glyph-name="ij" unicode="&#x133;" horiz-adv-x="643" 
d="M90 -14q-25 0 -45 19.5t-20 38.5q0 5 1 10.5t4 12.5q26 59 50.5 119t48.5 118q2 5 -4 5q-8 0 -18 -4.5t-20.5 -11t-21.5 -12.5q-15 -8 -21 -3.5t-6 12.5t14.5 23.5t37.5 34t49 36.5t49.5 31.5t37.5 18.5q16 6 33 -1.5t26.5 -21t4.5 -26.5l-110 -274q-1 -3 -1.5 -6.5
t-0.5 -5.5q0 -3 1.5 -5t3.5 -2q7 0 26 11.5t40 27t34 28.5q3 3 4 3q6 0 10 -5t4 -11q0 -18 -22 -45t-55 -53.5t-69 -44t-65 -17.5zM270 502q-24 0 -40 18.5t-16 41.5q0 36 26 64t64 28q26 0 40 -21t14 -44q0 -34 -26 -60.5t-62 -26.5zM189 -290q-55 0 -77 17.5t-21 39.5
q2 19 12 32.5t22.5 21.5t20.5 8q17 0 28.5 -12t21.5 -24q9 -11 18.5 -19t23.5 -8q25 0 45.5 35.5t38.5 90.5l120 370q9 29 5.5 38t-11.5 9q-13 0 -24.5 -4.5t-25.5 -10.5q-12 -5 -19.5 -3t-7.5 11t6.5 14.5t16.5 13.5q22 17 54 34t65 31t60 24.5t38 15.5q14 6 29 -6.5
t10 -26.5q-5 -16 -19 -46.5t-26 -67.5l-110 -336q-17 -52 -54.5 -96t-83 -77t-87.5 -51t-69 -18zM585 505q-24 0 -40 18.5t-16 41.5q0 36 26 64t64 28q26 0 40 -21t14 -44q0 -34 -26 -60.5t-62 -26.5z" />
    <glyph glyph-name="Jcircumflex" unicode="&#x134;" horiz-adv-x="397" 
d="M-64 -200q-77 0 -107.5 15.5t-31.5 42.5q0 31 11.5 52t29.5 21q14 0 30.5 -14t34.5 -31q19 -17 37 -32t33 -15q16 0 29.5 20t28.5 61t34 105l163 526q10 32 1 45t-46 22q-8 2 -11.5 7.5t-0.5 14.5q2 7 9 11t13 4q22 0 49 -1t53.5 -2.5t46.5 -1.5t48.5 1t57.5 2t50 1
q16 0 11 -15q-3 -10 -9 -14t-16 -7q-30 -8 -46.5 -16t-25 -20t-14.5 -32l-154 -498q-6 -21 -18 -44t-28.5 -46t-37 -45t-43.5 -41q-40 -34 -86.5 -55t-94.5 -21zM206 692q-21 0 -16 13q3 8 14 16l133 96q23 17 35 23.5t26 6.5q15 0 23 -6.5t21 -23.5l78 -95q4 -4 4 -8.5
t-1 -8.5q-3 -14 -21 -14q-9 0 -30.5 9t-45 20.5t-38.5 19.5q-12 7 -26 0q-14 -6 -36 -14.5t-45.5 -16t-43.5 -12.5t-31 -5z" />
    <glyph glyph-name="jcircumflex" unicode="&#x135;" horiz-adv-x="323" 
d="M-131 -290q-55 0 -77 17.5t-21 39.5q2 19 12 32.5t22.5 21.5t20.5 8q17 0 28.5 -12t21.5 -24q9 -11 18.5 -19t23.5 -8q25 0 45.5 35.5t38.5 90.5l120 370q9 29 5.5 38t-11.5 9q-13 0 -24.5 -4.5t-25.5 -10.5q-12 -5 -19.5 -3t-7.5 11t6.5 14.5t16.5 13.5q22 17 54 34
t65 31t60 24.5t38 15.5q14 6 29 -6.5t10 -26.5q-5 -16 -19 -46.5t-26 -67.5l-110 -336q-17 -52 -54.5 -96t-83 -77t-87.5 -51t-69 -18zM329 698q10 0 15 -10.5t11 -32.5q4 -17 9.5 -33.5t10.5 -33t9.5 -33t7.5 -33.5q4 -18 -1 -31.5t-21 -13.5t-32 35q-6 13 -15.5 30
t-22.5 37q-4 6 -12 0q-23 -20 -45 -38t-36 -30q-20 -17 -33 -25.5t-20 -8.5q-11 0 -11 13q0 6 3.5 14t11.5 18q19 22 39 44.5l40 45t40 45.5q17 19 29 30t23 11z" />
    <glyph glyph-name="uni0136" unicode="&#x136;" horiz-adv-x="776" 
d="M-24 -6q-9 0 -17 5.5t-6 12.5q6 17 32 22q41 8 55.5 20t24.5 43l140 454q10 32 1 45t-46 22q-7 2 -10 5.5t-3 9.5q0 9 9.5 15.5t23.5 6.5q17 0 42 -1t51 -2.5t46 -1.5t48.5 1t57.5 2t50 1q14 0 14 -11q0 -12 -9 -17t-19 -8q-30 -8 -46.5 -16t-25 -20t-14.5 -32l-55 -178
q-3 -10 1 -13t14 -3q20 0 43 12t48 37l147 143q11 11 18 19t9 15q4 11 -10.5 19.5t-29.5 11.5q-13 2 -17.5 6.5t-4.5 13.5t7 13.5t17 4.5h80q52 0 99 1.5t108 1.5q22 0 22 -15q0 -9 -13.5 -14.5t-22.5 -6.5q-55 -4 -92 -19.5t-69 -41.5t-67 -55t-69.5 -59.5t-65.5 -61.5
q-10 -10 -12 -17t2 -15q47 -102 84.5 -160.5t65.5 -90.5q20 -23 41 -36.5t44 -22.5q10 -4 22.5 -9.5t12.5 -15.5q0 -8 -9 -13.5t-29 -5.5q-30 0 -56 1.5t-49.5 3t-48.5 1.5q-24 0 -46.5 -0.5t-44 -1.5t-44.5 -1q-7 0 -15 4.5t-8 11.5q0 11 9.5 16.5t22.5 7.5q17 3 20 14
t-1 24.5t-8 24.5l-82 181q-10 21 -18 30t-13 9q-6 0 -8.5 -2.5t-4.5 -7.5l-62 -213q-8 -28 -3 -40.5t40 -23.5q8 -3 14 -6.5t6 -11.5q0 -10 -12 -15t-23 -5q-32 0 -56 2t-44 4t-40 2q-30 0 -60.5 -5t-82.5 -5zM194 -294q-24 0 -24 14q0 7 5.5 12.5t18.5 9.5q29 8 49.5 19.5
t31.5 26t11 30.5q0 13 -9 20.5t-20 12.5q-14 7 -20.5 17t-6.5 23q0 27 21 43.5t56 16.5q38 0 56.5 -22t18.5 -57q0 -26 -16 -55t-42.5 -54t-60 -41t-69.5 -16z" />
    <glyph glyph-name="uni0137" unicode="&#x137;" horiz-adv-x="552" 
d="M341 -14q-19 0 -34 12.5t-23 37.5l-43 130q-4 13 -9 18t-10 5q-6 0 -9 -4.5t-8 -17.5q-7 -16 -13.5 -33.5t-13.5 -34.5t-13.5 -34t-13.5 -34q-6 -13 -25 -24.5t-44 -11.5q-17 0 -37 15t-20 43q0 11 2.5 21t5.5 18l142 437q5 15 9.5 30t4.5 31q0 24 -25 34q-7 3 -13.5 6.5
t-6.5 9.5t5 10.5t24 11.5q12 4 36.5 11.5t51.5 15t49 13t31 5.5q8 0 18 -1.5t10 -12.5q0 -13 -3 -22.5t-7 -20.5l-121 -342q-3 -7 2.5 -7.5t9.5 4.5q25 35 56.5 65t69.5 48.5t81 18.5q32 0 50.5 -14t18.5 -42q0 -23 -13.5 -46t-36 -44.5t-51 -39t-59.5 -30.5q-10 -3 -3 -19
l36 -79q4 -7 10 -16t16 -9q14 0 36 16t36 35q5 6 7 9t6 3q5 0 6.5 -4.5t1.5 -8.5q0 -24 -17.5 -52t-45 -53t-58 -41t-56.5 -16zM251 213q25 0 51 12.5t48 31.5t35.5 39t13.5 35q0 14 -9 19t-23 5q-17 0 -38.5 -16.5t-41 -39.5t-32.5 -44t-13 -30q0 -4 2.5 -8t6.5 -4z
M77 -294q-24 0 -24 14q0 7 5.5 12.5t18.5 9.5q29 8 49.5 19.5t31.5 26t11 30.5q0 13 -9 20.5t-20 12.5q-14 7 -20.5 17t-6.5 23q0 27 21 43.5t56 16.5q38 0 56.5 -22t18.5 -57q0 -26 -16 -55t-42.5 -54t-60 -41t-69.5 -16z" />
    <glyph glyph-name="kgreenlandic" unicode="&#x138;" horiz-adv-x="565" 
d="M127 -14q-13 0 -31 8t-31.5 21t-13.5 26q0 6 0.5 11.5t2 11.5t3.5 12q11 30 29.5 68.5t38 84.5t30.5 96q2 10 0 15.5t-12 5.5q-9 0 -31.5 -6t-45.5 -30q-4 -5 -12.5 -4.5t-9.5 9.5q0 8 7 20.5t17.5 25.5t17.5 19q26 23 55.5 40t79.5 17q28 0 43 -14t19.5 -32.5
t-1.5 -32.5l-54 -133q-3 -7 0.5 -7.5t7.5 5.5q37 47 72.5 86t68 68t60.5 44.5t49 15.5q29 0 47 -20.5t18 -67.5q0 -17 -14 -17q-7 0 -16.5 1t-19.5 2q-12 1 -22 2t-15 1q-21 0 -38.5 -3.5t-34 -11.5t-33.5 -21.5t-38 -34.5q-4 -4 -4 -7.5t5 -10.5q9 -12 17.5 -29.5
t15.5 -37.5q14 -33 27.5 -60.5t30.5 -27.5q10 0 26 9.5t31.5 22.5t22.5 21q10 11 14.5 15t8.5 4q5 0 6.5 -4.5t1.5 -8.5q0 -17 -19 -44.5t-48 -56t-60.5 -47.5t-56.5 -19q-24 0 -40 17t-28 51l-34 99q-2 5 -5 11t-8 6q-4 0 -7.5 -4.5t-7.5 -17.5q-7 -25 -21 -60.5t-26 -69.5
q-7 -19 -14.5 -25.5t-20.5 -6.5z" />
    <glyph glyph-name="Lacute" unicode="&#x139;" horiz-adv-x="578" 
d="M-27 -5q-9 0 -12 5t-2 11q4 15 26 21q36 11 53 21.5t27 41.5l141 456q10 32 1 44.5t-46 22.5q-8 2 -11 7.5t-1 14.5q2 7 9 11t13 4q22 0 49 -1t53.5 -2.5t46.5 -1.5t48.5 1t57.5 2t50 1q16 0 11 -15q-3 -10 -9 -14t-16 -7q-30 -8 -46.5 -16t-25 -20t-14.5 -32l-122 -396
q-21 -69 -11.5 -91.5t37.5 -22.5h26q40 0 73.5 9.5t58.5 25.5q29 20 50 47.5t37 61.5q4 8 10 14t12 6q5 0 8.5 -6.5t3.5 -13.5q0 -16 -6.5 -39.5t-16.5 -48.5t-20.5 -47t-19.5 -35q-4 -7 -9 -13t-14 -6q-14 0 -53.5 1t-92.5 1.5t-108.5 1.5t-100.5 1q-30 0 -73 -2.5
t-72 -2.5zM307 681q-12 0 -14 8q-1 7 9 23q23 37 46.5 70.5t51.5 67.5q12 15 34 15q8 0 27.5 -4.5t35.5 -12t15 -16.5q-1 -12 -18 -24q-38 -28 -80 -59.5t-81 -57.5q-9 -6 -16 -8t-10 -2z" />
    <glyph glyph-name="lacute" unicode="&#x13a;" horiz-adv-x="318" 
d="M73 -14q-25 0 -42 19.5t-17 38.5q0 8 5 23l165 491q13 38 7.5 52.5t-25.5 17.5q-16 2 -19 6.5t-2 11.5q2 7 5.5 11t15.5 7q28 7 60 13t61 11.5t46 11.5q3 1 8 2.5t10 2.5t7 1q6 0 9.5 -8t1.5 -13q-2 -7 -6 -20t-9 -27l-178 -511q-1 -3 -1.5 -6t-0.5 -5q0 -13 12 -13
q8 0 21.5 9t28.5 22.5t28 26.5l2 2t2 1q8 0 10.5 -7t2.5 -10q0 -15 -14.5 -35.5t-38.5 -42.5t-52 -40.5t-55 -30.5t-48 -12zM248 732q-7 0 -13 3.5t-6 10.5q0 5 3.5 10.5t15.5 14.5q31 23 75 51t79 48q2 1 4.5 2t5 1.5l5 1t5.5 0.5q18 0 29.5 -14.5t17 -30.5t5.5 -23
q0 -4 -1 -8t-3 -6.5t-7 -4.5q-46 -15 -87.5 -28.5t-87.5 -21.5q-4 -1 -9 -2t-10.5 -2t-10.5 -1.5t-10 -0.5z" />
    <glyph glyph-name="uni013B" unicode="&#x13b;" horiz-adv-x="578" 
d="M-27 -5q-9 0 -12 5t-2 11q4 15 26 21q36 11 53 21.5t27 41.5l141 456q10 32 1 44.5t-46 22.5q-8 2 -11 7.5t-1 14.5q2 7 9 11t13 4q22 0 49 -1t53.5 -2.5t46.5 -1.5t48.5 1t57.5 2t50 1q16 0 11 -15q-3 -10 -9 -14t-16 -7q-30 -8 -46.5 -16t-25 -20t-14.5 -32l-122 -396
q-21 -69 -11.5 -91.5t37.5 -22.5h26q40 0 73.5 9.5t58.5 25.5q29 20 50 47.5t37 61.5q4 8 10 14t12 6q5 0 8.5 -6.5t3.5 -13.5q0 -16 -6.5 -39.5t-16.5 -48.5t-20.5 -47t-19.5 -35q-4 -7 -9 -13t-14 -6q-14 0 -53.5 1t-92.5 1.5t-108.5 1.5t-100.5 1q-30 0 -73 -2.5
t-72 -2.5zM135 -294q-24 0 -24 14q0 7 5.5 12.5t18.5 9.5q29 8 49.5 19.5t31.5 26t11 30.5q0 13 -9 20.5t-20 12.5q-14 7 -20.5 17t-6.5 23q0 27 21 43.5t56 16.5q38 0 56.5 -22t18.5 -57q0 -26 -16 -55t-42.5 -54t-60 -41t-69.5 -16z" />
    <glyph glyph-name="uni013C" unicode="&#x13c;" horiz-adv-x="319" 
d="M73 -14q-25 0 -42 19.5t-17 38.5q0 8 5 23l165 491q13 38 7.5 52.5t-25.5 17.5q-16 2 -19 6.5t-2 11.5q2 7 5.5 11t15.5 7q28 7 60 13t61 11.5t46 11.5q3 1 8 2.5t10 2.5t7 1q6 0 9.5 -8t1.5 -13q-2 -7 -6 -20t-9 -27l-178 -511q-1 -3 -1.5 -6t-0.5 -5q0 -13 12 -13
q8 0 21.5 9t28.5 22.5t28 26.5l2 2t2 1q8 0 10.5 -7t2.5 -10q0 -15 -14.5 -35.5t-38.5 -42.5t-52 -40.5t-55 -30.5t-48 -12zM-56 -294q-24 0 -24 14q0 7 5.5 12.5t18.5 9.5q29 8 49.5 19.5t31.5 26t11 30.5q0 13 -9 20.5t-20 12.5q-14 7 -20.5 17t-6.5 23q0 27 21 43.5
t56 16.5q38 0 56.5 -22t18.5 -57q0 -26 -16 -55t-42.5 -54t-60 -41t-69.5 -16z" />
    <glyph glyph-name="Lcaron" unicode="&#x13d;" horiz-adv-x="593" 
d="M-27 -5q-9 0 -12 5t-2 11q4 15 26 21q36 11 53 21.5t27 41.5l141 456q10 32 1 44.5t-46 22.5q-8 2 -11 7.5t-1 14.5q2 7 9 11t13 4q22 0 49 -1t53.5 -2.5t46.5 -1.5t48.5 1t57.5 2t50 1q16 0 11 -15q-3 -10 -9 -14t-16 -7q-30 -8 -46.5 -16t-25 -20t-14.5 -32l-122 -396
q-21 -69 -11.5 -91.5t37.5 -22.5h26q40 0 73.5 9.5t58.5 25.5q29 20 50 47.5t37 61.5q4 8 10 14t12 6q5 0 8.5 -6.5t3.5 -13.5q0 -16 -6.5 -39.5t-16.5 -48.5t-20.5 -47t-19.5 -35q-4 -7 -9 -13t-14 -6q-14 0 -53.5 1t-92.5 1.5t-108.5 1.5t-100.5 1q-30 0 -73 -2.5
t-72 -2.5zM497 414q-8 0 -8 10q0 5 3 10t7 12q14 30 23.5 65.5t18.5 87.5q3 15 22 33t44 31t44 13q10 0 12.5 -10.5t2.5 -18.5q0 -27 -15 -58.5t-37.5 -62.5t-46.5 -56.5t-43.5 -40.5t-26.5 -15z" />
    <glyph glyph-name="lcaron" unicode="&#x13e;" horiz-adv-x="381" 
d="M73 -14q-25 0 -42 19.5t-17 38.5q0 8 5 23l165 491q13 38 7.5 52.5t-25.5 17.5q-16 2 -19 6.5t-2 11.5q2 7 5.5 11t15.5 7q28 7 60 13t61 11.5t46 11.5q3 1 8 2.5t10 2.5t7 1q6 0 9.5 -8t1.5 -13q-2 -7 -6 -20t-9 -27l-178 -511q-1 -3 -1.5 -6t-0.5 -5q0 -13 12 -13
q8 0 21.5 9t28.5 22.5t28 26.5l2 2t2 1q8 0 10.5 -7t2.5 -10q0 -15 -14.5 -35.5t-38.5 -42.5t-52 -40.5t-55 -30.5t-48 -12zM373 451q-8 0 -8 10q0 5 3 10t7 12q14 30 23.5 65.5t18.5 87.5q3 15 22 33t44 31t44 13q10 0 12.5 -10.5t2.5 -18.5q0 -27 -15 -58.5t-37.5 -62.5
t-46.5 -56.5t-43.5 -40.5t-26.5 -15z" />
    <glyph glyph-name="Ldot" unicode="&#x13f;" horiz-adv-x="578" 
d="M-27 -5q-9 0 -12 5t-2 11q4 15 26 21q36 11 53 21.5t27 41.5l141 456q10 32 1 44.5t-46 22.5q-8 2 -11 7.5t-1 14.5q2 7 9 11t13 4q22 0 49 -1t53.5 -2.5t46.5 -1.5t48.5 1t57.5 2t50 1q16 0 11 -15q-3 -10 -9 -14t-16 -7q-30 -8 -46.5 -16t-25 -20t-14.5 -32l-122 -396
q-21 -69 -11.5 -91.5t37.5 -22.5h26q40 0 73.5 9.5t58.5 25.5q29 20 50 47.5t37 61.5q4 8 10 14t12 6q5 0 8.5 -6.5t3.5 -13.5q0 -16 -6.5 -39.5t-16.5 -48.5t-20.5 -47t-19.5 -35q-4 -7 -9 -13t-14 -6q-14 0 -53.5 1t-92.5 1.5t-108.5 1.5t-100.5 1q-30 0 -73 -2.5
t-72 -2.5zM533 283q-24 0 -40 18.5t-16 41.5q0 36 26 64t64 28q26 0 40 -21t14 -44q0 -34 -26 -60.5t-62 -26.5z" />
    <glyph glyph-name="ldot" unicode="&#x140;" horiz-adv-x="391" 
d="M73 -14q-25 0 -42 19.5t-17 38.5q0 8 5 23l165 491q13 38 7.5 52.5t-25.5 17.5q-16 2 -19 6.5t-2 11.5q2 7 5.5 11t15.5 7q28 7 60 13t61 11.5t46 11.5q3 1 8 2.5t10 2.5t7 1q6 0 9.5 -8t1.5 -13q-2 -7 -6 -20t-9 -27l-178 -511q-1 -3 -1.5 -6t-0.5 -5q0 -13 12 -13
q8 0 21.5 9t28.5 22.5t28 26.5l2 2t2 1q8 0 10.5 -7t2.5 -10q0 -15 -14.5 -35.5t-38.5 -42.5t-52 -40.5t-55 -30.5t-48 -12zM373.42 294.195q-25.3672 0 -43.4883 19.0264q-18.1191 19.0264 -18.1191 43.4883q0 25.3682 13.1367 47.1123t34.4277 35.334
q21.291 13.5908 46.6602 13.5908q31.71 0 48.4707 -22.1973q16.7617 -22.1973 16.7617 -45.7529q0 -23.5566 -13.1377 -44.3945q-13.1367 -20.8379 -35.334 -33.5225t-49.3779 -12.6846z" />
    <glyph glyph-name="Lslash" unicode="&#x141;" horiz-adv-x="578" 
d="M77 246q-12 -4 -22 -1t-10 13q0 18 7 32.5t19 18.5l88 30l82 18l192 61q9 3 18.5 -0.5t9.5 -15.5q0 -19 -7 -32.5t-27 -19.5l-187 -59l-79 -16zM-27 -5q-9 0 -12 5t-2 11q4 15 26 21q36 11 53 21.5t27 41.5l141 456q10 32 1 44.5t-46 22.5q-8 2 -11 7.5t-1 14.5q2 7 9 11
t13 4q22 0 49 -1t53.5 -2.5t46.5 -1.5t48.5 1t57.5 2t50 1q16 0 11 -15q-3 -10 -9 -14t-16 -7q-30 -8 -46.5 -16t-25 -20t-14.5 -32l-122 -396q-21 -69 -11.5 -91.5t37.5 -22.5h26q40 0 73.5 9.5t58.5 25.5q29 20 50 47.5t37 61.5q4 8 10 14t12 6q5 0 8.5 -6.5t3.5 -13.5
q0 -16 -6.5 -39.5t-16.5 -48.5t-20.5 -47t-19.5 -35q-4 -7 -9 -13t-14 -6q-14 0 -53.5 1t-92.5 1.5t-108.5 1.5t-100.5 1q-30 0 -73 -2.5t-72 -2.5z" />
    <glyph glyph-name="lslash" unicode="&#x142;" horiz-adv-x="349" 
d="M78 286q-8 -4 -19.5 6t-11.5 19q0 11 7 18.5t14 11.5l93 41l69 8l121 53q2 1 5 2t6 1q6 0 11.5 -6.5t5.5 -24.5q0 -8 -8.5 -17.5t-19.5 -14.5l-121 -54l-68 -7zM93 -14q-25 0 -42 19.5t-17 38.5q0 8 5 23l165 491q13 38 7.5 52.5t-25.5 17.5q-16 2 -19 6.5t-2 11.5
q2 7 5.5 11t15.5 7q28 7 60 13t61 11.5t46 11.5q3 1 8 2.5t10 2.5t7 1q6 0 9.5 -8t1.5 -13q-2 -7 -6 -20t-9 -27l-178 -511q-1 -3 -1.5 -6t-0.5 -5q0 -13 12 -13q8 0 21.5 9t28.5 22.5t28 26.5l2 2t2 1q8 0 10.5 -7t2.5 -10q0 -15 -14.5 -35.5t-38.5 -42.5t-52 -40.5
t-55 -30.5t-48 -12z" />
    <glyph glyph-name="Nacute" unicode="&#x143;" horiz-adv-x="783" 
d="M3 -3q-6 0 -13 4t-5 11q3 9 12 13.5t19 7.5q30 8 50.5 28t33.5 54l151 395q14 37 8.5 60t-28.5 35t-63 15q-13 2 -20 7t-7 15q0 6 11 11t22 5q21 0 55.5 -1t73 -2.5t69.5 -1.5q14 0 22.5 -5.5t13.5 -16.5l191 -432q2 -4 4.5 -8t5.5 -4q7 0 12 14q3 7 7.5 21.5t11 35.5
t14 47.5t15.5 56.5t15.5 62.5t13.5 65.5q14 68 -4.5 94.5t-73.5 36.5q-17 3 -16 15q1 7 10 11t16 4q41 0 71 -3t44 -3q20 0 38.5 2t39.5 3.5t46 1.5q19 0 19 -15q0 -7 -11.5 -11.5t-22.5 -6.5q-24 -5 -41 -14.5t-30.5 -32.5t-27.5 -67q-6 -20 -13.5 -44.5t-16 -52.5
t-17.5 -58.5t-19 -62.5t-19.5 -64.5t-19.5 -64.5q-10 -31 -8.5 -48.5t14.5 -40.5q5 -7 10.5 -17.5t12.5 -17.5q8 -7 13.5 -10t5.5 -8q0 -10 -5.5 -13t-16.5 -3q-29 0 -48 -2t-34.5 -3.5t-35.5 -2.5q-31 -1 -46 14t-27 46q-6 16 -22 54.5t-36.5 88t-42 101t-39.5 95t-29 70
t-11 25.5q-1 2 -3.5 6t-4.5 4q-4 0 -7.5 -7t-5.5 -12q-13 -32 -31 -79.5t-36 -100t-32.5 -101t-22.5 -83.5q-8 -38 4 -53t54 -26q8 -2 15.5 -6.5t4.5 -14.5q-2 -7 -11.5 -11t-17.5 -4q-27 0 -42.5 1t-26.5 1.5t-27 0.5q-23 0 -49 -1t-44.5 -2zM492 681q-12 0 -14 8
q-1 7 9 23q23 37 46.5 70.5t51.5 67.5q12 15 34 15q8 0 27.5 -4.5t35.5 -12t15 -16.5q-1 -12 -18 -24q-38 -28 -80 -59.5t-81 -57.5q-9 -6 -16 -8t-10 -2z" />
    <glyph glyph-name="nacute" unicode="&#x144;" horiz-adv-x="614" 
d="M129 -14q-9 0 -23 7t-27 19.5t-19 29.5t2 36l98 244q8 21 -12 21q-6 0 -20 -1t-30.5 -8t-31.5 -24q-4 -5 -12.5 -4.5t-9.5 9.5q0 8 7 20.5t17.5 25.5t17.5 19q26 23 62 40t86 17q28 0 42.5 -14.5t17.5 -36t-6 -44.5l-50 -123q-3 -7 6.5 -8t13.5 6q34 61 67.5 110.5
t71 79.5t81.5 30q43 0 61 -23.5t18.5 -56.5t-12.5 -62l-72 -168q-12 -29 4 -29q5 0 14.5 5t20.5 13t20.5 16t14.5 13q6 6 12.5 12t10.5 6q3 0 6.5 -4t3.5 -9q0 -22 -15 -40q-30 -36 -68.5 -64t-79 -44t-75.5 -16q-14 0 -28.5 9t-21.5 21.5t-2 25.5q33 75 69.5 147.5
t64.5 148.5q5 14 4 21.5t-12 7.5q-13 0 -28.5 -17.5t-32 -43t-34.5 -51.5q-8 -12 -23 -36.5t-33 -54t-34.5 -58t-28.5 -48.5q-17 -30 -35 -51t-38 -21zM375 469q-13 0 -14 11.5t4 22.5l73 162q9 20 18 28.5t21 8.5q11 0 26 -9t26 -21t11 -22t-6 -20t-17 -21l-111 -123
q-7 -7 -15 -12t-16 -5z" />
    <glyph glyph-name="uni0145" unicode="&#x145;" horiz-adv-x="783" 
d="M3 -3q-6 0 -13 4t-5 11q3 9 12 13.5t19 7.5q30 8 50.5 28t33.5 54l151 395q14 37 8.5 60t-28.5 35t-63 15q-13 2 -20 7t-7 15q0 6 11 11t22 5q21 0 55.5 -1t73 -2.5t69.5 -1.5q14 0 22.5 -5.5t13.5 -16.5l191 -432q2 -4 4.5 -8t5.5 -4q7 0 12 14q3 7 7.5 21.5t11 35.5
t14 47.5t15.5 56.5t15.5 62.5t13.5 65.5q14 68 -4.5 94.5t-73.5 36.5q-17 3 -16 15q1 7 10 11t16 4q41 0 71 -3t44 -3q20 0 38.5 2t39.5 3.5t46 1.5q19 0 19 -15q0 -7 -11.5 -11.5t-22.5 -6.5q-24 -5 -41 -14.5t-30.5 -32.5t-27.5 -67q-6 -20 -13.5 -44.5t-16 -52.5
t-17.5 -58.5t-19 -62.5t-19.5 -64.5t-19.5 -64.5q-10 -31 -8.5 -48.5t14.5 -40.5q5 -7 10.5 -17.5t12.5 -17.5q8 -7 13.5 -10t5.5 -8q0 -10 -5.5 -13t-16.5 -3q-29 0 -48 -2t-34.5 -3.5t-35.5 -2.5q-31 -1 -46 14t-27 46q-6 16 -22 54.5t-36.5 88t-42 101t-39.5 95t-29 70
t-11 25.5q-1 2 -3.5 6t-4.5 4q-4 0 -7.5 -7t-5.5 -12q-13 -32 -31 -79.5t-36 -100t-32.5 -101t-22.5 -83.5q-8 -38 4 -53t54 -26q8 -2 15.5 -6.5t4.5 -14.5q-2 -7 -11.5 -11t-17.5 -4q-27 0 -42.5 1t-26.5 1.5t-27 0.5q-23 0 -49 -1t-44.5 -2zM249 -294q-24 0 -24 14
q0 7 5.5 12.5t18.5 9.5q29 8 49.5 19.5t31.5 26t11 30.5q0 13 -9 20.5t-20 12.5q-14 7 -20.5 17t-6.5 23q0 27 21 43.5t56 16.5q38 0 56.5 -22t18.5 -57q0 -26 -16 -55t-42.5 -54t-60 -41t-69.5 -16z" />
    <glyph glyph-name="uni0146" unicode="&#x146;" horiz-adv-x="614" 
d="M129 -14q-9 0 -23 7t-27 19.5t-19 29.5t2 36l98 244q8 21 -12 21q-6 0 -20 -1t-30.5 -8t-31.5 -24q-4 -5 -12.5 -4.5t-9.5 9.5q0 8 7 20.5t17.5 25.5t17.5 19q26 23 62 40t86 17q28 0 42.5 -14.5t17.5 -36t-6 -44.5l-50 -123q-3 -7 6.5 -8t13.5 6q34 61 67.5 110.5
t71 79.5t81.5 30q43 0 61 -23.5t18.5 -56.5t-12.5 -62l-72 -168q-12 -29 4 -29q5 0 14.5 5t20.5 13t20.5 16t14.5 13q6 6 12.5 12t10.5 6q3 0 6.5 -4t3.5 -9q0 -22 -15 -40q-30 -36 -68.5 -64t-79 -44t-75.5 -16q-14 0 -28.5 9t-21.5 21.5t-2 25.5q33 75 69.5 147.5
t64.5 148.5q5 14 4 21.5t-12 7.5q-13 0 -28.5 -17.5t-32 -43t-34.5 -51.5q-8 -12 -23 -36.5t-33 -54t-34.5 -58t-28.5 -48.5q-17 -30 -35 -51t-38 -21zM110 -294q-24 0 -24 14q0 7 5.5 12.5t18.5 9.5q29 8 49.5 19.5t31.5 26t11 30.5q0 13 -9 20.5t-20 12.5q-14 7 -20.5 17
t-6.5 23q0 27 21 43.5t56 16.5q38 0 56.5 -22t18.5 -57q0 -26 -16 -55t-42.5 -54t-60 -41t-69.5 -16z" />
    <glyph glyph-name="Ncaron" unicode="&#x147;" horiz-adv-x="783" 
d="M3 -3q-6 0 -13 4t-5 11q3 9 12 13.5t19 7.5q30 8 50.5 28t33.5 54l151 395q14 37 8.5 60t-28.5 35t-63 15q-13 2 -20 7t-7 15q0 6 11 11t22 5q21 0 55.5 -1t73 -2.5t69.5 -1.5q14 0 22.5 -5.5t13.5 -16.5l191 -432q2 -4 4.5 -8t5.5 -4q7 0 12 14q3 7 7.5 21.5t11 35.5
t14 47.5t15.5 56.5t15.5 62.5t13.5 65.5q14 68 -4.5 94.5t-73.5 36.5q-17 3 -16 15q1 7 10 11t16 4q41 0 71 -3t44 -3q20 0 38.5 2t39.5 3.5t46 1.5q19 0 19 -15q0 -7 -11.5 -11.5t-22.5 -6.5q-24 -5 -41 -14.5t-30.5 -32.5t-27.5 -67q-6 -20 -13.5 -44.5t-16 -52.5
t-17.5 -58.5t-19 -62.5t-19.5 -64.5t-19.5 -64.5q-10 -31 -8.5 -48.5t14.5 -40.5q5 -7 10.5 -17.5t12.5 -17.5q8 -7 13.5 -10t5.5 -8q0 -10 -5.5 -13t-16.5 -3q-29 0 -48 -2t-34.5 -3.5t-35.5 -2.5q-31 -1 -46 14t-27 46q-6 16 -22 54.5t-36.5 88t-42 101t-39.5 95t-29 70
t-11 25.5q-1 2 -3.5 6t-4.5 4q-4 0 -7.5 -7t-5.5 -12q-13 -32 -31 -79.5t-36 -100t-32.5 -101t-22.5 -83.5q-8 -38 4 -53t54 -26q8 -2 15.5 -6.5t4.5 -14.5q-2 -7 -11.5 -11t-17.5 -4q-27 0 -42.5 1t-26.5 1.5t-27 0.5q-23 0 -49 -1t-44.5 -2zM538 698q-14 0 -22 7t-21 23
l-76 96q-6 8 -4 16q3 13 24 13q8 0 28.5 -8.5t42.5 -20.5t35 -21q5 -4 10.5 -4t13.5 4q15 7 40 15.5t51.5 16.5t47 13.5t27.5 5.5q16 0 16 -13q0 -11 -12 -20l-139 -93q-23 -16 -35 -23t-27 -7z" />
    <glyph glyph-name="ncaron" unicode="&#x148;" horiz-adv-x="614" 
d="M129 -14q-9 0 -23 7t-27 19.5t-19 29.5t2 36l98 244q8 21 -12 21q-6 0 -20 -1t-30.5 -8t-31.5 -24q-4 -5 -12.5 -4.5t-9.5 9.5q0 8 7 20.5t17.5 25.5t17.5 19q26 23 62 40t86 17q28 0 42.5 -14.5t17.5 -36t-6 -44.5l-50 -123q-3 -7 6.5 -8t13.5 6q34 61 67.5 110.5
t71 79.5t81.5 30q43 0 61 -23.5t18.5 -56.5t-12.5 -62l-72 -168q-12 -29 4 -29q5 0 14.5 5t20.5 13t20.5 16t14.5 13q6 6 12.5 12t10.5 6q3 0 6.5 -4t3.5 -9q0 -22 -15 -40q-30 -36 -68.5 -64t-79 -44t-75.5 -16q-14 0 -28.5 9t-21.5 21.5t-2 25.5q33 75 69.5 147.5
t64.5 148.5q5 14 4 21.5t-12 7.5q-13 0 -28.5 -17.5t-32 -43t-34.5 -51.5q-8 -12 -23 -36.5t-33 -54t-34.5 -58t-28.5 -48.5q-17 -30 -35 -51t-38 -21zM381 473q-10 0 -15 10.5t-11 32.5q-4 17 -9.5 33.5t-10.5 33t-9.5 33t-7.5 33.5q-4 18 1 31.5t21 13.5t32 -35
q6 -13 15.5 -30t22.5 -37q4 -6 12 0q23 20 45 38t36 30q20 17 33 25.5t20 8.5q11 0 11 -13q0 -6 -3.5 -14t-11.5 -18q-19 -22 -39 -44.5l-40 -45t-40 -45.5q-17 -19 -29 -30t-23 -11z" />
    <glyph glyph-name="napostrophe" unicode="&#x149;" horiz-adv-x="700" 
d="M215 -14q-9 0 -23 7t-27 19.5t-19 29.5t2 36l98 244q8 21 -12 21q-6 0 -20 -1t-30.5 -8t-31.5 -24q-4 -5 -12.5 -4.5t-9.5 9.5q0 8 7 20.5t17.5 25.5t17.5 19q26 23 62 40t86 17q28 0 42.5 -14.5t17.5 -36t-6 -44.5l-50 -123q-3 -7 6.5 -8t13.5 6q34 61 67.5 110.5
t71 79.5t81.5 30q43 0 61 -23.5t18.5 -56.5t-12.5 -62l-72 -168q-12 -29 4 -29q5 0 14.5 5t20.5 13t20.5 16t14.5 13q6 6 12.5 12t10.5 6q3 0 6.5 -4t3.5 -9q0 -22 -15 -40q-30 -36 -68.5 -64t-79 -44t-75.5 -16q-14 0 -28.5 9t-21.5 21.5t-2 25.5q33 75 69.5 147.5
t64.5 148.5q5 14 4 21.5t-12 7.5q-13 0 -28.5 -17.5t-32 -43t-34.5 -51.5q-8 -12 -23 -36.5t-33 -54t-34.5 -58t-28.5 -48.5q-17 -30 -35 -51t-38 -21zM40 420q-12 0 -18 5.5t-3 13.5t11 13.5t19 6.5q27 4 51 17.5t39 33.5t15 40q0 14 -9 21t-21 11q-11 4 -19.5 13.5
t-8.5 25.5q0 34 24.5 59t59.5 25q37 0 62 -23.5t25 -64.5q0 -33 -18.5 -68t-51 -64t-73 -47t-84.5 -18z" />
    <glyph glyph-name="Eng" unicode="&#x14a;" horiz-adv-x="768" 
d="M378 -275q-35 0 -54.5 14t-27 34t-7.5 38q0 14 6 16.5t14 2.5q69 0 114.5 20t71.5 49.5t34 57.5q5 17 3.5 30.5t-7.5 23.5q-6 11 -21 41.5t-36 74t-44 92t-45.5 95.5t-41 85t-29 60.5t-9.5 21.5q-1 2 -3.5 6t-4.5 4q-4 0 -7.5 -7t-5.5 -12q-13 -32 -30 -77.5t-34 -96.5
t-32 -99t-25 -86t4 -53t56 -26q8 -2 15.5 -6.5t4.5 -14.5q-2 -7 -11.5 -11t-17.5 -4q-27 0 -42.5 1t-26.5 1.5t-27 0.5q-23 0 -49 -1t-44.5 -2l-18.5 -1q-6 0 -13 4t-5 11q3 9 12 13.5t19 7.5q30 8 50 28t34 54l148 387q12 38 6 60t-28.5 35t-62.5 23q-8 2 -15.5 7.5
t-4.5 14.5t11.5 12.5t19.5 3.5q21 0 55.5 -1t73 -2.5t69.5 -1.5q14 0 22.5 -5.5t13.5 -16.5l198 -413q2 -4 4.5 -8t5.5 -4q7 0 12 14q3 7 8.5 25t13 44.5t16 57.5t17.5 63.5t17 63.5t14 56q6 22 2 38t-25 27.5t-66 19.5q-8 2 -13.5 6.5t-2.5 14.5q2 7 10.5 11t15.5 4
q41 0 71 -3t44 -3q29 0 58 3.5t66 3.5q11 0 16 -4t3 -11q-3 -9 -11 -14t-20 -7q-37 -7 -58 -22t-34 -58q-7 -24 -17 -55.5t-21.5 -69t-24 -78t-25.5 -81.5t-26 -80t-24.5 -74t-20.5 -63q-18 -60 -46.5 -115.5t-61.5 -99.5t-65 -69.5t-57 -25.5z" />
    </font>
</defs>
</svg>
